<svg width="25" height="25" viewBox="0 0 25 25" fill="none" xmlns="http://www.w3.org/2000/svg">
<g clip-path="url(#clip0_27_110)">
<path d="M24.5283 11.3857L13.6127 0.471656C13.4632 0.322128 13.2858 0.203511 13.0905 0.122583C12.8951 0.0416541 12.6858 0 12.4744 0C12.263 0 12.0536 0.0416541 11.8583 0.122583C11.663 0.203511 11.4856 0.322128 11.3361 0.471656L9.07048 2.73728L11.9455 5.61228C12.2846 5.49651 12.6493 5.4784 12.9982 5.56001C13.3471 5.64163 13.666 5.81967 13.9185 6.07383C14.171 6.32799 14.347 6.64803 14.4264 6.99742C14.5058 7.3468 14.4853 7.71146 14.3674 8.04978L17.1377 10.8217C17.5475 10.6773 17.9943 10.6769 18.4045 10.8204C18.8146 10.9639 19.1637 11.2428 19.3941 11.6112C19.6246 11.9796 19.7228 12.4154 19.6725 12.847C19.6222 13.2786 19.4264 13.6802 19.1174 13.9857C18.8045 14.3005 18.3921 14.4969 17.9506 14.5413C17.509 14.5858 17.0657 14.4755 16.6964 14.2295C16.3271 13.9834 16.0547 13.6167 15.9257 13.1921C15.7968 12.7675 15.8192 12.3113 15.9892 11.9013L13.4064 9.31697V16.1185C13.799 16.3129 14.1131 16.6359 14.2964 17.0337C14.4798 17.4316 14.5212 17.8803 14.4138 18.3049C14.3064 18.7296 14.0567 19.1047 13.7063 19.3676C13.3559 19.6305 12.926 19.7654 12.4882 19.7497C12.0505 19.7341 11.6313 19.5689 11.3005 19.2817C10.9698 18.9944 10.7475 18.6025 10.6707 18.1713C10.5938 17.74 10.6672 17.2954 10.8784 16.9117C11.0896 16.5279 11.426 16.2281 11.8314 16.0623V9.19822C11.5975 9.10237 11.3849 8.96116 11.2058 8.78274C11.0267 8.60432 10.8847 8.39222 10.7879 8.15866C10.6912 7.9251 10.6416 7.6747 10.6421 7.4219C10.6426 7.1691 10.6932 6.9189 10.7908 6.68572L7.95798 3.85134L0.473609 11.3357C0.324081 11.4852 0.205464 11.6626 0.124536 11.8579C0.0436072 12.0532 0.00195313 12.2626 0.00195312 12.474C0.00195313 12.6854 0.0436072 12.8948 0.124536 13.0901C0.205464 13.2854 0.324081 13.4628 0.473609 13.6123L11.3892 24.5279C11.5387 24.6774 11.7161 24.7961 11.9115 24.877C12.1068 24.9579 12.3161 24.9996 12.5275 24.9996C12.7389 24.9996 12.9483 24.9579 13.1436 24.877C13.3389 24.7961 13.5163 24.6774 13.6658 24.5279L24.5299 13.6638C24.6794 13.5144 24.798 13.3369 24.8789 13.1416C24.9599 12.9463 25.0015 12.737 25.0015 12.5256C25.0015 12.3141 24.9599 12.1048 24.8789 11.9095C24.798 11.7142 24.6794 11.5367 24.5299 11.3873" fill="#69699B"/>
</g>
<defs>
<clipPath id="clip0_27_110">
<rect width="25" height="25" fill="white"/>
</clipPath>
</defs>
</svg>
