<svg width="25" height="15" viewBox="0 0 25 15" fill="none" xmlns="http://www.w3.org/2000/svg">
<path d="M12.5 0C9.1625 0 7.0875 1.6625 6.25 5C7.5 3.3375 8.9625 2.7125 10.625 3.125C11.575 3.3625 12.2625 4.05 13.0125 4.8125C14.2375 6.0625 15.625 7.5 18.75 7.5C22.0875 7.5 24.1625 5.8375 25 2.5C23.75 4.1625 22.2875 4.7875 20.625 4.375C19.675 4.1375 19 3.45 18.2375 2.6875C17.0125 1.4375 15.625 0 12.5 0ZM6.25 7.5C2.9125 7.5 0.8375 9.1625 0 12.5C1.25 10.8375 2.7125 10.2125 4.375 10.625C5.325 10.8625 6 11.55 6.7625 12.3125C7.9875 13.5625 9.375 15 12.5 15C15.8375 15 17.9125 13.3375 18.75 10C17.5 11.6625 16.0375 12.2875 14.375 11.875C13.425 11.6375 12.75 10.95 11.9875 10.1875C10.7625 8.9375 9.375 7.5 6.25 7.5Z" fill="#69699B"/>
</svg>
