<?xml version="1.0" standalone="no"?>
<!DOCTYPE svg PUBLIC "-//W3C//DTD SVG 1.1//EN" "http://www.w3.org/Graphics/SVG/1.1/DTD/svg11.dtd" >
<svg xmlns="http://www.w3.org/2000/svg" xmlns:xlink="http://www.w3.org/1999/xlink" version="1.1">
<metadata>
Created by FontForge 20201107 at Tue Jan 28 02:03:08 2020
 By 
Copyright (c) 2015 Now by Alfredo Marco Pradil. All rights reserved.
</metadata>
<defs>
<font id="Now-Regular" horiz-adv-x="0" >
  <font-face 
    font-family="Now"
    font-weight="400"
    font-stretch="normal"
    units-per-em="2048"
    panose-1="0 0 5 0 0 0 0 0 0 0"
    ascent="1638"
    descent="-410"
    x-height="813"
    cap-height="1219"
    bbox="-1310 -553 1773 1901"
    underline-thickness="50"
    underline-position="-100"
    unicode-range="U+0020-FB02"
  />
<missing-glyph horiz-adv-x="1080" 
d="M207 0v1219h666v-1219h-666zM311 104h458v1011h-458v-1011z" />
    <glyph glyph-name="fi" unicode="fi" horiz-adv-x="967" 
d="M314 1260v-447h217v-130h-217v-683h-133v683h-136v130h136v465q0 97 70 165.5t167 68.5q70 0 109 -26v-104h-92q-50 0 -85.5 -34t-35.5 -88zM753 1055q-37 0 -64 26.5t-27 62.5q0 38 27 64.5t64 26.5t64 -26.5t27 -64.5q0 -36 -27 -62.5t-64 -26.5zM686 0v813h133v-813
h-133z" />
    <glyph glyph-name="fl" unicode="fl" horiz-adv-x="967" 
d="M314 1260v-447h217v-130h-217v-683h-133v683h-136v130h136v465q0 97 70 165.5t167 68.5q70 0 109 -26v-104h-92q-50 0 -85.5 -34t-35.5 -88zM686 1495h133v-1495h-133v1495z" />
    <glyph glyph-name=".notdef" horiz-adv-x="1080" 
d="M207 0v1219h666v-1219h-666zM311 104h458v1011h-458v-1011z" />
    <glyph glyph-name=".null" 
 />
    <glyph glyph-name="nonmarkingreturn" horiz-adv-x="682" 
 />
    <glyph glyph-name="space" unicode=" " horiz-adv-x="488" 
 />
    <glyph glyph-name="exclam" unicode="!" horiz-adv-x="520" 
d="M200 351l-13 868h133l-14 -868h-106zM254 -16q-37 0 -64 27t-27 64t27 64t64 27q36 0 63.5 -27t27.5 -64t-27.5 -64t-63.5 -27z" />
    <glyph glyph-name="quotedbl" unicode="&#x22;" horiz-adv-x="741" 
d="M185 692l-14 543h126l-14 -543h-98zM457 692l-15 543h128l-14 -543h-99z" />
    <glyph glyph-name="numbersign" unicode="#" horiz-adv-x="1267" 
d="M277 0l44 302h-244l15 106h242l62 403h-246l18 104h239l45 304h103l-41 -304h325l44 304h104l-42 -304h245l-17 -104h-243l-57 -403h243l-13 -106h-243l-47 -302h-102l42 302h-328l-42 -302h-106zM441 408h327l58 403h-328z" />
    <glyph glyph-name="dollar" unicode="$" horiz-adv-x="999" 
d="M883 323q0 -136 -83 -224.5t-217 -108.5v-130h-132v127q-118 13 -208.5 78.5t-134.5 166.5l125 75q32 -85 104.5 -135t170.5 -50q103 0 170 52.5t67 144.5q0 53 -25.5 95t-66.5 68.5t-94 52t-108 46t-108 50.5t-94 65t-66.5 90.5t-25.5 125.5q0 134 82 220t212 100v130
h132v-135q82 -17 148.5 -60.5t106.5 -103.5l-101 -89q-95 123 -236 123q-89 0 -147.5 -45t-58.5 -129q0 -58 32.5 -101t84.5 -70.5t114.5 -52.5t125 -55.5t114.5 -69t84.5 -102.5t32.5 -149z" />
    <glyph glyph-name="percent" unicode="%" horiz-adv-x="1241" 
d="M331 725q-93 0 -158 74t-65 179q0 107 65 182t158 75q91 0 155 -75.5t64 -181.5q0 -104 -64 -178.5t-155 -74.5zM132 0l836 1219h140l-836 -1219h-140zM331 829q46 0 81.5 44t35.5 105q0 64 -35 108.5t-82 44.5q-48 0 -82.5 -44t-34.5 -109q0 -61 34.5 -105t82.5 -44z
M911 -16q-93 0 -157 75t-64 182q0 105 64 179t157 74q92 0 156.5 -74t64.5 -179q0 -107 -64.5 -182t-156.5 -75zM911 88q47 0 81 44.5t34 108.5q0 61 -34 105t-81 44q-48 0 -82.5 -44t-34.5 -105q0 -65 34.5 -109t82.5 -44z" />
    <glyph glyph-name="ampersand" unicode="&#x26;" horiz-adv-x="1126" 
d="M1027 683v-134h-113v-201q0 -152 -102.5 -250t-265.5 -98q-162 0 -273 95t-111 240q0 87 41 163t112 124q-66 50 -104 123.5t-38 158.5q0 136 92.5 225.5t226.5 89.5h289v-138h-266q-87 0 -147 -49t-60 -136q0 -93 66.5 -153t164.5 -60h242v201h133v-201h113zM544 119
q107 0 172 64.5t65 164.5v201h-270q-93 0 -157.5 -61t-64.5 -150q0 -96 74 -157.5t181 -61.5z" />
    <glyph glyph-name="quotesingle" unicode="'" horiz-adv-x="468" 
d="M185 757l-14 478h126l-14 -478h-98z" />
    <glyph glyph-name="parenleft" unicode="(" horiz-adv-x="561" 
d="M540 -481q-75 6 -138 42t-118 111.5t-93.5 187.5t-60.5 275.5t-22 368.5t22 369.5t60.5 277t93.5 189t118 113t138 42.5v-97q-54 -7 -100 -40.5t-86 -102.5t-68 -170t-44 -248.5t-16 -332.5q0 -228 24 -398.5t68 -273t99 -155t123 -61.5v-97z" />
    <glyph glyph-name="parenright" unicode=")" horiz-adv-x="561" 
d="M21 -481v97q69 9 124 61.5t98.5 155t67.5 273t24 398.5q0 230 -24 401.5t-67.5 274.5t-98.5 156t-124 62v97q75 -6 138 -42.5t118 -113t93.5 -189t60.5 -277t22 -369.5t-22 -368.5t-60.5 -275.5t-93.5 -187.5t-118 -111.5t-138 -42z" />
    <glyph glyph-name="asterisk" unicode="*" horiz-adv-x="707" 
d="M290 863l-67 39l86 122l-149 -13v76l149 -13l-86 122l67 39l63 -133l64 133l68 -39l-88 -122l150 13v-76l-150 13l88 -122l-68 -39l-64 133z" />
    <glyph glyph-name="plus" unicode="+" horiz-adv-x="1184" 
d="M532 0v442h-444v124h444v442h122v-442h442v-124h-442v-442h-122z" />
    <glyph glyph-name="comma" unicode="," horiz-adv-x="556" 
d="M103 -249l211 454h153l-252 -454h-112z" />
    <glyph glyph-name="hyphen" unicode="-" horiz-adv-x="865" 
d="M148 358v130h569v-130h-569z" />
    <glyph glyph-name="period" unicode="." horiz-adv-x="602" 
d="M301 -16q-47 0 -82 34.5t-35 82.5q0 47 35 82t82 35t82 -35t35 -82q0 -48 -35 -82.5t-82 -34.5z" />
    <glyph glyph-name="slash" unicode="/" horiz-adv-x="1118" 
d="M-29 -488l1047 1983h129l-1045 -1983h-131z" />
    <glyph glyph-name="zero" unicode="0" horiz-adv-x="1056" 
d="M528 -16q-138 0 -239 82.5t-150.5 222.5t-49.5 321q0 180 49.5 320t150.5 222.5t239 82.5t238.5 -82.5t150.5 -222.5t50 -320q0 -181 -50 -321t-150.5 -222.5t-238.5 -82.5zM530 122q146 0 222.5 132.5t76.5 355.5q0 222 -76.5 354.5t-222.5 132.5q-147 0 -224 -132.5
t-77 -354.5q0 -223 77 -355.5t224 -132.5z" />
    <glyph glyph-name="one" unicode="1" horiz-adv-x="1056" 
d="M494 0v1081h-203v138h341v-1219h-138z" />
    <glyph glyph-name="two" unicode="2" horiz-adv-x="1056" 
d="M375 138h570v-138h-881l507 562q111 122 149 186t38 131q0 106 -63 162.5t-155 57.5q-98 1 -161.5 -61t-61.5 -165l-149 1q-2 106 48.5 190t137.5 129t193 44q151 -1 253 -92t107 -245q4 -102 -42.5 -183.5t-192.5 -245.5z" />
    <glyph glyph-name="three" unicode="3" horiz-adv-x="1056" 
d="M519 722q163 0 276 -104t113 -260t-111 -265t-271 -109q-158 0 -268.5 103t-110.5 251l145 2q0 -92 69 -156t165 -64q101 0 170.5 71t69.5 173q0 98 -68.5 159t-170.5 61h-299l384 499h-433v136h703l-387 -497h24z" />
    <glyph glyph-name="four" unicode="4" horiz-adv-x="1056" 
d="M938 395v-138h-126v-257h-138v257h-589l554 962h173v-824h126zM296 395h378v669z" />
    <glyph glyph-name="five" unicode="5" horiz-adv-x="1056" 
d="M552 808q169 0 279.5 -116.5t110.5 -293.5q0 -182 -119 -298t-317 -116q-114 0 -222.5 42.5t-170.5 113.5l18 164h13q65 -95 161.5 -138.5t197.5 -43.5q141 0 221 77t80 196q0 121 -81 198t-200 77q-139 0 -231 -98l-119 72l68 572h629v-138h-505l-45 -342q99 72 232 72z
" />
    <glyph glyph-name="six" unicode="6" horiz-adv-x="1056" 
d="M955 419q4 -114 -49.5 -211.5t-149.5 -156.5t-211 -64q-178 -8 -307.5 108t-137.5 289q-7 152 104 292l427 543h176l-323 -413q25 7 63 7q93 0 183.5 -46.5t155 -139t69.5 -208.5zM544 122q128 6 205.5 90t70.5 206q-7 127 -95 206t-214 72q-127 -7 -205 -96t-70 -215
q8 -122 93 -196t215 -67z" />
    <glyph glyph-name="seven" unicode="7" horiz-adv-x="1056" 
d="M128 1219h813v-91l-631 -1128h-161l609 1081h-630v138z" />
    <glyph glyph-name="eight" unicode="8" horiz-adv-x="1056" 
d="M527 -16q-164 0 -277 107t-113 262q0 107 57 193.5t153 131.5q-66 40 -103 106t-37 147q0 129 92.5 216.5t229.5 87.5q136 0 228 -87.5t92 -216.5q0 -81 -37 -147t-103 -106q97 -45 153.5 -131.5t56.5 -193.5q0 -156 -112.5 -262.5t-279.5 -106.5zM529 718q80 0 136 56
t56 136q0 82 -56 138t-136 56q-82 0 -138 -56t-56 -138q0 -80 56 -136t138 -56zM527 106q106 0 179 75.5t73 180.5q0 106 -72.5 179t-179.5 73q-105 0 -177.5 -73t-72.5 -179q0 -105 73 -180.5t177 -75.5z" />
    <glyph glyph-name="nine" unicode="9" horiz-adv-x="1056" 
d="M955 835q7 -152 -104 -292l-428 -543h-175l323 413q-31 -7 -63 -7q-69 0 -139.5 28t-129 77.5t-97 125.5t-42.5 163q-7 173 113.5 298.5t295.5 133.5q178 8 308 -108t138 -289zM544 523q127 7 204.5 95t69.5 216q-8 122 -94.5 196t-212.5 67q-128 -7 -205.5 -90.5
t-70.5 -205.5q7 -128 94.5 -206.5t214.5 -71.5z" />
    <glyph glyph-name="colon" unicode=":" horiz-adv-x="521" 
d="M260 647q-36 0 -63.5 27t-27.5 64t27.5 64t63.5 27q37 0 64 -27t27 -64t-27 -64t-64 -27zM260 -16q-37 0 -64 26.5t-27 64.5q0 37 27.5 64t63.5 27q37 0 64 -27t27 -64q0 -38 -27 -64.5t-64 -26.5z" />
    <glyph glyph-name="semicolon" unicode=";" horiz-adv-x="565" 
d="M339 647q-37 0 -64 26.5t-27 64.5q0 37 27 64t64 27t64 -27t27 -64t-27 -64t-64 -27zM50 -249l211 454h153l-252 -454h-112z" />
    <glyph glyph-name="less" unicode="&#x3c;" horiz-adv-x="1091" 
d="M984 1068v-114l-789 -398l789 -398v-116l-897 454v122z" />
    <glyph glyph-name="equal" unicode="=" horiz-adv-x="1419" 
d="M222 540v91h975v-91h-975zM222 231v91h975v-91h-975z" />
    <glyph glyph-name="greater" unicode="&#x3e;" horiz-adv-x="1091" 
d="M107 1068l897 -450v-122l-897 -454v116l789 398l-789 398v114z" />
    <glyph glyph-name="question" unicode="?" horiz-adv-x="855" 
d="M360 341v112q0 61 16.5 105.5t42.5 69.5t57 44t62.5 36.5t57.5 39t42.5 60t16.5 92.5q0 95 -66 156.5t-168 61.5q-100 0 -165.5 -64.5t-65.5 -162.5q0 -31 3 -47h-120q-3 26 -3 52q0 145 100 242t251 97q153 0 252.5 -94.5t99.5 -240.5q0 -64 -16 -113t-41.5 -78
t-56.5 -52t-62.5 -40.5t-57 -36t-41.5 -46.5t-16 -66v-127h-122zM427 -16q-37 0 -64 26.5t-27 64.5q0 37 27 64t64 27t64 -27t27 -64q0 -38 -26.5 -64.5t-64.5 -26.5z" />
    <glyph glyph-name="at" unicode="@" horiz-adv-x="1258" 
d="M1070 309h-110v72q-36 -42 -93 -68.5t-109 -26.5q-111 0 -189 75t-78 184t77.5 184.5t187.5 75.5q57 0 114 -29t90 -74v54q0 112 -85.5 191t-207.5 79q-117 0 -216 -61t-156 -165.5t-57 -228.5q0 -128 64.5 -235t175 -168t241.5 -61h351v-107h-351q-163 0 -298 75.5
t-212.5 206.5t-77.5 289q0 154 70.5 284t194 205.5t271.5 75.5q169 0 286 -110t117 -270v-447zM792 380q60 0 105.5 31.5t62.5 82.5v102q-17 51 -62.5 82t-105.5 31q-75 0 -123.5 -46.5t-48.5 -117.5q0 -72 48.5 -118.5t123.5 -46.5z" />
    <glyph glyph-name="A" unicode="A" horiz-adv-x="1100" 
d="M918 0l-98 281h-539l-98 -281h-150l441 1219h153l440 -1219h-149zM327 414h447l-223 644z" />
    <glyph glyph-name="B" unicode="B" horiz-adv-x="1120" 
d="M794 617q98 -33 156.5 -110t58.5 -185q0 -140 -97 -231t-238 -91h-489v1219h447q142 0 240 -91.5t98 -233.5q0 -96 -47 -167t-129 -110zM831 883q0 87 -61.5 142.5t-152.5 55.5h-296v-405h296q90 0 152 59t62 148zM656 138q90 0 152 56.5t62 143.5t-62 146t-152 59h-335
v-405h335z" />
    <glyph glyph-name="C" unicode="C" horiz-adv-x="1323" 
d="M717 -16q-128 0 -243.5 49.5t-199.5 133t-133.5 199.5t-49.5 244q0 127 49.5 243t133.5 199.5t200 133t243 49.5q173 0 318 -86.5t227 -231.5l-119 -67q-63 113 -176.5 180t-249.5 67q-100 0 -190 -38.5t-155.5 -103.5t-104 -155t-38.5 -190q0 -134 65 -246t177.5 -177
t245.5 -65q136 0 249.5 67t176.5 180l119 -67q-82 -145 -227 -231.5t-318 -86.5z" />
    <glyph glyph-name="D" unicode="D" horiz-adv-x="1227" 
d="M185 0v1219h320q152 0 273 -47.5t197 -131t116 -193t40 -237.5t-40 -238t-116 -193.5t-197 -131t-273 -47.5h-320zM321 138h182q127 0 222 35t152.5 99.5t86 149t28.5 188.5q0 215 -120.5 343t-368.5 128h-182v-943z" />
    <glyph glyph-name="E" unicode="E" horiz-adv-x="943" 
d="M854 1086h-531v-410h463v-133h-463v-410h531v-133h-669v1219h669v-133z" />
    <glyph glyph-name="F" unicode="F" horiz-adv-x="907" 
d="M854 1086h-531v-410h463v-133h-463v-543h-138v1219h669v-133z" />
    <glyph glyph-name="G" unicode="G" horiz-adv-x="1418" 
d="M715 649h628v-39q0 -128 -49.5 -244t-133.5 -199.5t-199.5 -133t-243.5 -49.5t-243.5 49.5t-199.5 133t-133.5 199.5t-49.5 244q0 127 49.5 243t133.5 199.5t200 133t243 49.5q173 0 318 -86.5t227 -231.5l-119 -67q-63 113 -176.5 180t-249.5 67q-100 0 -190 -38.5
t-155.5 -103.5t-104 -155t-38.5 -190q0 -134 65 -246t177.5 -177t245.5 -65q179 0 313.5 112.5t166.5 284.5h-482v130z" />
    <glyph glyph-name="H" unicode="H" horiz-adv-x="1307" 
d="M984 1219h138v-1219h-138v541h-661v-541h-138v1219h138v-540h661v540z" />
    <glyph glyph-name="I" unicode="I" horiz-adv-x="508" 
d="M185 0v1219h138v-1219h-138z" />
    <glyph glyph-name="J" unicode="J" horiz-adv-x="851" 
d="M677 1219v-925q0 -143 -84.5 -226.5t-225.5 -83.5q-131 0 -213.5 71.5t-95.5 196.5l140 31q7 -74 53.5 -117.5t115.5 -43.5q76 0 124 50.5t48 136.5v772h-423v138h561z" />
    <glyph glyph-name="K" unicode="K" horiz-adv-x="1128" 
d="M914 0l-503 593h-88v-593h-138v1219h138v-496h84l486 496h192l-556 -562l579 -657h-194z" />
    <glyph glyph-name="L" unicode="L" horiz-adv-x="800" 
d="M323 138h450v-138h-588v1219h138v-1081z" />
    <glyph glyph-name="M" unicode="M" horiz-adv-x="1589" 
d="M1259 1219h145v-1219h-137v946l-418 -946h-113l-413 942v-942h-138v1219h146l462 -1056z" />
    <glyph glyph-name="N" unicode="N" horiz-adv-x="1381" 
d="M1059 1219h137v-1219h-130l-743 990v-990h-138v1219h130l744 -989v989z" />
    <glyph glyph-name="O" unicode="O" horiz-adv-x="1434" 
d="M717 -16q-128 0 -243.5 49.5t-199.5 133t-133.5 199.5t-49.5 244q0 127 49.5 243t133.5 199.5t200 133t243 49.5t243 -49.5t200 -133t133.5 -199.5t49.5 -243q0 -128 -49.5 -244t-133.5 -199.5t-199.5 -133t-243.5 -49.5zM717 122q203 0 345.5 142t142.5 346
q0 203 -142.5 345t-345.5 142q-100 0 -190 -38.5t-155.5 -103.5t-104 -155t-38.5 -190q0 -134 65 -246t177.5 -177t245.5 -65z" />
    <glyph glyph-name="P" unicode="P" horiz-adv-x="1029" 
d="M625 1219q142 0 241.5 -100t99.5 -241q0 -142 -99 -240t-242 -98h-302v-540h-138v1219h440zM612 671q94 0 155 54.5t61 150.5q0 93 -62 151.5t-154 58.5h-289v-415h289z" />
    <glyph glyph-name="Q" unicode="Q" horiz-adv-x="1464" 
d="M717 -16q-128 0 -243.5 49.5t-199.5 133t-133.5 199.5t-49.5 244q0 127 49.5 243t133.5 199.5t200 133t243 49.5t243 -49.5t200 -133t133.5 -199.5t49.5 -243q0 -170 -84 -310t-234 -220l5 -7q72 39 104 47t77 8h133v-128h-433q-36 0 -101 -9q-43 -7 -93 -7zM717 122
q203 0 345.5 142t142.5 346q0 203 -142.5 345t-345.5 142q-100 0 -190 -38.5t-155.5 -103.5t-104 -155t-38.5 -190q0 -134 65 -246t177.5 -177t245.5 -65z" />
    <glyph glyph-name="R" unicode="R" horiz-adv-x="1093" 
d="M687 554l357 -554h-156l-344 548h-221v-548h-138v1219h440q142 0 241.5 -99.5t99.5 -243.5q0 -122 -79.5 -212.5t-199.5 -109.5zM323 679h294q91 0 151 55.5t60 144.5q0 90 -60 146t-151 56h-294v-402z" />
    <glyph glyph-name="S" unicode="S" horiz-adv-x="930" 
d="M473 -16q-136 0 -243.5 67t-156.5 181l125 75q32 -85 104.5 -135t170.5 -50q103 0 170 52.5t67 144.5q0 53 -25.5 95t-66.5 68.5t-94 52t-108 46t-108 50.5t-94 65t-66.5 90.5t-25.5 125.5q0 146 97 234.5t244 88.5q108 0 198.5 -48t141.5 -124l-101 -89
q-95 123 -236 123q-89 0 -147.5 -45t-58.5 -129q0 -58 32.5 -101t84.5 -70.5t114.5 -52.5t125 -55.5t114.5 -69t84.5 -102.5t32.5 -149q0 -155 -106.5 -247t-268.5 -92z" />
    <glyph glyph-name="T" unicode="T" horiz-adv-x="861" 
d="M834 1219v-138h-335v-1081h-138v1081h-334v138h807z" />
    <glyph glyph-name="U" unicode="U" horiz-adv-x="1244" 
d="M621 -16q-200 0 -330 117.5t-130 298.5v819h138v-796q0 -131 91 -216t231 -85t232 85.5t92 215.5v796h138v-819q0 -181 -130.5 -298.5t-331.5 -117.5z" />
    <glyph glyph-name="V" unicode="V" horiz-adv-x="1102" 
d="M917 1219h151l-440 -1219h-153l-441 1219h153l365 -1043z" />
    <glyph glyph-name="W" unicode="W" horiz-adv-x="1751" 
d="M421 0l-380 1219h146l307 -983l283 983h195l289 -984l306 984h143l-377 -1219h-146l-313 1070l-306 -1070h-147z" />
    <glyph glyph-name="X" unicode="X" horiz-adv-x="1050" 
d="M34 0l415 618l-403 601h166l313 -485l314 485h166l-405 -599l416 -620h-167l-325 504l-322 -504h-168z" />
    <glyph glyph-name="Y" unicode="Y" horiz-adv-x="1016" 
d="M440 0v574l-426 645h172l323 -499l324 499h169l-424 -642v-577h-138z" />
    <glyph glyph-name="Z" unicode="Z" horiz-adv-x="1010" 
d="M285 138h678v-138h-923l655 1081h-605v138h850z" />
    <glyph glyph-name="bracketleft" unicode="[" horiz-adv-x="528" 
d="M178 -406v1901h327v-102h-210v-1697h210v-102h-327z" />
    <glyph glyph-name="backslash" unicode="\" horiz-adv-x="1118" 
d="M1018 -488l-1047 1983h131l1045 -1983h-129z" />
    <glyph glyph-name="bracketright" unicode="]" horiz-adv-x="527" 
d="M23 -406v102h209v1697h-209v102h326v-1901h-326z" />
    <glyph glyph-name="asciicircum" unicode="^" horiz-adv-x="1164" 
d="M1095 322h-116l-397 789l-398 -789h-115l452 897h122z" />
    <glyph glyph-name="underscore" unicode="_" horiz-adv-x="1271" 
d="M148 -130v130h975v-130h-975z" />
    <glyph glyph-name="grave" unicode="`" horiz-adv-x="424" 
d="M276 918l-245 301h156l178 -301h-89z" />
    <glyph glyph-name="a" unicode="a" horiz-adv-x="1098" 
d="M1001 114h51v-114q-41 -16 -78 -16q-60 0 -105 37.5t-67 99.5q-59 -64 -138 -100.5t-167 -36.5q-175 0 -298.5 123t-123.5 299t123.5 299.5t298.5 123.5q169 0 290 -115v99h133v-597q0 -53 23 -77.5t58 -24.5zM497 117q120 0 205 84.5t85 204.5q0 121 -85 205.5
t-205 84.5t-204.5 -84.5t-84.5 -205.5t84.5 -205t204.5 -84z" />
    <glyph glyph-name="b" unicode="b" horiz-adv-x="1069" 
d="M571 829q175 0 298.5 -123.5t123.5 -299.5t-123.5 -299t-298.5 -123q-168 0 -290 114v-98h-133v1495h133v-781q123 115 290 115zM571 117q120 0 204.5 84.5t84.5 204.5t-85 205t-204 85q-121 0 -205.5 -84.5t-84.5 -205.5t84.5 -205t205.5 -84z" />
    <glyph glyph-name="c" unicode="c" horiz-adv-x="970" 
d="M497 -16q-175 0 -298.5 123t-123.5 299t123.5 299.5t298.5 123.5q141 0 252 -82.5t152 -211.5h-143q-37 73 -107 117t-154 44q-120 0 -204.5 -84t-84.5 -206q0 -121 84.5 -205t204.5 -84q84 0 154 44t107 117h143q-41 -130 -152 -212t-252 -82z" />
    <glyph glyph-name="d" unicode="d" horiz-adv-x="1068" 
d="M787 1495h133v-1495h-133v98q-122 -114 -290 -114q-175 0 -298.5 123t-123.5 299t123.5 299.5t298.5 123.5q168 0 290 -114v780zM497 117q120 0 205 84.5t85 204.5q0 121 -85 205.5t-205 84.5t-204.5 -84.5t-84.5 -205.5t84.5 -205t204.5 -84z" />
    <glyph glyph-name="e" unicode="e" horiz-adv-x="992" 
d="M920 413l-2 -28h-709q7 -113 90 -190.5t198 -77.5q88 0 159.5 46.5t105.5 124.5h142q-40 -134 -151.5 -219t-255.5 -85q-175 0 -298.5 123t-123.5 299t123.5 299.5t298.5 123.5t297 -120t126 -296zM497 696q-92 0 -166 -52.5t-105 -136.5h540q-30 84 -103.5 136.5
t-165.5 52.5z" />
    <glyph glyph-name="f" unicode="f" horiz-adv-x="538" 
d="M531 813v-130h-217v-683h-133v683h-136v130h136v465q0 97 70 165.5t167 68.5q70 0 109 -26v-104h-92q-50 0 -85.5 -34t-35.5 -88v-447h217z" />
    <glyph glyph-name="g" unicode="g" horiz-adv-x="1068" 
d="M785 813h135v-878q0 -217 -112.5 -328t-301.5 -111q-143 0 -253.5 79t-154.5 206l122 55q27 -91 105 -149t181 -58q281 0 281 306v163q-122 -114 -290 -114q-175 0 -298.5 123t-123.5 299q0 177 123 300t299 123q168 0 288 -112v96zM497 117q120 0 205 85t85 204
q0 121 -85 205.5t-205 84.5t-204.5 -84.5t-84.5 -205.5q0 -119 84.5 -204t204.5 -85z" />
    <glyph glyph-name="h" unicode="h" horiz-adv-x="895" 
d="M457 829q129 0 219 -90.5t90 -219.5v-519h-134v519q0 75 -51.5 126t-125.5 51q-72 0 -123 -51t-51 -126v-519h-133v1495h133v-721q79 55 176 55z" />
    <glyph glyph-name="i" unicode="i" horiz-adv-x="429" 
d="M215 1055q-37 0 -64 26.5t-27 62.5q0 38 27 64.5t64 26.5t64 -26.5t27 -64.5q0 -36 -27 -62.5t-64 -26.5zM148 0v813h133v-813h-133z" />
    <glyph glyph-name="j" unicode="j" horiz-adv-x="429" 
d="M215 1055q-37 0 -64 26.5t-27 62.5q0 38 27 64.5t64 26.5t64 -26.5t27 -64.5q0 -36 -27 -62.5t-64 -26.5zM44 -553q-70 0 -109 26v104h93q49 0 84.5 34t35.5 88v1114h133v-1132q0 -97 -70 -165.5t-167 -68.5z" />
    <glyph glyph-name="k" unicode="k" horiz-adv-x="838" 
d="M844 0h-184l-379 433v-433h-133v1495h133v-1022l350 340h177l-374 -363z" />
    <glyph glyph-name="l" unicode="l" horiz-adv-x="429" 
d="M148 0v1495h133v-1495h-133z" />
    <glyph glyph-name="m" unicode="m" horiz-adv-x="1360" 
d="M148 0v813h133v-73q81 89 186 89q62 0 121 -32t101 -87q43 56 105 87.5t133 31.5q127 0 215.5 -91.5t88.5 -220.5v-517h-134v517q0 74 -49.5 126.5t-120.5 52.5t-121 -52.5t-50 -126.5v-517h-133v517q0 74 -50 126.5t-121 52.5q-72 0 -121.5 -52t-49.5 -127v-517h-133z
" />
    <glyph glyph-name="n" unicode="n" horiz-adv-x="903" 
d="M473 829q119 0 210 -92t91 -220v-517h-133v517q0 75 -52 127t-127 52q-76 0 -128.5 -51.5t-52.5 -127.5v-517h-133v813h133v-62q83 78 192 78z" />
    <glyph glyph-name="o" unicode="o" horiz-adv-x="996" 
d="M497 -16q-175 0 -298.5 123t-123.5 299t123.5 299.5t298.5 123.5q176 0 299.5 -123.5t123.5 -299.5t-123.5 -299t-299.5 -123zM497 117q120 0 205 84.5t85 204.5q0 121 -85 205.5t-205 84.5t-204.5 -84.5t-84.5 -205.5t84.5 -205t204.5 -84z" />
    <glyph glyph-name="p" unicode="p" horiz-adv-x="1068" 
d="M571 829q175 0 298.5 -123.5t123.5 -299.5t-123.5 -299t-298.5 -123q-168 0 -290 114v-586h-133v1301h133v-99q123 115 290 115zM571 117q120 0 204.5 84.5t84.5 204.5t-85 205t-204 85q-121 0 -205.5 -84.5t-84.5 -205.5t84.5 -205t205.5 -84z" />
    <glyph glyph-name="q" unicode="q" horiz-adv-x="1068" 
d="M1040 -358h75v-113q-41 -17 -91 -17q-97 0 -167 68.5t-70 165.5v352q-122 -114 -290 -114q-175 0 -298.5 123t-123.5 299t123.5 299.5t298.5 123.5q168 0 290 -114v98h133v-1049q0 -54 35.5 -88t84.5 -34zM497 117q120 0 205 84.5t85 204.5q0 121 -85 205.5t-205 84.5
t-204.5 -84.5t-84.5 -205.5t84.5 -205t204.5 -84z" />
    <glyph glyph-name="r" unicode="r" horiz-adv-x="619" 
d="M148 0v813h133v-112q100 128 270 128q29 0 62 -5v-136q-36 8 -62 8q-113 0 -191.5 -75t-78.5 -187v-434h-133z" />
    <glyph glyph-name="s" unicode="s" horiz-adv-x="688" 
d="M354 -16q-98 0 -179.5 52t-104.5 127l128 52q9 -43 54.5 -71.5t101.5 -28.5q54 0 90.5 28.5t36.5 77.5q0 45 -31 68t-115 57q-59 25 -96.5 45.5t-70 49.5t-47.5 66t-15 85q0 109 70 173t167 64q79 0 148.5 -40.5t92.5 -97.5l-117 -60q-31 65 -119 65q-49 0 -78 -24.5
t-29 -71.5t31 -71.5t115 -58.5q40 -16 65.5 -28.5t59.5 -35t54 -46.5t34.5 -59.5t14.5 -77.5q0 -105 -75.5 -172t-185.5 -67z" />
    <glyph glyph-name="t" unicode="t" horiz-adv-x="579" 
d="M522 683h-216v-447q0 -54 35.5 -88t85.5 -34h92v-104q-36 -26 -109 -26q-97 0 -167 68.5t-70 165.5v465h-136v130h136v352h133v-352h216v-130z" />
    <glyph glyph-name="u" unicode="u" horiz-adv-x="880" 
d="M440 -16q-143 0 -225 76t-82 223v530h133v-516q0 -92 47 -136t127 -44q81 0 127.5 44t46.5 136v516h132v-530q0 -147 -82 -223t-224 -76z" />
    <glyph glyph-name="v" unicode="v" horiz-adv-x="805" 
d="M650 813h143l-327 -813h-128l-326 813h144l247 -655z" />
    <glyph glyph-name="w" unicode="w" horiz-adv-x="1320" 
d="M1152 813h146l-278 -813h-146l-213 629l-213 -629h-146l-280 813h151l207 -651l218 651h126l218 -653z" />
    <glyph glyph-name="x" unicode="x" horiz-adv-x="857" 
d="M848 813l-339 -407l339 -406h-161l-258 310l-258 -310h-162l339 407l-339 406h161l259 -310l258 310h161z" />
    <glyph glyph-name="y" unicode="y" horiz-adv-x="826" 
d="M663 813h151l-351 -878l-170 -423h-143l194 480l-333 821h148l257 -659z" />
    <glyph glyph-name="z" unicode="z" horiz-adv-x="779" 
d="M736 813l-457 -680h454v-133h-702l456 679h-423v134h672z" />
    <glyph glyph-name="braceleft" unicode="{" horiz-adv-x="485" 
d="M349 -405q-70 0 -117 62.5t-47 153.5v420q0 122 -22.5 176.5t-99.5 93.5v91q77 39 99.5 95t22.5 174v417q0 92 47 154.5t117 62.5h75v-100q-77 0 -105 -27.5t-28 -106.5v-424q0 -103 -22.5 -172t-89.5 -119q67 -49 89.5 -118.5t22.5 -172.5v-432q0 -68 28.5 -97.5
t104.5 -29.5v-101h-75z" />
    <glyph glyph-name="bar" unicode="|" horiz-adv-x="533" 
d="M222 -244v1463h89v-1463h-89z" />
    <glyph glyph-name="braceright" unicode="}" horiz-adv-x="485" 
d="M61 -405v101q76 0 104.5 29.5t28.5 97.5v432q0 103 22.5 172.5t89.5 118.5q-67 50 -89.5 119t-22.5 172v424q0 79 -28 106.5t-105 27.5v100h75q70 0 117 -62.5t47 -154.5v-417q0 -118 22.5 -174t99.5 -95v-91q-77 -39 -99.5 -94t-22.5 -176v-420q0 -91 -47 -153.5
t-117 -62.5h-75z" />
    <glyph glyph-name="asciitilde" unicode="~" horiz-adv-x="1164" 
d="M756 283q-39 0 -72 10.5t-61 32.5t-43.5 37.5t-38.5 41.5q-34 39 -61 56.5t-63 17.5q-62 0 -99.5 -51.5t-34.5 -126.5h-96q-7 120 58.5 197t171.5 77q62 0 109 -29.5t95 -88.5q31 -39 59.5 -59.5t66.5 -20.5q61 0 99.5 49t34.5 128h96q8 -115 -56 -193t-165 -78z" />
    <glyph glyph-name="exclamdown" unicode="&#xa1;" horiz-adv-x="533" 
d="M266 647q-36 0 -63.5 27t-27.5 64t27.5 64t63.5 27q37 0 64 -27t27 -64t-27 -64t-64 -27zM200 -406l14 868h106l13 -868h-133z" />
    <glyph glyph-name="cent" unicode="&#xa2;" horiz-adv-x="940" 
d="M564 873q-127 0 -215 -88.5t-88 -215.5t88 -215.5t215 -88.5q134 0 222 80v-135q-92 -60 -204 -64v-148h-86v153q-159 24 -264 142t-105 276t105 276t264 141v153h86v-148q112 -4 204 -63v-135q-91 80 -222 80z" />
    <glyph glyph-name="sterling" unicode="&#xa3;" horiz-adv-x="1073" 
d="M352 98h618v-98h-722v551h-130v93h130v221q0 162 101 266t260 104q112 0 208.5 -71t129.5 -179l-101 -44q-17 81 -85.5 135t-151.5 54q-116 0 -186.5 -73t-70.5 -192v-221h302v-93h-302v-453z" />
    <glyph glyph-name="currency" unicode="&#xa4;" horiz-adv-x="1140" 
d="M275 221l-73 78l83 81q-71 92 -71 210t71 210l-81 79l73 78l83 -84q92 72 210 72.5t211 -71.5l81 82l75 -73l-82 -82q71 -92 71 -211t-71 -211l82 -80l-74 -78l-82 85q-93 -72 -212 -72t-211 72zM389 413q76 -75 180 -75t179 75q74 73 73.5 177t-75.5 177
q-74 74 -177.5 73.5t-178.5 -74.5q-72 -72 -72.5 -176.5t71.5 -176.5z" />
    <glyph glyph-name="yen" unicode="&#xa5;" horiz-adv-x="1155" 
d="M636 587v-15h333v-84h-333v-166h333v-85h-333v-237h-118v237h-329v85h329v166h-330v84h330v15l-420 632h129l349 -537l350 537h128z" />
    <glyph glyph-name="brokenbar" unicode="&#xa6;" horiz-adv-x="533" 
d="M222 634v585h89v-585h-89zM222 -244v585h89v-585h-89z" />
    <glyph glyph-name="section" unicode="&#xa7;" horiz-adv-x="1049" 
d="M847 400q65 -59 65 -143q0 -113 -115 -183.5t-276 -70.5q-138 0 -247 52.5t-155 133.5l88 50q32 -61 117 -101t202 -40q76 0 139.5 17.5t104 54.5t40.5 87q0 45 -35 78t-91 54t-123.5 39t-135 40t-123.5 50.5t-91 76.5t-35 112q0 85 65 145q-65 57 -65 141
q0 76 50.5 132.5t127 83t165.5 26.5q97 0 184 -31.5t140 -83.5l-72 -59q-40 39 -105 62t-140 23q-102 0 -174.5 -39t-72.5 -109q0 -45 35 -78.5t91 -54t123.5 -39t135.5 -41t124 -51t91 -76.5t35 -112q0 -82 -67 -146zM279 710q0 -44 31.5 -76.5t87 -55t114.5 -39t132 -39.5
t121 -46q45 40 45 94q0 43 -31.5 75t-87 53.5t-114 38t-132 39t-121.5 45.5q-45 -36 -45 -89z" />
    <glyph glyph-name="dieresis" unicode="&#xa8;" horiz-adv-x="745" 
d="M196 1055q-37 0 -64 26.5t-27 62.5q0 38 27 64.5t64 26.5t64 -26.5t27 -64.5q0 -36 -27 -62.5t-64 -26.5zM499 1055q-37 0 -64 26.5t-27 62.5q0 38 27 64.5t64 26.5t64 -26.5t27 -64.5q0 -36 -27 -62.5t-64 -26.5z" />
    <glyph glyph-name="copyright" unicode="&#xa9;" horiz-adv-x="1500" 
d="M750 -16q-170 0 -314 84t-228 228t-84 314q0 169 84 313t228 228t314 84t314 -84t228 -228t84 -313q0 -170 -84 -314t-228 -228t-314 -84zM749 63q151 0 277 73t198.5 198.5t72.5 275.5q0 149 -72.5 274.5t-199 198.5t-276.5 73t-275.5 -73t-198 -198.5t-72.5 -274.5
q0 -150 72.5 -275.5t198 -198.5t275.5 -73zM757 262q-144 0 -245.5 101.5t-101.5 245.5q0 145 101.5 246.5t245.5 101.5q116 0 207.5 -67.5t125.5 -174.5h-118q-30 60 -87.5 96.5t-127.5 36.5q-99 0 -168.5 -69.5t-69.5 -169.5q0 -99 69.5 -168.5t168.5 -69.5
q70 0 127.5 36.5t87.5 96.5h118q-34 -107 -125.5 -174.5t-207.5 -67.5z" />
    <glyph glyph-name="ordfeminine" unicode="&#xaa;" horiz-adv-x="844" 
d="M586 1219h73v-488h-73v107q-31 -54 -84.5 -85t-118.5 -31q-102 0 -174.5 74t-72.5 179t73 179.5t174 74.5q65 0 118 -31.5t85 -85.5v107zM396 785q79 0 134.5 55.5t55.5 134.5q0 77 -55.5 132t-134.5 55q-78 0 -132.5 -55t-54.5 -132q0 -79 54.5 -134.5t132.5 -55.5z" />
    <glyph glyph-name="guillemotleft" unicode="&#xab;" horiz-adv-x="784" 
d="M308 154l-247 299l247 300h113l-247 -300l247 -299h-113zM607 154l-247 299l247 300h117l-247 -300l247 -299h-117z" />
    <glyph glyph-name="logicalnot" unicode="&#xac;" horiz-adv-x="1304" 
d="M983 187v416h-883v101h982v-517h-99z" />
    <glyph glyph-name="uni00AD" unicode="&#xad;" horiz-adv-x="865" 
d="M148 358v130h569v-130h-569z" />
    <glyph glyph-name="registered" unicode="&#xae;" horiz-adv-x="1500" 
d="M750 1235q170 0 314 -84t228 -228t84 -313q0 -170 -84 -314t-228 -228t-314 -84t-314 84t-228 228t-84 314q0 169 84 313t228 228t314 84zM750 63q151 0 277 73t198.5 198.5t72.5 275.5q0 149 -72.5 274.5t-199 198.5t-276.5 73t-275.5 -73t-198 -198.5t-72.5 -274.5
q0 -150 72.5 -275.5t198 -198.5t275.5 -73zM974 746q0 -61 -35.5 -107.5t-91.5 -64.5l153 -281h-83l-152 273h-108v-273h-73v633h207q77 0 130 -52t53 -128zM657 853v-214h134q45 0 77 31t32 76t-32 76t-77 31h-134z" />
    <glyph glyph-name="macron" unicode="&#xaf;" horiz-adv-x="735" 
d="M148 978v92h439v-92h-439z" />
    <glyph glyph-name="degree" unicode="&#xb0;" horiz-adv-x="810" 
d="M405 800q-94 0 -161 66.5t-67 160.5t67 161t161 67t160.5 -67t66.5 -161t-66.5 -160.5t-160.5 -66.5zM405 876q64 0 107.5 43.5t43.5 107.5t-43.5 107.5t-107.5 43.5q-65 0 -108 -43t-43 -108q0 -64 43.5 -107.5t107.5 -43.5z" />
    <glyph glyph-name="plusminus" unicode="&#xb1;" horiz-adv-x="1379" 
d="M632 304v293h-506v115h506v292h115v-292h506v-115h-506v-293h-115zM126 0v104h1127v-104h-1127z" />
    <glyph glyph-name="uni00B2" unicode="&#xb2;" horiz-adv-x="561" 
d="M199 616h303v-94h-505l284 330q62 72 81.5 104.5t19.5 65.5q0 55 -32.5 84t-79.5 29q-50 0 -83 -32.5t-31 -85.5h-99q-5 93 59.5 152.5t158.5 59.5q89 0 148.5 -55t59.5 -143q0 -61 -26 -105t-104 -134z" />
    <glyph glyph-name="uni00B3" unicode="&#xb3;" horiz-adv-x="556" 
d="M279 935q96 1 161 -56.5t65 -147.5q0 -91 -65 -155t-158 -64q-89 0 -154 59.5t-65 143.5h101q0 -45 35 -77t83 -32q53 0 89 37.5t36 89.5q0 51 -36 83t-92 32h-175l212 278h-253v93h432l-220 -284h4z" />
    <glyph glyph-name="acute" unicode="&#xb4;" horiz-adv-x="424" 
d="M59 918l178 301h156l-245 -301h-89z" />
    <glyph glyph-name="uni00B5" unicode="&#xb5;" horiz-adv-x="1104" 
d="M799 813h133v-813h-133v121q-45 -64 -113 -100.5t-147 -36.5q-125 0 -215 85v-475h-102v1219h133v-493q0 -90 64.5 -154t155.5 -64q92 0 158 64t66 154v493z" />
    <glyph glyph-name="paragraph" unicode="&#xb6;" horiz-adv-x="949" 
d="M424 -244v919h-52q-136 0 -212.5 70.5t-76.5 202.5q0 131 76.5 201t212.5 70h127v-1463h-75zM652 -244v1463h75v-1463h-75z" />
    <glyph glyph-name="periodcentered" unicode="&#xb7;" horiz-adv-x="587" 
d="M293 479q-43 0 -74.5 30.5t-31.5 75.5q0 43 31.5 74.5t74.5 31.5q42 0 75 -32t33 -74q0 -45 -32.5 -75.5t-75.5 -30.5z" />
    <glyph glyph-name="cedilla" unicode="&#xb8;" horiz-adv-x="529" 
d="M268 -423q-56 0 -111 31.5t-78 76.5l73 29q17 -24 51 -40.5t65 -16.5q36 0 61.5 26t25.5 63q0 55 -45.5 75.5t-111.5 -5.5l-64 41l74 143h79l-52 -107q83 16 141.5 -27t58.5 -120q0 -71 -48.5 -120t-118.5 -49z" />
    <glyph glyph-name="uni00B9" unicode="&#xb9;" horiz-adv-x="360" 
d="M142 522v603h-112v94h211v-697h-99z" />
    <glyph glyph-name="ordmasculine" unicode="&#xba;" horiz-adv-x="719" 
d="M358 722q-108 0 -184 74t-76 179t76.5 179.5t183.5 74.5q109 0 186 -74.5t77 -179.5q0 -106 -76.5 -179.5t-186.5 -73.5zM358 785q79 0 134.5 55.5t55.5 134.5q0 77 -55.5 132t-134.5 55q-78 0 -132.5 -55t-54.5 -132q0 -79 54.5 -134.5t132.5 -55.5z" />
    <glyph glyph-name="guillemotright" unicode="&#xbb;" horiz-adv-x="784" 
d="M60 154l247 299l-247 300h114l247 -300l-247 -299h-114zM359 154l247 299l-247 300h117l247 -300l-247 -299h-117z" />
    <glyph glyph-name="onequarter" unicode="&#xbc;" horiz-adv-x="1537" 
d="M56 1127v92h228v-813h-92v721h-136zM1138 1216h107l-850 -1219h-108zM1448 263v-92h-84v-171h-92v171h-393l370 642h115v-550h84zM1019 263h253v447z" />
    <glyph glyph-name="onehalf" unicode="&#xbd;" horiz-adv-x="1571" 
d="M284 406h-92v721h-136v92h228v-813zM1086 1219h107l-850 -1219h-108zM1113 92h380v-92h-588l338 375q77 85 101 126.5t24 84.5q0 70 -41 108t-104 39q-65 1 -107.5 -40.5t-41.5 -110.5l-100 1q-2 107 71 175t182 67q101 -1 169 -62.5t71 -162.5q3 -67 -28.5 -122
t-127.5 -164z" />
    <glyph glyph-name="threequarters" unicode="&#xbe;" horiz-adv-x="1693" 
d="M586 650q0 -104 -74 -177t-180 -73t-179.5 69t-73.5 167l96 2q0 -62 46.5 -104.5t110.5 -42.5q67 0 113.5 47.5t46.5 115.5q0 65 -45.5 106t-114.5 41h-199l256 332h-289v91h469l-258 -331h16q109 0 184 -69.5t75 -173.5zM1276 1216h107l-850 -1219h-108zM1605 263v-92
h-84v-171h-92v171h-393l370 642h115v-550h84zM1176 263h253v447z" />
    <glyph glyph-name="questiondown" unicode="&#xbf;" horiz-adv-x="855" 
d="M428 647q-37 0 -64 27t-27 64q0 38 26.5 64.5t64.5 26.5q37 0 64 -26.5t27 -64.5q0 -37 -27 -64t-64 -27zM434 -422q-153 0 -252.5 94.5t-99.5 240.5q0 64 16 113t41.5 78t56.5 52t62.5 40.5t57 36t41.5 46.5t16 66v127h122v-112q0 -61 -16.5 -105.5t-42.5 -69.5t-57 -44
t-62.5 -36.5t-57.5 -39t-42.5 -60t-16.5 -92.5q0 -95 66 -156.5t168 -61.5q100 0 165.5 64.5t65.5 162.5q0 31 -3 47h120q3 -25 3 -52q0 -145 -100 -242t-251 -97z" />
    <glyph glyph-name="Agrave" unicode="&#xc0;" horiz-adv-x="1100" 
d="M595 1324h-89l-245 301h156zM918 0l-98 281h-539l-98 -281h-150l441 1219h153l440 -1219h-149zM327 414h447l-223 644z" />
    <glyph glyph-name="Aacute" unicode="&#xc1;" horiz-adv-x="1100" 
d="M840 1625l-245 -301h-89l178 301h156zM918 0l-98 281h-539l-98 -281h-150l441 1219h153l440 -1219h-149zM327 414h447l-223 644z" />
    <glyph glyph-name="Acircumflex" unicode="&#xc2;" horiz-adv-x="1100" 
d="M552 1537l-127 -213h-103l160 301h136l161 -301h-102zM918 0l-98 281h-539l-98 -281h-150l441 1219h153l440 -1219h-149zM327 414h447l-223 644z" />
    <glyph glyph-name="Atilde" unicode="&#xc3;" horiz-adv-x="1100" 
d="M445 1534q-37 0 -57.5 -36t-20.5 -91h-99q0 98 47 161.5t127 63.5q39 0 73 -21t54 -46t44.5 -46t45.5 -21q77 0 77 127h97q0 -98 -45.5 -161t-128.5 -63q-41 0 -75.5 21t-53.5 45.5t-42 45.5t-43 21zM918 0l-98 281h-539l-98 -281h-150l441 1219h153l440 -1219h-149z
M327 414h447l-223 644z" />
    <glyph glyph-name="Adieresis" unicode="&#xc4;" horiz-adv-x="1100" 
d="M399 1461q-37 0 -64 26.5t-27 62.5q0 38 27 64.5t64 26.5t64 -26.5t27 -64.5q0 -36 -27 -62.5t-64 -26.5zM702 1461q-37 0 -64 26.5t-27 62.5q0 38 27 64.5t64 26.5t64 -26.5t27 -64.5q0 -36 -27 -62.5t-64 -26.5zM918 0l-98 281h-539l-98 -281h-150l441 1219h153
l440 -1219h-149zM327 414h447l-223 644z" />
    <glyph glyph-name="Aring" unicode="&#xc5;" horiz-adv-x="1100" 
d="M918 0l-98 281h-539l-98 -281h-150l427 1179q-37 24 -58.5 62t-21.5 82q0 70 50.5 120t121.5 50q69 0 119 -50t50 -120q0 -44 -21.5 -82.5t-57.5 -61.5l425 -1179h-149zM552 1424q-41 0 -69.5 -30.5t-28.5 -70.5q0 -43 28 -71t70 -28q40 0 68.5 28.5t28.5 70.5
q0 40 -29 70.5t-68 30.5zM327 414h447l-223 644z" />
    <glyph glyph-name="AE" unicode="&#xc6;" horiz-adv-x="1448" 
d="M1357 1081h-533v-402h465v-138h-465v-403h533v-138h-668v289h-391l-113 -289h-156l490 1219h838v-138zM350 421h339v679h-73z" />
    <glyph glyph-name="Ccedilla" unicode="&#xc7;" horiz-adv-x="1323" 
d="M717 122q136 0 249.5 67t176.5 180l119 -67q-82 -145 -227 -231.5t-318 -86.5q-22 0 -32 1l-45 -92q83 16 141.5 -27t58.5 -120q0 -71 -48.5 -120t-118.5 -49q-56 0 -111 31.5t-78 76.5l73 29q17 -24 51 -40.5t65 -16.5q36 0 61.5 26t25.5 63q0 55 -45.5 75.5
t-111.5 -5.5l-64 41l70 136q-222 39 -370 212.5t-148 404.5q0 127 49.5 243t133.5 199.5t200 133t243 49.5q173 0 318 -86.5t227 -231.5l-119 -67q-63 113 -176.5 180t-249.5 67q-100 0 -190 -38.5t-155.5 -103.5t-104 -155t-38.5 -190q0 -134 65 -246t177.5 -177t245.5 -65
z" />
    <glyph glyph-name="Egrave" unicode="&#xc8;" horiz-adv-x="943" 
d="M516 1324h-89l-245 301h156zM854 1086h-531v-410h463v-133h-463v-410h531v-133h-669v1219h669v-133z" />
    <glyph glyph-name="Eacute" unicode="&#xc9;" horiz-adv-x="943" 
d="M761 1625l-245 -301h-89l178 301h156zM854 1086h-531v-410h463v-133h-463v-410h531v-133h-669v1219h669v-133z" />
    <glyph glyph-name="Ecircumflex" unicode="&#xca;" horiz-adv-x="943" 
d="M473 1537l-127 -213h-103l160 301h136l161 -301h-102zM854 1086h-531v-410h463v-133h-463v-410h531v-133h-669v1219h669v-133z" />
    <glyph glyph-name="Edieresis" unicode="&#xcb;" horiz-adv-x="943" 
d="M320 1461q-37 0 -64 26.5t-27 62.5q0 38 27 64.5t64 26.5t64 -26.5t27 -64.5q0 -36 -27 -62.5t-64 -26.5zM623 1461q-37 0 -64 26.5t-27 62.5q0 38 27 64.5t64 26.5t64 -26.5t27 -64.5q0 -36 -27 -62.5t-64 -26.5zM854 1086h-531v-410h463v-133h-463v-410h531v-133h-669
v1219h669v-133z" />
    <glyph glyph-name="Igrave" unicode="&#xcc;" horiz-adv-x="508" 
d="M209 1324l-245 301h156l178 -301h-89zM185 0v1219h138v-1219h-138z" />
    <glyph glyph-name="Iacute" unicode="&#xcd;" horiz-adv-x="508" 
d="M209 1324l178 301h156l-245 -301h-89zM185 0v1219h138v-1219h-138z" />
    <glyph glyph-name="Icircumflex" unicode="&#xce;" horiz-adv-x="508" 
d="M25 1324l160 301h136l161 -301h-102l-125 213l-127 -213h-103zM185 0v1219h138v-1219h-138z" />
    <glyph glyph-name="Idieresis" unicode="&#xcf;" horiz-adv-x="508" 
d="M102 1461q-37 0 -64 26.5t-27 62.5q0 38 27 64.5t64 26.5t64 -26.5t27 -64.5q0 -36 -27 -62.5t-64 -26.5zM405 1461q-37 0 -64 26.5t-27 62.5q0 38 27 64.5t64 26.5t64 -26.5t27 -64.5q0 -36 -27 -62.5t-64 -26.5zM185 0v1219h138v-1219h-138z" />
    <glyph glyph-name="Eth" unicode="&#xd0;" horiz-adv-x="1227" 
d="M505 1219q152 0 273 -47.5t197 -131t116 -193t40 -237.5t-40 -238t-116 -193.5t-197 -131t-273 -47.5h-320v546h-82v128h82v545h320zM503 138q127 0 222 35t152.5 99.5t86 149t28.5 188.5q0 215 -120.5 343t-368.5 128h-182v-407h260v-128h-260v-408h182z" />
    <glyph glyph-name="Ntilde" unicode="&#xd1;" horiz-adv-x="1381" 
d="M584 1534q-37 0 -57.5 -36t-20.5 -91h-99q0 98 47 161.5t127 63.5q39 0 73 -21t54 -46t44.5 -46t45.5 -21q77 0 77 127h97q0 -98 -45.5 -161t-128.5 -63q-41 0 -75.5 21t-53.5 45.5t-42 45.5t-43 21zM1059 1219h137v-1219h-130l-743 990v-990h-138v1219h130l744 -989v989
z" />
    <glyph glyph-name="Ograve" unicode="&#xd2;" horiz-adv-x="1434" 
d="M672 1324l-245 301h156l178 -301h-89zM717 -16q-128 0 -243.5 49.5t-199.5 133t-133.5 199.5t-49.5 244q0 127 49.5 243t133.5 199.5t200 133t243 49.5t243 -49.5t200 -133t133.5 -199.5t49.5 -243q0 -128 -49.5 -244t-133.5 -199.5t-199.5 -133t-243.5 -49.5zM717 122
q203 0 345.5 142t142.5 346q0 203 -142.5 345t-345.5 142q-100 0 -190 -38.5t-155.5 -103.5t-104 -155t-38.5 -190q0 -134 65 -246t177.5 -177t245.5 -65z" />
    <glyph glyph-name="Oacute" unicode="&#xd3;" horiz-adv-x="1434" 
d="M672 1324l178 301h156l-245 -301h-89zM717 -16q-128 0 -243.5 49.5t-199.5 133t-133.5 199.5t-49.5 244q0 127 49.5 243t133.5 199.5t200 133t243 49.5t243 -49.5t200 -133t133.5 -199.5t49.5 -243q0 -128 -49.5 -244t-133.5 -199.5t-199.5 -133t-243.5 -49.5zM717 122
q203 0 345.5 142t142.5 346q0 203 -142.5 345t-345.5 142q-100 0 -190 -38.5t-155.5 -103.5t-104 -155t-38.5 -190q0 -134 65 -246t177.5 -177t245.5 -65z" />
    <glyph glyph-name="Ocircumflex" unicode="&#xd4;" horiz-adv-x="1434" 
d="M488 1324l160 301h136l161 -301h-102l-125 213l-127 -213h-103zM717 -16q-128 0 -243.5 49.5t-199.5 133t-133.5 199.5t-49.5 244q0 127 49.5 243t133.5 199.5t200 133t243 49.5t243 -49.5t200 -133t133.5 -199.5t49.5 -243q0 -128 -49.5 -244t-133.5 -199.5t-199.5 -133
t-243.5 -49.5zM717 122q203 0 345.5 142t142.5 346q0 203 -142.5 345t-345.5 142q-100 0 -190 -38.5t-155.5 -103.5t-104 -155t-38.5 -190q0 -134 65 -246t177.5 -177t245.5 -65z" />
    <glyph glyph-name="Otilde" unicode="&#xd5;" horiz-adv-x="1434" 
d="M825 1401q-41 0 -75.5 21t-53.5 45.5t-42 45.5t-43 21q-37 0 -57.5 -36t-20.5 -91h-99q0 98 47 161.5t127 63.5q39 0 73 -21t54 -46t44.5 -46t45.5 -21q77 0 77 127h97q0 -98 -45.5 -161t-128.5 -63zM717 -16q-128 0 -243.5 49.5t-199.5 133t-133.5 199.5t-49.5 244
q0 127 49.5 243t133.5 199.5t200 133t243 49.5t243 -49.5t200 -133t133.5 -199.5t49.5 -243q0 -128 -49.5 -244t-133.5 -199.5t-199.5 -133t-243.5 -49.5zM717 122q203 0 345.5 142t142.5 346q0 203 -142.5 345t-345.5 142q-100 0 -190 -38.5t-155.5 -103.5t-104 -155
t-38.5 -190q0 -134 65 -246t177.5 -177t245.5 -65z" />
    <glyph glyph-name="Odieresis" unicode="&#xd6;" horiz-adv-x="1434" 
d="M565 1461q-37 0 -64 26.5t-27 62.5q0 38 27 64.5t64 26.5t64 -26.5t27 -64.5q0 -36 -27 -62.5t-64 -26.5zM868 1461q-37 0 -64 26.5t-27 62.5q0 38 27 64.5t64 26.5t64 -26.5t27 -64.5q0 -36 -27 -62.5t-64 -26.5zM717 -16q-128 0 -243.5 49.5t-199.5 133t-133.5 199.5
t-49.5 244q0 127 49.5 243t133.5 199.5t200 133t243 49.5t243 -49.5t200 -133t133.5 -199.5t49.5 -243q0 -128 -49.5 -244t-133.5 -199.5t-199.5 -133t-243.5 -49.5zM717 122q203 0 345.5 142t142.5 346q0 203 -142.5 345t-345.5 142q-100 0 -190 -38.5t-155.5 -103.5
t-104 -155t-38.5 -190q0 -134 65 -246t177.5 -177t245.5 -65z" />
    <glyph glyph-name="multiply" unicode="&#xd7;" horiz-adv-x="1016" 
d="M907 816l-313 -312l313 -312l-85 -88l-314 314l-315 -314l-84 88l312 312l-312 312l84 88l315 -314l314 314z" />
    <glyph glyph-name="Oslash" unicode="&#xd8;" horiz-adv-x="1434" 
d="M1123 1086q103 -87 161.5 -211t58.5 -265q0 -128 -49.5 -244t-133.5 -199.5t-199.5 -133t-243.5 -49.5q-164 0 -307 80l-98 -141l-103 61l103 148q-103 88 -162 212.5t-59 265.5q0 127 49.5 243t133.5 199.5t200 133t243 49.5q166 0 308 -81l99 142l101 -63zM229 610
q0 -107 43 -202t119 -163l555 796q-106 56 -229 56q-100 0 -190 -38.5t-155.5 -103.5t-104 -155t-38.5 -190zM717 122q203 0 345.5 142t142.5 346q0 107 -42.5 201t-118.5 162l-555 -795q106 -56 228 -56z" />
    <glyph glyph-name="Ugrave" unicode="&#xd9;" horiz-adv-x="1244" 
d="M578 1324l-245 301h156l178 -301h-89zM621 -16q-200 0 -330 117.5t-130 298.5v819h138v-796q0 -131 91 -216t231 -85t232 85.5t92 215.5v796h138v-819q0 -181 -130.5 -298.5t-331.5 -117.5z" />
    <glyph glyph-name="Uacute" unicode="&#xda;" horiz-adv-x="1244" 
d="M578 1324l178 301h156l-245 -301h-89zM621 -16q-200 0 -330 117.5t-130 298.5v819h138v-796q0 -131 91 -216t231 -85t232 85.5t92 215.5v796h138v-819q0 -181 -130.5 -298.5t-331.5 -117.5z" />
    <glyph glyph-name="Ucircumflex" unicode="&#xdb;" horiz-adv-x="1244" 
d="M394 1324l160 301h136l161 -301h-102l-125 213l-127 -213h-103zM621 -16q-200 0 -330 117.5t-130 298.5v819h138v-796q0 -131 91 -216t231 -85t232 85.5t92 215.5v796h138v-819q0 -181 -130.5 -298.5t-331.5 -117.5z" />
    <glyph glyph-name="Udieresis" unicode="&#xdc;" horiz-adv-x="1244" 
d="M471 1461q-37 0 -64 26.5t-27 62.5q0 38 27 64.5t64 26.5t64 -26.5t27 -64.5q0 -36 -27 -62.5t-64 -26.5zM774 1461q-37 0 -64 26.5t-27 62.5q0 38 27 64.5t64 26.5t64 -26.5t27 -64.5q0 -36 -27 -62.5t-64 -26.5zM621 -16q-200 0 -330 117.5t-130 298.5v819h138v-796
q0 -131 91 -216t231 -85t232 85.5t92 215.5v796h138v-819q0 -181 -130.5 -298.5t-331.5 -117.5z" />
    <glyph glyph-name="Yacute" unicode="&#xdd;" horiz-adv-x="1016" 
d="M463 1324l178 301h156l-245 -301h-89zM440 0v574l-426 645h172l323 -499l324 499h169l-424 -642v-577h-138z" />
    <glyph glyph-name="Thorn" unicode="&#xde;" horiz-adv-x="1025" 
d="M623 1050q140 0 240 -100.5t100 -242.5q0 -140 -99.5 -238t-240.5 -98h-305v-371h-133v1219h133v-169h305zM612 504q93 0 153 57.5t60 148.5t-60 149t-153 58h-294v-413h294z" />
    <glyph glyph-name="germandbls" unicode="&#xdf;" horiz-adv-x="1048" 
d="M775 641q91 -41 143 -121.5t52 -183.5q0 -142 -93 -239t-225 -97h-234v138h211q85 0 146 57t61 151q0 98 -66.5 158t-164.5 60h-93v112h39q93 0 158 65t65 159q0 95 -67 156t-172 61q-109 0 -181.5 -65.5t-72.5 -164.5v-887h-133v887q0 151 110 249.5t275 98.5
q159 0 263.5 -94t104.5 -237q0 -79 -33.5 -147t-92.5 -116z" />
    <glyph glyph-name="agrave" unicode="&#xe0;" horiz-adv-x="1098" 
d="M541 918h-89l-245 301h156zM1001 114h51v-114q-41 -16 -78 -16q-60 0 -105 37.5t-67 99.5q-59 -64 -138 -100.5t-167 -36.5q-175 0 -298.5 123t-123.5 299t123.5 299.5t298.5 123.5q169 0 290 -115v99h133v-597q0 -53 23 -77.5t58 -24.5zM497 117q120 0 205 84.5
t85 204.5q0 121 -85 205.5t-205 84.5t-204.5 -84.5t-84.5 -205.5t84.5 -205t204.5 -84z" />
    <glyph glyph-name="aacute" unicode="&#xe1;" horiz-adv-x="1098" 
d="M786 1219l-245 -301h-89l178 301h156zM1001 114h51v-114q-41 -16 -78 -16q-60 0 -105 37.5t-67 99.5q-59 -64 -138 -100.5t-167 -36.5q-175 0 -298.5 123t-123.5 299t123.5 299.5t298.5 123.5q169 0 290 -115v99h133v-597q0 -53 23 -77.5t58 -24.5zM497 117
q120 0 205 84.5t85 204.5q0 121 -85 205.5t-205 84.5t-204.5 -84.5t-84.5 -205.5t84.5 -205t204.5 -84z" />
    <glyph glyph-name="acircumflex" unicode="&#xe2;" horiz-adv-x="1098" 
d="M498 1131l-127 -213h-103l160 301h136l161 -301h-102zM1001 114h51v-114q-41 -16 -78 -16q-60 0 -105 37.5t-67 99.5q-59 -64 -138 -100.5t-167 -36.5q-175 0 -298.5 123t-123.5 299t123.5 299.5t298.5 123.5q169 0 290 -115v99h133v-597q0 -53 23 -77.5t58 -24.5z
M497 117q120 0 205 84.5t85 204.5q0 121 -85 205.5t-205 84.5t-204.5 -84.5t-84.5 -205.5t84.5 -205t204.5 -84z" />
    <glyph glyph-name="atilde" unicode="&#xe3;" horiz-adv-x="1098" 
d="M391 1128q-37 0 -57.5 -36t-20.5 -91h-99q0 98 47 161.5t127 63.5q39 0 73 -21t54 -46t44.5 -46t45.5 -21q77 0 77 127h97q0 -98 -45.5 -161t-128.5 -63q-41 0 -75.5 21t-53.5 45.5t-42 45.5t-43 21zM1001 114h51v-114q-41 -16 -78 -16q-60 0 -105 37.5t-67 99.5
q-59 -64 -138 -100.5t-167 -36.5q-175 0 -298.5 123t-123.5 299t123.5 299.5t298.5 123.5q169 0 290 -115v99h133v-597q0 -53 23 -77.5t58 -24.5zM497 117q120 0 205 84.5t85 204.5q0 121 -85 205.5t-205 84.5t-204.5 -84.5t-84.5 -205.5t84.5 -205t204.5 -84z" />
    <glyph glyph-name="adieresis" unicode="&#xe4;" horiz-adv-x="1098" 
d="M345 1055q-37 0 -64 26.5t-27 62.5q0 38 27 64.5t64 26.5t64 -26.5t27 -64.5q0 -36 -27 -62.5t-64 -26.5zM648 1055q-37 0 -64 26.5t-27 62.5q0 38 27 64.5t64 26.5t64 -26.5t27 -64.5q0 -36 -27 -62.5t-64 -26.5zM1001 114h51v-114q-41 -16 -78 -16q-60 0 -105 37.5
t-67 99.5q-59 -64 -138 -100.5t-167 -36.5q-175 0 -298.5 123t-123.5 299t123.5 299.5t298.5 123.5q169 0 290 -115v99h133v-597q0 -53 23 -77.5t58 -24.5zM497 117q120 0 205 84.5t85 204.5q0 121 -85 205.5t-205 84.5t-204.5 -84.5t-84.5 -205.5t84.5 -205t204.5 -84z" />
    <glyph glyph-name="aring" unicode="&#xe5;" horiz-adv-x="1098" 
d="M498 889q-70 0 -121 50.5t-51 120.5t50.5 120t121.5 50q69 0 119 -50t50 -120t-50 -120.5t-119 -50.5zM498 1161q-41 0 -69.5 -30.5t-28.5 -70.5q0 -42 28 -70.5t70 -28.5q40 0 68.5 28.5t28.5 70.5q0 40 -29 70.5t-68 30.5zM1001 114h51v-114q-41 -16 -78 -16
q-60 0 -105 37.5t-67 99.5q-59 -64 -138 -100.5t-167 -36.5q-175 0 -298.5 123t-123.5 299t123.5 299.5t298.5 123.5q169 0 290 -115v99h133v-597q0 -53 23 -77.5t58 -24.5zM497 117q120 0 205 84.5t85 204.5q0 121 -85 205.5t-205 84.5t-204.5 -84.5t-84.5 -205.5
t84.5 -205t204.5 -84z" />
    <glyph glyph-name="ae" unicode="&#xe6;" horiz-adv-x="1538" 
d="M1466 413l-1 -28h-710q7 -113 90.5 -190.5t198.5 -77.5q88 0 159 46.5t106 124.5h141q-40 -134 -151.5 -219t-254.5 -85q-97 0 -182 41t-145 113q-80 -72 -170.5 -113t-172.5 -41q-130 0 -212 72t-82 188q0 120 88 188.5t237 68.5h227q0 1 0.5 3t0.5 3v25
q0 81 -55.5 134.5t-140.5 53.5q-66 0 -119 -34t-69 -86l-133 44q32 82 120.5 133.5t202.5 51.5q95 0 170.5 -38.5t116.5 -104.5q60 67 142 105t176 38q174 0 296 -120.5t126 -295.5zM1044 696q-93 0 -167 -52.5t-105 -136.5h540q-30 84 -103 136.5t-165 52.5zM374 106
q64 0 138 38t139 104q-25 63 -29 131h-217q-92 0 -142 -35t-50 -103q0 -62 43.5 -98.5t117.5 -36.5z" />
    <glyph glyph-name="ccedilla" unicode="&#xe7;" horiz-adv-x="970" 
d="M497 117q84 0 154 44t107 117h143q-40 -128 -148 -209.5t-248 -84.5l-44 -91q83 16 141.5 -27t58.5 -120q0 -71 -48.5 -120t-118.5 -49q-56 0 -111 31.5t-78 76.5l73 29q17 -24 51 -40.5t65 -16.5q36 0 61.5 26t25.5 63q0 55 -45.5 75.5t-111.5 -5.5l-64 41l69 132
q-153 25 -253.5 142.5t-100.5 274.5q0 176 123.5 299.5t298.5 123.5q141 0 252 -82.5t152 -211.5h-143q-37 73 -107 117t-154 44q-120 0 -204.5 -84t-84.5 -206q0 -121 84.5 -205t204.5 -84z" />
    <glyph glyph-name="egrave" unicode="&#xe8;" horiz-adv-x="992" 
d="M540 918h-89l-245 301h156zM920 413l-2 -28h-709q7 -113 90 -190.5t198 -77.5q88 0 159.5 46.5t105.5 124.5h142q-40 -134 -151.5 -219t-255.5 -85q-175 0 -298.5 123t-123.5 299t123.5 299.5t298.5 123.5t297 -120t126 -296zM497 696q-92 0 -166 -52.5t-105 -136.5h540
q-30 84 -103.5 136.5t-165.5 52.5z" />
    <glyph glyph-name="eacute" unicode="&#xe9;" horiz-adv-x="992" 
d="M785 1219l-245 -301h-89l178 301h156zM920 413l-2 -28h-709q7 -113 90 -190.5t198 -77.5q88 0 159.5 46.5t105.5 124.5h142q-40 -134 -151.5 -219t-255.5 -85q-175 0 -298.5 123t-123.5 299t123.5 299.5t298.5 123.5t297 -120t126 -296zM497 696q-92 0 -166 -52.5
t-105 -136.5h540q-30 84 -103.5 136.5t-165.5 52.5z" />
    <glyph glyph-name="ecircumflex" unicode="&#xea;" horiz-adv-x="992" 
d="M497 1131l-127 -213h-103l160 301h136l161 -301h-102zM920 413l-2 -28h-709q7 -113 90 -190.5t198 -77.5q88 0 159.5 46.5t105.5 124.5h142q-40 -134 -151.5 -219t-255.5 -85q-175 0 -298.5 123t-123.5 299t123.5 299.5t298.5 123.5t297 -120t126 -296zM497 696
q-92 0 -166 -52.5t-105 -136.5h540q-30 84 -103.5 136.5t-165.5 52.5z" />
    <glyph glyph-name="edieresis" unicode="&#xeb;" horiz-adv-x="992" 
d="M344 1055q-37 0 -64 26.5t-27 62.5q0 38 27 64.5t64 26.5t64 -26.5t27 -64.5q0 -36 -27 -62.5t-64 -26.5zM647 1055q-37 0 -64 26.5t-27 62.5q0 38 27 64.5t64 26.5t64 -26.5t27 -64.5q0 -36 -27 -62.5t-64 -26.5zM920 413l-2 -28h-709q7 -113 90 -190.5t198 -77.5
q88 0 159.5 46.5t105.5 124.5h142q-40 -134 -151.5 -219t-255.5 -85q-175 0 -298.5 123t-123.5 299t123.5 299.5t298.5 123.5t297 -120t126 -296zM497 696q-92 0 -166 -52.5t-105 -136.5h540q-30 84 -103.5 136.5t-165.5 52.5z" />
    <glyph glyph-name="igrave" unicode="&#xec;" horiz-adv-x="429" 
d="M170 918l-245 301h156l178 -301h-89zM148 0v813h133v-813h-133z" />
    <glyph glyph-name="iacute" unicode="&#xed;" horiz-adv-x="429" 
d="M170 918l178 301h156l-245 -301h-89zM148 0v813h133v-813h-133z" />
    <glyph glyph-name="icircumflex" unicode="&#xee;" horiz-adv-x="429" 
d="M-14 918l160 301h136l161 -301h-102l-125 213l-127 -213h-103zM148 0v813h133v-813h-133z" />
    <glyph glyph-name="idieresis" unicode="&#xef;" horiz-adv-x="429" 
d="M63 1055q-37 0 -64 26.5t-27 62.5q0 38 27 64.5t64 26.5t64 -26.5t27 -64.5q0 -36 -27 -62.5t-64 -26.5zM366 1055q-37 0 -64 26.5t-27 62.5q0 38 27 64.5t64 26.5t64 -26.5t27 -64.5q0 -36 -27 -62.5t-64 -26.5zM148 0v813h133v-813h-133z" />
    <glyph glyph-name="eth" unicode="&#xf0;" horiz-adv-x="1047" 
d="M650 1110q143 -117 221 -288.5t78 -345.5q0 -101 -27.5 -189t-80.5 -156t-138 -107.5t-193 -39.5q-182 0 -309.5 123.5t-127.5 298.5q0 176 128 299.5t309 123.5q179 0 278 -108q-49 174 -210 298l-86 -110l-68 53l84 106q-105 59 -234 62l25 109q145 0 281 -80l75 94
l66 -50zM510 115q121 0 205 85t84 206t-84 206t-205 85t-206 -85t-85 -206t85 -206t206 -85z" />
    <glyph glyph-name="ntilde" unicode="&#xf1;" horiz-adv-x="903" 
d="M346 1128q-37 0 -57.5 -36t-20.5 -91h-99q0 98 47 161.5t127 63.5q39 0 73 -21t54 -46t44.5 -46t45.5 -21q77 0 77 127h97q0 -98 -45.5 -161t-128.5 -63q-41 0 -75.5 21t-53.5 45.5t-42 45.5t-43 21zM473 829q119 0 210 -92t91 -220v-517h-133v517q0 75 -52 127t-127 52
q-76 0 -128.5 -51.5t-52.5 -127.5v-517h-133v813h133v-62q83 78 192 78z" />
    <glyph glyph-name="ograve" unicode="&#xf2;" horiz-adv-x="996" 
d="M452 918l-245 301h156l178 -301h-89zM497 -16q-175 0 -298.5 123t-123.5 299t123.5 299.5t298.5 123.5q176 0 299.5 -123.5t123.5 -299.5t-123.5 -299t-299.5 -123zM497 117q120 0 205 84.5t85 204.5q0 121 -85 205.5t-205 84.5t-204.5 -84.5t-84.5 -205.5t84.5 -205
t204.5 -84z" />
    <glyph glyph-name="oacute" unicode="&#xf3;" horiz-adv-x="996" 
d="M452 918l178 301h156l-245 -301h-89zM497 -16q-175 0 -298.5 123t-123.5 299t123.5 299.5t298.5 123.5q176 0 299.5 -123.5t123.5 -299.5t-123.5 -299t-299.5 -123zM497 117q120 0 205 84.5t85 204.5q0 121 -85 205.5t-205 84.5t-204.5 -84.5t-84.5 -205.5t84.5 -205
t204.5 -84z" />
    <glyph glyph-name="ocircumflex" unicode="&#xf4;" horiz-adv-x="996" 
d="M268 918l160 301h136l161 -301h-102l-125 213l-127 -213h-103zM497 -16q-175 0 -298.5 123t-123.5 299t123.5 299.5t298.5 123.5q176 0 299.5 -123.5t123.5 -299.5t-123.5 -299t-299.5 -123zM497 117q120 0 205 84.5t85 204.5q0 121 -85 205.5t-205 84.5t-204.5 -84.5
t-84.5 -205.5t84.5 -205t204.5 -84z" />
    <glyph glyph-name="otilde" unicode="&#xf5;" horiz-adv-x="996" 
d="M605 995q-41 0 -75.5 21t-53.5 45.5t-42 45.5t-43 21q-37 0 -57.5 -36t-20.5 -91h-99q0 98 47 161.5t127 63.5q39 0 73 -21t54 -46t44.5 -46t45.5 -21q77 0 77 127h97q0 -98 -45.5 -161t-128.5 -63zM497 -16q-175 0 -298.5 123t-123.5 299t123.5 299.5t298.5 123.5
q176 0 299.5 -123.5t123.5 -299.5t-123.5 -299t-299.5 -123zM497 117q120 0 205 84.5t85 204.5q0 121 -85 205.5t-205 84.5t-204.5 -84.5t-84.5 -205.5t84.5 -205t204.5 -84z" />
    <glyph glyph-name="odieresis" unicode="&#xf6;" horiz-adv-x="996" 
d="M345 1055q-37 0 -64 26.5t-27 62.5q0 38 27 64.5t64 26.5t64 -26.5t27 -64.5q0 -36 -27 -62.5t-64 -26.5zM648 1055q-37 0 -64 26.5t-27 62.5q0 38 27 64.5t64 26.5t64 -26.5t27 -64.5q0 -36 -27 -62.5t-64 -26.5zM497 -16q-175 0 -298.5 123t-123.5 299t123.5 299.5
t298.5 123.5q176 0 299.5 -123.5t123.5 -299.5t-123.5 -299t-299.5 -123zM497 117q120 0 205 84.5t85 204.5q0 121 -85 205.5t-205 84.5t-204.5 -84.5t-84.5 -205.5t84.5 -205t204.5 -84z" />
    <glyph glyph-name="divide" unicode="&#xf7;" horiz-adv-x="1173" 
d="M586 640q-34 0 -58.5 24t-24.5 59q0 34 25 58.5t58 24.5q35 0 60 -24.5t25 -58.5q0 -35 -25 -59t-60 -24zM99 410v74h975v-74h-975zM586 88q-34 0 -58.5 24t-24.5 59q0 34 25 58.5t58 24.5q35 0 60 -24.5t25 -58.5q0 -35 -25 -59t-60 -24z" />
    <glyph glyph-name="oslash" unicode="&#xf8;" horiz-adv-x="996" 
d="M786 716q63 -59 98.5 -139.5t35.5 -170.5q0 -176 -123.5 -299t-299.5 -123q-102 0 -190 45l-79 -113l-102 61l83 120q-63 58 -98.5 138.5t-35.5 170.5q0 176 123.5 299.5t298.5 123.5q103 0 192 -46l79 114l100 -63zM208 406q0 -115 79 -199l324 466q-54 23 -114 23
q-120 0 -204.5 -84.5t-84.5 -205.5zM497 117q120 0 205 84.5t85 204.5q0 115 -79 199l-324 -465q54 -23 113 -23z" />
    <glyph glyph-name="ugrave" unicode="&#xf9;" horiz-adv-x="880" 
d="M395 918l-245 301h156l178 -301h-89zM440 -16q-143 0 -225 76t-82 223v530h133v-516q0 -92 47 -136t127 -44q81 0 127.5 44t46.5 136v516h132v-530q0 -147 -82 -223t-224 -76z" />
    <glyph glyph-name="uacute" unicode="&#xfa;" horiz-adv-x="880" 
d="M395 918l178 301h156l-245 -301h-89zM440 -16q-143 0 -225 76t-82 223v530h133v-516q0 -92 47 -136t127 -44q81 0 127.5 44t46.5 136v516h132v-530q0 -147 -82 -223t-224 -76z" />
    <glyph glyph-name="ucircumflex" unicode="&#xfb;" horiz-adv-x="880" 
d="M211 918l160 301h136l161 -301h-102l-125 213l-127 -213h-103zM440 -16q-143 0 -225 76t-82 223v530h133v-516q0 -92 47 -136t127 -44q81 0 127.5 44t46.5 136v516h132v-530q0 -147 -82 -223t-224 -76z" />
    <glyph glyph-name="udieresis" unicode="&#xfc;" horiz-adv-x="880" 
d="M288 1055q-37 0 -64 26.5t-27 62.5q0 38 27 64.5t64 26.5t64 -26.5t27 -64.5q0 -36 -27 -62.5t-64 -26.5zM591 1055q-37 0 -64 26.5t-27 62.5q0 38 27 64.5t64 26.5t64 -26.5t27 -64.5q0 -36 -27 -62.5t-64 -26.5zM440 -16q-143 0 -225 76t-82 223v530h133v-516
q0 -92 47 -136t127 -44q81 0 127.5 44t46.5 136v516h132v-530q0 -147 -82 -223t-224 -76z" />
    <glyph glyph-name="yacute" unicode="&#xfd;" horiz-adv-x="826" 
d="M702 1219l-245 -301h-89l178 301h156zM663 813h151l-351 -878l-170 -423h-143l194 480l-333 821h148l257 -659z" />
    <glyph glyph-name="thorn" unicode="&#xfe;" horiz-adv-x="1068" 
d="M571 829q175 0 298.5 -123.5t123.5 -299.5t-123.5 -299t-298.5 -123q-168 0 -290 114v-586h-133v1983h133v-781q123 115 290 115zM571 117q120 0 204.5 84.5t84.5 204.5t-85 205t-204 85q-121 0 -205.5 -84.5t-84.5 -205.5t84.5 -205t205.5 -84z" />
    <glyph glyph-name="ydieresis" unicode="&#xff;" horiz-adv-x="826" 
d="M261 1055q-37 0 -64 26.5t-27 62.5q0 38 27 64.5t64 26.5t64 -26.5t27 -64.5q0 -36 -27 -62.5t-64 -26.5zM564 1055q-37 0 -64 26.5t-27 62.5q0 38 27 64.5t64 26.5t64 -26.5t27 -64.5q0 -36 -27 -62.5t-64 -26.5zM663 813h151l-351 -878l-170 -423h-143l194 480
l-333 821h148l257 -659z" />
    <glyph glyph-name="Amacron" unicode="&#x100;" horiz-adv-x="1100" 
d="M770 1476v-92h-439v92h439zM918 0l-98 281h-539l-98 -281h-150l441 1219h153l440 -1219h-149zM327 414h447l-223 644z" />
    <glyph glyph-name="amacron" unicode="&#x101;" horiz-adv-x="1098" 
d="M716 1070v-92h-439v92h439zM1001 114h51v-114q-41 -16 -78 -16q-60 0 -105 37.5t-67 99.5q-59 -64 -138 -100.5t-167 -36.5q-175 0 -298.5 123t-123.5 299t123.5 299.5t298.5 123.5q169 0 290 -115v99h133v-597q0 -53 23 -77.5t58 -24.5zM497 117q120 0 205 84.5
t85 204.5q0 121 -85 205.5t-205 84.5t-204.5 -84.5t-84.5 -205.5t84.5 -205t204.5 -84z" />
    <glyph glyph-name="Abreve" unicode="&#x102;" horiz-adv-x="1100" 
d="M550 1375q-118 0 -193 68t-75 182h82q0 -69 53 -117.5t133 -48.5q81 0 134 48.5t53 117.5h83q0 -114 -75.5 -182t-194.5 -68zM918 0l-98 281h-539l-98 -281h-150l441 1219h153l440 -1219h-149zM327 414h447l-223 644z" />
    <glyph glyph-name="abreve" unicode="&#x103;" horiz-adv-x="1098" 
d="M496 969q-118 0 -193 68t-75 182h82q0 -69 53 -117.5t133 -48.5q81 0 134 48.5t53 117.5h83q0 -114 -75.5 -182t-194.5 -68zM1001 114h51v-114q-41 -16 -78 -16q-60 0 -105 37.5t-67 99.5q-59 -64 -138 -100.5t-167 -36.5q-175 0 -298.5 123t-123.5 299t123.5 299.5
t298.5 123.5q169 0 290 -115v99h133v-597q0 -53 23 -77.5t58 -24.5zM497 117q120 0 205 84.5t85 204.5q0 121 -85 205.5t-205 84.5t-204.5 -84.5t-84.5 -205.5t84.5 -205t204.5 -84z" />
    <glyph glyph-name="Aogonek" unicode="&#x104;" horiz-adv-x="1100" 
d="M1119 -273l45 -65q-88 -88 -219 -83q-83 4 -132.5 48t-49.5 121q0 75 50.5 134t144.5 118h-40l-98 281h-539l-98 -281h-150l441 1219h153l440 -1219q-49 -27 -81.5 -49t-64.5 -51.5t-48 -64.5t-16 -76q0 -47 28.5 -77t79.5 -30q97 0 154 75zM327 414h447l-223 644z" />
    <glyph glyph-name="aogonek" unicode="&#x105;" horiz-adv-x="1098" 
d="M1104 -273l45 -65q-88 -88 -219 -83q-83 4 -132.5 48t-49.5 121q0 72 46.5 129.5t133.5 112.5q-90 26 -126 131q-59 -64 -138 -100.5t-167 -36.5q-175 0 -298.5 123t-123.5 299t123.5 299.5t298.5 123.5q169 0 290 -115v99h133v-597q0 -53 23 -77.5t58 -24.5h51v-114
q-49 -27 -81.5 -49t-64.5 -51.5t-48 -64.5t-16 -76q0 -47 28.5 -77t79.5 -30q97 0 154 75zM497 117q120 0 205 84.5t85 204.5q0 121 -85 205.5t-205 84.5t-204.5 -84.5t-84.5 -205.5t84.5 -205t204.5 -84z" />
    <glyph glyph-name="Cacute" unicode="&#x106;" horiz-adv-x="1323" 
d="M617 1324l178 301h156l-245 -301h-89zM717 -16q-128 0 -243.5 49.5t-199.5 133t-133.5 199.5t-49.5 244q0 127 49.5 243t133.5 199.5t200 133t243 49.5q173 0 318 -86.5t227 -231.5l-119 -67q-63 113 -176.5 180t-249.5 67q-100 0 -190 -38.5t-155.5 -103.5t-104 -155
t-38.5 -190q0 -134 65 -246t177.5 -177t245.5 -65q136 0 249.5 67t176.5 180l119 -67q-82 -145 -227 -231.5t-318 -86.5z" />
    <glyph glyph-name="cacute" unicode="&#x107;" horiz-adv-x="970" 
d="M438 918l178 301h156l-245 -301h-89zM497 -16q-175 0 -298.5 123t-123.5 299t123.5 299.5t298.5 123.5q141 0 252 -82.5t152 -211.5h-143q-37 73 -107 117t-154 44q-120 0 -204.5 -84t-84.5 -206q0 -121 84.5 -205t204.5 -84q84 0 154 44t107 117h143q-41 -130 -152 -212
t-252 -82z" />
    <glyph glyph-name="Cdotaccent" unicode="&#x10a;" horiz-adv-x="1323" 
d="M662 1461q-37 0 -64 26.5t-27 62.5q0 38 27 64.5t64 26.5t64 -26.5t27 -64.5q0 -36 -27 -62.5t-64 -26.5zM717 -16q-128 0 -243.5 49.5t-199.5 133t-133.5 199.5t-49.5 244q0 127 49.5 243t133.5 199.5t200 133t243 49.5q173 0 318 -86.5t227 -231.5l-119 -67
q-63 113 -176.5 180t-249.5 67q-100 0 -190 -38.5t-155.5 -103.5t-104 -155t-38.5 -190q0 -134 65 -246t177.5 -177t245.5 -65q136 0 249.5 67t176.5 180l119 -67q-82 -145 -227 -231.5t-318 -86.5z" />
    <glyph glyph-name="cdotaccent" unicode="&#x10b;" horiz-adv-x="970" 
d="M483 1055q-37 0 -64 26.5t-27 62.5q0 38 27 64.5t64 26.5t64 -26.5t27 -64.5q0 -36 -27 -62.5t-64 -26.5zM497 -16q-175 0 -298.5 123t-123.5 299t123.5 299.5t298.5 123.5q141 0 252 -82.5t152 -211.5h-143q-37 73 -107 117t-154 44q-120 0 -204.5 -84t-84.5 -206
q0 -121 84.5 -205t204.5 -84q84 0 154 44t107 117h143q-41 -130 -152 -212t-252 -82z" />
    <glyph glyph-name="Ccaron" unicode="&#x10c;" horiz-adv-x="1323" 
d="M592 1324l-159 301h102l127 -213l125 213h103l-161 -301h-137zM717 -16q-128 0 -243.5 49.5t-199.5 133t-133.5 199.5t-49.5 244q0 127 49.5 243t133.5 199.5t200 133t243 49.5q173 0 318 -86.5t227 -231.5l-119 -67q-63 113 -176.5 180t-249.5 67q-100 0 -190 -38.5
t-155.5 -103.5t-104 -155t-38.5 -190q0 -134 65 -246t177.5 -177t245.5 -65q136 0 249.5 67t176.5 180l119 -67q-82 -145 -227 -231.5t-318 -86.5z" />
    <glyph glyph-name="ccaron" unicode="&#x10d;" horiz-adv-x="970" 
d="M413 918l-159 301h102l127 -213l125 213h103l-161 -301h-137zM497 -16q-175 0 -298.5 123t-123.5 299t123.5 299.5t298.5 123.5q141 0 252 -82.5t152 -211.5h-143q-37 73 -107 117t-154 44q-120 0 -204.5 -84t-84.5 -206q0 -121 84.5 -205t204.5 -84q84 0 154 44t107 117
h143q-41 -130 -152 -212t-252 -82z" />
    <glyph glyph-name="Dcaron" unicode="&#x10e;" horiz-adv-x="1227" 
d="M541 1324l-159 301h102l127 -213l125 213h103l-161 -301h-137zM185 0v1219h320q152 0 273 -47.5t197 -131t116 -193t40 -237.5t-40 -238t-116 -193.5t-197 -131t-273 -47.5h-320zM321 138h182q127 0 222 35t152.5 99.5t86 149t28.5 188.5q0 215 -120.5 343t-368.5 128
h-182v-943z" />
    <glyph glyph-name="dcaron" unicode="&#x10f;" horiz-adv-x="1118" 
d="M762 715v780h133v-1495h-133v98q-122 -114 -290 -114q-115 0 -212 56.5t-153.5 153.5t-56.5 212q0 176 123.5 299.5t298.5 123.5q168 0 290 -114zM1187 1219h153l-252 -453h-112zM472 117q120 0 205 84.5t85 204.5q0 121 -85 205.5t-205 84.5t-204.5 -84.5t-84.5 -205.5
t84.5 -205t204.5 -84z" />
    <glyph glyph-name="Dcroat" unicode="&#x110;" horiz-adv-x="1227" 
d="M505 1219q152 0 273 -47.5t197 -131t116 -193t40 -237.5t-40 -238t-116 -193.5t-197 -131t-273 -47.5h-320v546h-82v128h82v545h320zM503 138q127 0 222 35t152.5 99.5t86 149t28.5 188.5q0 215 -120.5 343t-368.5 128h-182v-407h260v-128h-260v-408h182z" />
    <glyph glyph-name="dcroat" unicode="&#x111;" horiz-adv-x="1068" 
d="M1077 1283v-128h-157v-1155h-133v98q-122 -114 -290 -114q-175 0 -298.5 123t-123.5 299t123.5 299.5t298.5 123.5q168 0 290 -114v440h-188v128h188v212h133v-212h157zM497 117q120 0 205 84.5t85 204.5q0 121 -85 205.5t-205 84.5t-204.5 -84.5t-84.5 -205.5t84.5 -205
t204.5 -84z" />
    <glyph glyph-name="Emacron" unicode="&#x112;" horiz-adv-x="943" 
d="M691 1476v-92h-439v92h439zM854 1086h-531v-410h463v-133h-463v-410h531v-133h-669v1219h669v-133z" />
    <glyph glyph-name="emacron" unicode="&#x113;" horiz-adv-x="992" 
d="M715 1070v-92h-439v92h439zM920 413l-2 -28h-709q7 -113 90 -190.5t198 -77.5q88 0 159.5 46.5t105.5 124.5h142q-40 -134 -151.5 -219t-255.5 -85q-175 0 -298.5 123t-123.5 299t123.5 299.5t298.5 123.5t297 -120t126 -296zM497 696q-92 0 -166 -52.5t-105 -136.5h540
q-30 84 -103.5 136.5t-165.5 52.5z" />
    <glyph glyph-name="Edotaccent" unicode="&#x116;" horiz-adv-x="943" 
d="M472 1461q-37 0 -64 26.5t-27 62.5q0 38 27 64.5t64 26.5t64 -26.5t27 -64.5q0 -36 -27 -62.5t-64 -26.5zM854 1086h-531v-410h463v-133h-463v-410h531v-133h-669v1219h669v-133z" />
    <glyph glyph-name="edotaccent" unicode="&#x117;" horiz-adv-x="992" 
d="M496 1055q-37 0 -64 26.5t-27 62.5q0 38 27 64.5t64 26.5t64 -26.5t27 -64.5q0 -36 -27 -62.5t-64 -26.5zM920 413l-2 -28h-709q7 -113 90 -190.5t198 -77.5q88 0 159.5 46.5t105.5 124.5h142q-40 -134 -151.5 -219t-255.5 -85q-175 0 -298.5 123t-123.5 299t123.5 299.5
t298.5 123.5t297 -120t126 -296zM497 696q-92 0 -166 -52.5t-105 -136.5h540q-30 84 -103.5 136.5t-165.5 52.5z" />
    <glyph glyph-name="Eogonek" unicode="&#x118;" horiz-adv-x="943" 
d="M906 -273l45 -65q-88 -88 -219 -83q-83 4 -132.5 48t-49.5 121q0 75 50.5 134t144.5 118h-560v1219h669v-133h-531v-410h463v-133h-463v-410h531v-133q-49 -27 -81.5 -49t-64.5 -51.5t-48 -64.5t-16 -76q0 -47 28.5 -77t79.5 -30q97 0 154 75z" />
    <glyph glyph-name="eogonek" unicode="&#x119;" horiz-adv-x="992" 
d="M920 413l-2 -28h-709q7 -113 90 -190.5t198 -77.5q88 0 159.5 46.5t105.5 124.5h142q-30 -102 -104.5 -178t-176.5 -107q-95 -54 -146 -107t-51 -127q0 -47 28.5 -77t79.5 -30q97 0 154 75l45 -65q-88 -88 -219 -83q-83 4 -132.5 48t-49.5 121q0 66 40 120.5t115 105.5
q-172 4 -292 126.5t-120 295.5q0 176 123.5 299.5t298.5 123.5t297 -120t126 -296zM497 696q-92 0 -166 -52.5t-105 -136.5h540q-30 84 -103.5 136.5t-165.5 52.5z" />
    <glyph glyph-name="Ecaron" unicode="&#x11a;" horiz-adv-x="943" 
d="M539 1324h-137l-159 301h102l127 -213l125 213h103zM854 1086h-531v-410h463v-133h-463v-410h531v-133h-669v1219h669v-133z" />
    <glyph glyph-name="ecaron" unicode="&#x11b;" horiz-adv-x="992" 
d="M563 918h-137l-159 301h102l127 -213l125 213h103zM920 413l-2 -28h-709q7 -113 90 -190.5t198 -77.5q88 0 159.5 46.5t105.5 124.5h142q-40 -134 -151.5 -219t-255.5 -85q-175 0 -298.5 123t-123.5 299t123.5 299.5t298.5 123.5t297 -120t126 -296zM497 696
q-92 0 -166 -52.5t-105 -136.5h540q-30 84 -103.5 136.5t-165.5 52.5z" />
    <glyph glyph-name="Gbreve" unicode="&#x11e;" horiz-adv-x="1418" 
d="M708 1375q-118 0 -193 68t-75 182h82q0 -69 53 -117.5t133 -48.5q81 0 134 48.5t53 117.5h83q0 -114 -75.5 -182t-194.5 -68zM715 649h628v-39q0 -128 -49.5 -244t-133.5 -199.5t-199.5 -133t-243.5 -49.5t-243.5 49.5t-199.5 133t-133.5 199.5t-49.5 244q0 127 49.5 243
t133.5 199.5t200 133t243 49.5q173 0 318 -86.5t227 -231.5l-119 -67q-63 113 -176.5 180t-249.5 67q-100 0 -190 -38.5t-155.5 -103.5t-104 -155t-38.5 -190q0 -134 65 -246t177.5 -177t245.5 -65q179 0 313.5 112.5t166.5 284.5h-482v130z" />
    <glyph glyph-name="gbreve" unicode="&#x11f;" horiz-adv-x="1068" 
d="M527 969q-118 0 -193 68t-75 182h82q0 -69 53 -117.5t133 -48.5q81 0 134 48.5t53 117.5h83q0 -114 -75.5 -182t-194.5 -68zM785 813h135v-878q0 -217 -112.5 -328t-301.5 -111q-143 0 -253.5 79t-154.5 206l122 55q27 -91 105 -149t181 -58q281 0 281 306v163
q-122 -114 -290 -114q-175 0 -298.5 123t-123.5 299q0 177 123 300t299 123q168 0 288 -112v96zM497 117q120 0 205 85t85 204q0 121 -85 205.5t-205 84.5t-204.5 -84.5t-84.5 -205.5q0 -119 84.5 -204t204.5 -85z" />
    <glyph glyph-name="Gdotaccent" unicode="&#x120;" horiz-adv-x="1418" 
d="M709 1461q-37 0 -64 26.5t-27 62.5q0 38 27 64.5t64 26.5t64 -26.5t27 -64.5q0 -36 -27 -62.5t-64 -26.5zM715 649h628v-39q0 -128 -49.5 -244t-133.5 -199.5t-199.5 -133t-243.5 -49.5t-243.5 49.5t-199.5 133t-133.5 199.5t-49.5 244q0 127 49.5 243t133.5 199.5
t200 133t243 49.5q173 0 318 -86.5t227 -231.5l-119 -67q-63 113 -176.5 180t-249.5 67q-100 0 -190 -38.5t-155.5 -103.5t-104 -155t-38.5 -190q0 -134 65 -246t177.5 -177t245.5 -65q179 0 313.5 112.5t166.5 284.5h-482v130z" />
    <glyph glyph-name="gdotaccent" unicode="&#x121;" horiz-adv-x="1068" 
d="M528 1055q-37 0 -64 26.5t-27 62.5q0 38 27 64.5t64 26.5t64 -26.5t27 -64.5q0 -36 -27 -62.5t-64 -26.5zM785 813h135v-878q0 -217 -112.5 -328t-301.5 -111q-143 0 -253.5 79t-154.5 206l122 55q27 -91 105 -149t181 -58q281 0 281 306v163q-122 -114 -290 -114
q-175 0 -298.5 123t-123.5 299q0 177 123 300t299 123q168 0 288 -112v96zM497 117q120 0 205 85t85 204q0 121 -85 205.5t-205 84.5t-204.5 -84.5t-84.5 -205.5q0 -119 84.5 -204t204.5 -85z" />
    <glyph glyph-name="uni0122" unicode="&#x122;" horiz-adv-x="1418" 
d="M715 649h628v-39q0 -128 -49.5 -244t-133.5 -199.5t-199.5 -133t-243.5 -49.5t-243.5 49.5t-199.5 133t-133.5 199.5t-49.5 244q0 127 49.5 243t133.5 199.5t200 133t243 49.5q173 0 318 -86.5t227 -231.5l-119 -67q-63 113 -176.5 180t-249.5 67q-100 0 -190 -38.5
t-155.5 -103.5t-104 -155t-38.5 -190q0 -134 65 -246t177.5 -177t245.5 -65q179 0 313.5 112.5t166.5 284.5h-482v130zM503 -386l122 286h167l-195 -286h-94z" />
    <glyph glyph-name="uni0123" unicode="&#x123;" horiz-adv-x="1068" 
d="M733 1219l-122 -286h-167l195 286h94zM785 813h135v-878q0 -217 -112.5 -328t-301.5 -111q-143 0 -253.5 79t-154.5 206l122 55q27 -91 105 -149t181 -58q281 0 281 306v163q-122 -114 -290 -114q-175 0 -298.5 123t-123.5 299q0 177 123 300t299 123q168 0 288 -112v96z
M497 117q120 0 205 85t85 204q0 121 -85 205.5t-205 84.5t-204.5 -84.5t-84.5 -205.5q0 -119 84.5 -204t204.5 -85z" />
    <glyph glyph-name="Hbar" unicode="&#x126;" horiz-adv-x="1307" 
d="M1235 1020v-95h-113v-925h-138v541h-661v-541h-138v925h-112v95h112v199h138v-199h661v199h138v-199h113zM984 679v246h-661v-246h661z" />
    <glyph glyph-name="hbar" unicode="&#x127;" horiz-adv-x="895" 
d="M457 829q129 0 219 -90.5t90 -219.5v-519h-134v519q0 75 -51.5 126t-125.5 51q-72 0 -123 -51t-51 -126v-519h-133v1155h-103v128h103v212h133v-212h242v-128h-242v-381q79 55 176 55z" />
    <glyph glyph-name="Imacron" unicode="&#x12a;" horiz-adv-x="508" 
d="M34 1384v92h439v-92h-439zM185 0v1219h138v-1219h-138z" />
    <glyph glyph-name="imacron" unicode="&#x12b;" horiz-adv-x="429" 
d="M-5 978v92h439v-92h-439zM148 0v813h133v-813h-133z" />
    <glyph glyph-name="Iogonek" unicode="&#x12e;" horiz-adv-x="508" 
d="M375 -273l45 -65q-88 -88 -219 -83q-83 4 -132.5 48t-49.5 121q0 75 50.5 134t144.5 118h-29v1219h138v-1219q-49 -27 -81.5 -49t-64.5 -51.5t-48 -64.5t-16 -76q0 -47 28.5 -77t79.5 -30q97 0 154 75z" />
    <glyph glyph-name="iogonek" unicode="&#x12f;" horiz-adv-x="429" 
d="M215 1055q-37 0 -64 26.5t-27 62.5q0 38 27 64.5t64 26.5t64 -26.5t27 -64.5q0 -36 -27 -62.5t-64 -26.5zM333 -273l45 -65q-88 -88 -219 -83q-83 4 -132.5 48t-49.5 121q0 75 50.5 134t144.5 118h-24v813h133v-813q-49 -27 -81.5 -49t-64.5 -51.5t-48 -64.5t-16 -76
q0 -47 28.5 -77t79.5 -30q97 0 154 75z" />
    <glyph glyph-name="Idotaccent" unicode="&#x130;" horiz-adv-x="508" 
d="M254 1461q-37 0 -64 26.5t-27 62.5q0 38 27 64.5t64 26.5t64 -26.5t27 -64.5q0 -36 -27 -62.5t-64 -26.5zM185 0v1219h138v-1219h-138z" />
    <glyph glyph-name="dotlessi" unicode="&#x131;" horiz-adv-x="429" 
d="M148 0v813h133v-813h-133z" />
    <glyph glyph-name="uni0136" unicode="&#x136;" horiz-adv-x="1128" 
d="M529 657l579 -657h-194l-503 593h-88v-593h-138v1219h138v-496h84l486 496h192zM358 -386l122 286h167l-195 -286h-94z" />
    <glyph glyph-name="uni0137" unicode="&#x137;" horiz-adv-x="838" 
d="M434 450l410 -450h-184l-379 433v-433h-133v1495h133v-1022l350 340h177zM237 -386l122 286h167l-195 -286h-94z" />
    <glyph glyph-name="Lacute" unicode="&#x139;" horiz-adv-x="800" 
d="M543 1625l-245 -301h-89l178 301h156zM323 138h450v-138h-588v1219h138v-1081z" />
    <glyph glyph-name="lacute" unicode="&#x13a;" horiz-adv-x="429" 
d="M170 1600l178 301h156l-245 -301h-89zM148 0v1495h133v-1495h-133z" />
    <glyph glyph-name="uni013B" unicode="&#x13b;" horiz-adv-x="800" 
d="M323 138h450v-138h-588v1219h138v-1081zM273 -386l122 286h167l-195 -286h-94z" />
    <glyph glyph-name="uni013C" unicode="&#x13c;" horiz-adv-x="429" 
d="M148 0v1495h133v-1495h-133zM9 -386l122 286h167l-195 -286h-94z" />
    <glyph glyph-name="Lcaron" unicode="&#x13d;" horiz-adv-x="800" 
d="M323 1219v-1081h450v-138h-588v1219h138zM851 1219l-252 -453h-112l211 453h153z" />
    <glyph glyph-name="lcaron" unicode="&#x13e;" horiz-adv-x="470" 
d="M123 0v1495h133v-1495h-133zM326 766l211 453h153l-252 -453h-112z" />
    <glyph glyph-name="Lslash" unicode="&#x141;" horiz-adv-x="800" 
d="M323 138h450v-138h-588v418l-72 -76v141l72 76v660h138v-514l163 173v-142l-163 -172v-426z" />
    <glyph glyph-name="lslash" unicode="&#x142;" horiz-adv-x="429" 
d="M401 872v-142l-120 -127v-603h-133v463l-120 -127v141l120 127v891h133v-750z" />
    <glyph glyph-name="Nacute" unicode="&#x143;" horiz-adv-x="1381" 
d="M979 1625l-245 -301h-89l178 301h156zM1059 1219h137v-1219h-130l-743 990v-990h-138v1219h130l744 -989v989z" />
    <glyph glyph-name="nacute" unicode="&#x144;" horiz-adv-x="903" 
d="M741 1219l-245 -301h-89l178 301h156zM473 829q119 0 210 -92t91 -220v-517h-133v517q0 75 -52 127t-127 52q-76 0 -128.5 -51.5t-52.5 -127.5v-517h-133v813h133v-62q83 78 192 78z" />
    <glyph glyph-name="uni0145" unicode="&#x145;" horiz-adv-x="1381" 
d="M1059 1219h137v-1219h-130l-743 990v-990h-138v1219h130l744 -989v989zM484 -386l122 286h167l-195 -286h-94z" />
    <glyph glyph-name="uni0146" unicode="&#x146;" horiz-adv-x="903" 
d="M473 829q119 0 210 -92t91 -220v-517h-133v517q0 75 -52 127t-127 52q-76 0 -128.5 -51.5t-52.5 -127.5v-517h-133v813h133v-62q83 78 192 78zM246 -386l122 286h167l-195 -286h-94z" />
    <glyph glyph-name="Ncaron" unicode="&#x147;" horiz-adv-x="1381" 
d="M757 1324h-137l-159 301h102l127 -213l125 213h103zM1059 1219h137v-1219h-130l-743 990v-990h-138v1219h130l744 -989v989z" />
    <glyph glyph-name="ncaron" unicode="&#x148;" horiz-adv-x="903" 
d="M519 918h-137l-159 301h102l127 -213l125 213h103zM473 829q119 0 210 -92t91 -220v-517h-133v517q0 75 -52 127t-127 52q-76 0 -128.5 -51.5t-52.5 -127.5v-517h-133v813h133v-62q83 78 192 78z" />
    <glyph glyph-name="Eng" unicode="&#x14a;" horiz-adv-x="1381" 
d="M1059 1219h137v-1396q0 -129 -55 -181t-180 -50v122q50 -2 77.5 23t27.5 97v166l-743 990v-990h-138v1219h130l744 -989v989z" />
    <glyph glyph-name="eng" unicode="&#x14b;" horiz-adv-x="903" 
d="M473 829q119 0 210 -92t91 -220v-727q0 -128 -56 -180t-181 -50v89q49 -2 76.5 23t27.5 97v748q0 75 -52 127t-127 52q-76 0 -128.5 -51.5t-52.5 -127.5v-517h-133v813h133v-62q83 78 192 78z" />
    <glyph glyph-name="Omacron" unicode="&#x14c;" horiz-adv-x="1434" 
d="M497 1384v92h439v-92h-439zM717 -16q-128 0 -243.5 49.5t-199.5 133t-133.5 199.5t-49.5 244q0 127 49.5 243t133.5 199.5t200 133t243 49.5t243 -49.5t200 -133t133.5 -199.5t49.5 -243q0 -128 -49.5 -244t-133.5 -199.5t-199.5 -133t-243.5 -49.5zM717 122
q203 0 345.5 142t142.5 346q0 203 -142.5 345t-345.5 142q-100 0 -190 -38.5t-155.5 -103.5t-104 -155t-38.5 -190q0 -134 65 -246t177.5 -177t245.5 -65z" />
    <glyph glyph-name="omacron" unicode="&#x14d;" horiz-adv-x="996" 
d="M277 978v92h439v-92h-439zM497 -16q-175 0 -298.5 123t-123.5 299t123.5 299.5t298.5 123.5q176 0 299.5 -123.5t123.5 -299.5t-123.5 -299t-299.5 -123zM497 117q120 0 205 84.5t85 204.5q0 121 -85 205.5t-205 84.5t-204.5 -84.5t-84.5 -205.5t84.5 -205t204.5 -84z
" />
    <glyph glyph-name="Ohungarumlaut" unicode="&#x150;" horiz-adv-x="1434" 
d="M540 1324l176 301h155l-243 -301h-88zM805 1324l176 301h155l-243 -301h-88zM717 -16q-128 0 -243.5 49.5t-199.5 133t-133.5 199.5t-49.5 244q0 127 49.5 243t133.5 199.5t200 133t243 49.5t243 -49.5t200 -133t133.5 -199.5t49.5 -243q0 -128 -49.5 -244t-133.5 -199.5
t-199.5 -133t-243.5 -49.5zM717 122q203 0 345.5 142t142.5 346q0 203 -142.5 345t-345.5 142q-100 0 -190 -38.5t-155.5 -103.5t-104 -155t-38.5 -190q0 -134 65 -246t177.5 -177t245.5 -65z" />
    <glyph glyph-name="ohungarumlaut" unicode="&#x151;" horiz-adv-x="996" 
d="M320 918l176 301h155l-243 -301h-88zM585 918l176 301h155l-243 -301h-88zM497 -16q-175 0 -298.5 123t-123.5 299t123.5 299.5t298.5 123.5q176 0 299.5 -123.5t123.5 -299.5t-123.5 -299t-299.5 -123zM497 117q120 0 205 84.5t85 204.5q0 121 -85 205.5t-205 84.5
t-204.5 -84.5t-84.5 -205.5t84.5 -205t204.5 -84z" />
    <glyph glyph-name="OE" unicode="&#x152;" horiz-adv-x="1663" 
d="M1574 1086h-535v-410h466v-133h-466v-410h535v-133h-649v20q-97 -36 -208 -36q-128 0 -243.5 49.5t-199.5 133t-133.5 199.5t-49.5 244q0 127 49.5 243t133.5 199.5t200 133t243 49.5q111 0 208 -36v20h649v-133zM719 117q108 0 206 46v893q-95 46 -206 46
q-135 0 -249 -65.5t-179.5 -179t-65.5 -247.5q0 -101 39 -192.5t105 -157t157.5 -104.5t192.5 -39z" />
    <glyph glyph-name="oe" unicode="&#x153;" horiz-adv-x="1707" 
d="M1635 413l-2 -28h-709q7 -113 90 -190.5t198 -77.5q88 0 159.5 46.5t105.5 124.5h142q-40 -134 -151.5 -219t-255.5 -85q-111 0 -205.5 53t-151.5 143q-57 -90 -152 -143t-206 -53q-175 0 -298.5 123t-123.5 299t123.5 299.5t298.5 123.5q112 0 206.5 -53t151.5 -144
q57 91 151.5 144t205.5 53q175 0 297 -120t126 -296zM497 117q120 0 205 84.5t85 204.5q0 121 -85 205.5t-205 84.5t-204.5 -84.5t-84.5 -205.5t84.5 -205t204.5 -84zM1212 696q-92 0 -166 -52.5t-105 -136.5h540q-30 84 -103.5 136.5t-165.5 52.5z" />
    <glyph glyph-name="Racute" unicode="&#x154;" horiz-adv-x="1093" 
d="M835 1625l-245 -301h-89l178 301h156zM687 554l357 -554h-156l-344 548h-221v-548h-138v1219h440q142 0 241.5 -99.5t99.5 -243.5q0 -122 -79.5 -212.5t-199.5 -109.5zM323 679h294q91 0 151 55.5t60 144.5q0 90 -60 146t-151 56h-294v-402z" />
    <glyph glyph-name="racute" unicode="&#x155;" horiz-adv-x="619" 
d="M289 918l178 301h156l-245 -301h-89zM148 0v813h133v-112q100 128 270 128q29 0 62 -5v-136q-36 8 -62 8q-113 0 -191.5 -75t-78.5 -187v-434h-133z" />
    <glyph glyph-name="uni0156" unicode="&#x156;" horiz-adv-x="1093" 
d="M687 554l357 -554h-156l-344 548h-221v-548h-138v1219h440q142 0 241.5 -99.5t99.5 -243.5q0 -122 -79.5 -212.5t-199.5 -109.5zM323 679h294q91 0 151 55.5t60 144.5q0 90 -60 146t-151 56h-294v-402zM340 -386l122 286h167l-195 -286h-94z" />
    <glyph glyph-name="uni0157" unicode="&#x157;" horiz-adv-x="619" 
d="M148 0v813h133v-112q100 128 270 128q29 0 62 -5v-136q-36 8 -62 8q-113 0 -191.5 -75t-78.5 -187v-434h-133zM9 -386l122 286h167l-195 -286h-94z" />
    <glyph glyph-name="Rcaron" unicode="&#x158;" horiz-adv-x="1093" 
d="M613 1324h-137l-159 301h102l127 -213l125 213h103zM687 554l357 -554h-156l-344 548h-221v-548h-138v1219h440q142 0 241.5 -99.5t99.5 -243.5q0 -122 -79.5 -212.5t-199.5 -109.5zM323 679h294q91 0 151 55.5t60 144.5q0 90 -60 146t-151 56h-294v-402z" />
    <glyph glyph-name="rcaron" unicode="&#x159;" horiz-adv-x="619" 
d="M264 918l-159 301h102l127 -213l125 213h103l-161 -301h-137zM148 0v813h133v-112q100 128 270 128q29 0 62 -5v-136q-36 8 -62 8q-113 0 -191.5 -75t-78.5 -187v-434h-133z" />
    <glyph glyph-name="Sacute" unicode="&#x15a;" horiz-adv-x="930" 
d="M420 1324l178 301h156l-245 -301h-89zM473 -16q-136 0 -243.5 67t-156.5 181l125 75q32 -85 104.5 -135t170.5 -50q103 0 170 52.5t67 144.5q0 53 -25.5 95t-66.5 68.5t-94 52t-108 46t-108 50.5t-94 65t-66.5 90.5t-25.5 125.5q0 146 97 234.5t244 88.5q108 0 198.5 -48
t141.5 -124l-101 -89q-95 123 -236 123q-89 0 -147.5 -45t-58.5 -129q0 -58 32.5 -101t84.5 -70.5t114.5 -52.5t125 -55.5t114.5 -69t84.5 -102.5t32.5 -149q0 -155 -106.5 -247t-268.5 -92z" />
    <glyph glyph-name="sacute" unicode="&#x15b;" horiz-adv-x="688" 
d="M300 918l178 301h156l-245 -301h-89zM354 -16q-98 0 -179.5 52t-104.5 127l128 52q9 -43 54.5 -71.5t101.5 -28.5q54 0 90.5 28.5t36.5 77.5q0 45 -31 68t-115 57q-59 25 -96.5 45.5t-70 49.5t-47.5 66t-15 85q0 109 70 173t167 64q79 0 148.5 -40.5t92.5 -97.5l-117 -60
q-31 65 -119 65q-49 0 -78 -24.5t-29 -71.5t31 -71.5t115 -58.5q40 -16 65.5 -28.5t59.5 -35t54 -46.5t34.5 -59.5t14.5 -77.5q0 -105 -75.5 -172t-185.5 -67z" />
    <glyph glyph-name="Scedilla" unicode="&#x15e;" horiz-adv-x="930" 
d="M848 323q0 -151 -102 -242.5t-259 -96.5l-44 -91q83 16 141.5 -27t58.5 -120q0 -71 -48.5 -120t-118.5 -49q-56 0 -111 31.5t-78 76.5l73 29q17 -24 51 -40.5t65 -16.5q36 0 61.5 26t25.5 63q0 55 -45.5 75.5t-111.5 -5.5l-64 41l68 131q-116 15 -205 79.5t-132 164.5
l125 75q32 -85 104.5 -135t170.5 -50q103 0 170 52.5t67 144.5q0 53 -25.5 95t-66.5 68.5t-94 52t-108 46t-108 50.5t-94 65t-66.5 90.5t-25.5 125.5q0 146 97 234.5t244 88.5q108 0 198.5 -48t141.5 -124l-101 -89q-95 123 -236 123q-89 0 -147.5 -45t-58.5 -129
q0 -58 32.5 -101t84.5 -70.5t114.5 -52.5t125 -55.5t114.5 -69t84.5 -102.5t32.5 -149z" />
    <glyph glyph-name="scedilla" unicode="&#x15f;" horiz-adv-x="688" 
d="M615 223q0 -102 -71.5 -168t-176.5 -71l-44 -91q83 16 141.5 -27t58.5 -120q0 -71 -48.5 -120t-118.5 -49q-56 0 -111 31.5t-78 76.5l73 29q17 -24 51 -40.5t65 -16.5q36 0 61.5 26t25.5 63q0 55 -45.5 75.5t-111.5 -5.5l-64 41l69 133q-79 15 -140.5 62.5t-80.5 110.5
l128 52q9 -43 54.5 -71.5t101.5 -28.5q54 0 90.5 28.5t36.5 77.5q0 45 -31 68t-115 57q-59 25 -96.5 45.5t-70 49.5t-47.5 66t-15 85q0 109 70 173t167 64q79 0 148.5 -40.5t92.5 -97.5l-117 -60q-31 65 -119 65q-49 0 -78 -24.5t-29 -71.5t31 -71.5t115 -58.5
q40 -16 65.5 -28.5t59.5 -35t54 -46.5t34.5 -59.5t14.5 -77.5z" />
    <glyph glyph-name="Scaron" unicode="&#x160;" horiz-adv-x="930" 
d="M395 1324l-159 301h102l127 -213l125 213h103l-161 -301h-137zM473 -16q-136 0 -243.5 67t-156.5 181l125 75q32 -85 104.5 -135t170.5 -50q103 0 170 52.5t67 144.5q0 53 -25.5 95t-66.5 68.5t-94 52t-108 46t-108 50.5t-94 65t-66.5 90.5t-25.5 125.5q0 146 97 234.5
t244 88.5q108 0 198.5 -48t141.5 -124l-101 -89q-95 123 -236 123q-89 0 -147.5 -45t-58.5 -129q0 -58 32.5 -101t84.5 -70.5t114.5 -52.5t125 -55.5t114.5 -69t84.5 -102.5t32.5 -149q0 -155 -106.5 -247t-268.5 -92z" />
    <glyph glyph-name="scaron" unicode="&#x161;" horiz-adv-x="688" 
d="M275 918l-159 301h102l127 -213l125 213h103l-161 -301h-137zM354 -16q-98 0 -179.5 52t-104.5 127l128 52q9 -43 54.5 -71.5t101.5 -28.5q54 0 90.5 28.5t36.5 77.5q0 45 -31 68t-115 57q-59 25 -96.5 45.5t-70 49.5t-47.5 66t-15 85q0 109 70 173t167 64
q79 0 148.5 -40.5t92.5 -97.5l-117 -60q-31 65 -119 65q-49 0 -78 -24.5t-29 -71.5t31 -71.5t115 -58.5q40 -16 65.5 -28.5t59.5 -35t54 -46.5t34.5 -59.5t14.5 -77.5q0 -105 -75.5 -172t-185.5 -67z" />
    <glyph glyph-name="uni0162" unicode="&#x162;" horiz-adv-x="861" 
d="M499 0h-38l-52 -107q83 16 141.5 -27t58.5 -120q0 -71 -48.5 -120t-118.5 -49q-56 0 -111 31.5t-78 76.5l73 29q17 -24 51 -40.5t65 -16.5q36 0 61.5 26t25.5 63q0 55 -45.5 75.5t-111.5 -5.5l-64 41l74 143h-21v1081h-334v138h807v-138h-335v-1081z" />
    <glyph glyph-name="uni0163" unicode="&#x163;" horiz-adv-x="579" 
d="M353 -107q83 16 141.5 -27t58.5 -120q0 -71 -48.5 -120t-118.5 -49q-56 0 -111 31.5t-78 76.5l73 29q17 -24 51 -40.5t65 -16.5q36 0 61.5 26t25.5 63q0 55 -45.5 75.5t-111.5 -5.5l-64 41l74 143q-67 25 -110 84.5t-43 133.5v465h-136v130h136v352h133v-352h216v-130
h-216v-447q0 -54 35.5 -88t85.5 -34h92v-104q-36 -26 -109 -26h-13z" />
    <glyph glyph-name="Tcaron" unicode="&#x164;" horiz-adv-x="861" 
d="M498 1324h-137l-159 301h102l127 -213l125 213h103zM834 1219v-138h-335v-1081h-138v1081h-334v138h807z" />
    <glyph glyph-name="tcaron" unicode="&#x165;" horiz-adv-x="579" 
d="M743 1443h153l-252 -453h-112zM306 1165v-352h216v-130h-216v-447q0 -54 35.5 -88t85.5 -34h92v-104q-36 -26 -109 -26q-97 0 -167 68.5t-70 165.5v465h-136v130h136v352h133z" />
    <glyph glyph-name="Tbar" unicode="&#x166;" horiz-adv-x="861" 
d="M834 1081h-335v-407h171v-128h-171v-546h-138v546h-169v128h169v407h-334v138h807v-138z" />
    <glyph glyph-name="tbar" unicode="&#x167;" horiz-adv-x="579" 
d="M540 343h-234v-107q0 -54 35.5 -88t85.5 -34h92v-104q-36 -26 -109 -26q-97 0 -167 68.5t-70 165.5v125h-129v128h129v212h-136v130h136v352h133v-352h216v-130h-216v-212h234v-128z" />
    <glyph glyph-name="Umacron" unicode="&#x16a;" horiz-adv-x="1244" 
d="M403 1384v92h439v-92h-439zM621 -16q-200 0 -330 117.5t-130 298.5v819h138v-796q0 -131 91 -216t231 -85t232 85.5t92 215.5v796h138v-819q0 -181 -130.5 -298.5t-331.5 -117.5z" />
    <glyph glyph-name="umacron" unicode="&#x16b;" horiz-adv-x="880" 
d="M220 978v92h439v-92h-439zM440 -16q-143 0 -225 76t-82 223v530h133v-516q0 -92 47 -136t127 -44q81 0 127.5 44t46.5 136v516h132v-530q0 -147 -82 -223t-224 -76z" />
    <glyph glyph-name="Uring" unicode="&#x16e;" horiz-adv-x="1244" 
d="M624 1295q-70 0 -121 50.5t-51 120.5t50.5 120t121.5 50q69 0 119 -50t50 -120t-50 -120.5t-119 -50.5zM624 1367q40 0 68.5 28.5t28.5 70.5q0 40 -29 70.5t-68 30.5q-41 0 -69.5 -30.5t-28.5 -70.5q0 -42 28 -70.5t70 -28.5zM621 -16q-200 0 -330 117.5t-130 298.5v819
h138v-796q0 -131 91 -216t231 -85t232 85.5t92 215.5v796h138v-819q0 -181 -130.5 -298.5t-331.5 -117.5z" />
    <glyph glyph-name="uring" unicode="&#x16f;" horiz-adv-x="880" 
d="M441 889q-70 0 -121 50.5t-51 120.5t50.5 120t121.5 50q69 0 119 -50t50 -120t-50 -120.5t-119 -50.5zM441 961q40 0 68.5 28.5t28.5 70.5q0 40 -29 70.5t-68 30.5q-41 0 -69.5 -30.5t-28.5 -70.5q0 -42 28.5 -70.5t69.5 -28.5zM440 -16q-143 0 -225 76t-82 223v530h133
v-516q0 -92 47 -136t127 -44q81 0 127.5 44t46.5 136v516h132v-530q0 -147 -82 -223t-224 -76z" />
    <glyph glyph-name="Uhungarumlaut" unicode="&#x170;" horiz-adv-x="1244" 
d="M446 1324l176 301h155l-243 -301h-88zM711 1324l176 301h155l-243 -301h-88zM621 -16q-200 0 -330 117.5t-130 298.5v819h138v-796q0 -131 91 -216t231 -85t232 85.5t92 215.5v796h138v-819q0 -181 -130.5 -298.5t-331.5 -117.5z" />
    <glyph glyph-name="uhungarumlaut" unicode="&#x171;" horiz-adv-x="880" 
d="M263 918l176 301h155l-243 -301h-88zM528 918l176 301h155l-243 -301h-88zM440 -16q-143 0 -225 76t-82 223v530h133v-516q0 -92 47 -136t127 -44q81 0 127.5 44t46.5 136v516h132v-530q0 -147 -82 -223t-224 -76z" />
    <glyph glyph-name="Uogonek" unicode="&#x172;" horiz-adv-x="1244" 
d="M945 1219h138v-819q0 -150 -93 -259.5t-246 -143.5q-99 -55 -152 -108.5t-53 -129.5q0 -47 28.5 -77t79.5 -30q97 0 154 75l45 -65q-88 -88 -219 -83q-83 4 -132.5 48t-49.5 121q0 70 44 126t126 110q-197 2 -325.5 119.5t-128.5 296.5v819h138v-796q0 -131 91 -216
t231 -85t232 85.5t92 215.5v796z" />
    <glyph glyph-name="uogonek" unicode="&#x173;" horiz-adv-x="880" 
d="M614 813h132v-530q0 -116 -51.5 -188t-144.5 -97q-65 -37 -104.5 -65.5t-70.5 -74.5t-31 -99q0 -47 28.5 -77t79.5 -30q97 0 154 75l45 -65q-88 -88 -219 -83q-83 4 -132.5 48t-49.5 121q0 70 44 126.5t127 109.5q-134 5 -211 81t-77 218v530h133v-516q0 -92 47 -136
t127 -44q81 0 127.5 44t46.5 136v516z" />
    <glyph glyph-name="Wcircumflex" unicode="&#x174;" horiz-adv-x="1751" 
d="M648 1324l160 301h136l161 -301h-102l-125 213l-127 -213h-103zM421 0l-380 1219h146l307 -983l283 983h195l289 -984l306 984h143l-377 -1219h-146l-313 1070l-306 -1070h-147z" />
    <glyph glyph-name="wcircumflex" unicode="&#x175;" horiz-adv-x="1320" 
d="M662 1131l-127 -213h-103l160 301h136l161 -301h-102zM1152 813h146l-278 -813h-146l-213 629l-213 -629h-146l-280 813h151l207 -651l218 651h126l218 -653z" />
    <glyph glyph-name="Ycircumflex" unicode="&#x176;" horiz-adv-x="1016" 
d="M279 1324l160 301h136l161 -301h-102l-125 213l-127 -213h-103zM440 0v574l-426 645h172l323 -499l324 499h169l-424 -642v-577h-138z" />
    <glyph glyph-name="ycircumflex" unicode="&#x177;" horiz-adv-x="826" 
d="M414 1131l-127 -213h-103l160 301h136l161 -301h-102zM663 813h151l-351 -878l-170 -423h-143l194 480l-333 821h148l257 -659z" />
    <glyph glyph-name="Ydieresis" unicode="&#x178;" horiz-adv-x="1016" 
d="M356 1461q-37 0 -64 26.5t-27 62.5q0 38 27 64.5t64 26.5t64 -26.5t27 -64.5q0 -36 -27 -62.5t-64 -26.5zM659 1461q-37 0 -64 26.5t-27 62.5q0 38 27 64.5t64 26.5t64 -26.5t27 -64.5q0 -36 -27 -62.5t-64 -26.5zM440 0v574l-426 645h172l323 -499l324 499h169
l-424 -642v-577h-138z" />
    <glyph glyph-name="Zacute" unicode="&#x179;" horiz-adv-x="1010" 
d="M794 1625l-245 -301h-89l178 301h156zM285 138h678v-138h-923l655 1081h-605v138h850z" />
    <glyph glyph-name="zacute" unicode="&#x17a;" horiz-adv-x="779" 
d="M678 1219l-245 -301h-89l178 301h156zM736 813l-457 -680h454v-133h-702l456 679h-423v134h672z" />
    <glyph glyph-name="Zdotaccent" unicode="&#x17b;" horiz-adv-x="1010" 
d="M505 1461q-37 0 -64 26.5t-27 62.5q0 38 27 64.5t64 26.5t64 -26.5t27 -64.5q0 -36 -27 -62.5t-64 -26.5zM285 138h678v-138h-923l655 1081h-605v138h850z" />
    <glyph glyph-name="zdotaccent" unicode="&#x17c;" horiz-adv-x="779" 
d="M389 1055q-37 0 -64 26.5t-27 62.5q0 38 27 64.5t64 26.5t64 -26.5t27 -64.5q0 -36 -27 -62.5t-64 -26.5zM736 813l-457 -680h454v-133h-702l456 679h-423v134h672z" />
    <glyph glyph-name="Zcaron" unicode="&#x17d;" horiz-adv-x="1010" 
d="M572 1324h-137l-159 301h102l127 -213l125 213h103zM285 138h678v-138h-923l655 1081h-605v138h850z" />
    <glyph glyph-name="zcaron" unicode="&#x17e;" horiz-adv-x="779" 
d="M456 918h-137l-159 301h102l127 -213l125 213h103zM736 813l-457 -680h454v-133h-702l456 679h-423v134h672z" />
    <glyph glyph-name="florin" unicode="&#x192;" horiz-adv-x="818" 
d="M639 1135q-62 0 -107 -41t-56 -106l-28 -175h228l-15 -104h-229l-177 -1115h-120l176 1115h-137l16 104h137l30 191q16 98 94.5 164.5t175.5 66.5q67 0 106 -27l-13 -101q-31 28 -81 28z" />
    <glyph glyph-name="uni0218" unicode="&#x218;" horiz-adv-x="930" 
d="M473 -16q-136 0 -243.5 67t-156.5 181l125 75q32 -85 104.5 -135t170.5 -50q103 0 170 52.5t67 144.5q0 53 -25.5 95t-66.5 68.5t-94 52t-108 46t-108 50.5t-94 65t-66.5 90.5t-25.5 125.5q0 146 97 234.5t244 88.5q108 0 198.5 -48t141.5 -124l-101 -89
q-95 123 -236 123q-89 0 -147.5 -45t-58.5 -129q0 -58 32.5 -101t84.5 -70.5t114.5 -52.5t125 -55.5t114.5 -69t84.5 -102.5t32.5 -149q0 -155 -106.5 -247t-268.5 -92zM259 -386l122 286h167l-195 -286h-94z" />
    <glyph glyph-name="uni0219" unicode="&#x219;" horiz-adv-x="688" 
d="M354 -16q-98 0 -179.5 52t-104.5 127l128 52q9 -43 54.5 -71.5t101.5 -28.5q54 0 90.5 28.5t36.5 77.5q0 45 -31 68t-115 57q-59 25 -96.5 45.5t-70 49.5t-47.5 66t-15 85q0 109 70 173t167 64q79 0 148.5 -40.5t92.5 -97.5l-117 -60q-31 65 -119 65q-49 0 -78 -24.5
t-29 -71.5t31 -71.5t115 -58.5q40 -16 65.5 -28.5t59.5 -35t54 -46.5t34.5 -59.5t14.5 -77.5q0 -105 -75.5 -172t-185.5 -67zM139 -386l122 286h167l-195 -286h-94z" />
    <glyph glyph-name="uni021A" unicode="&#x21a;" horiz-adv-x="861" 
d="M27 1219h807v-138h-335v-1081h-138v1081h-334v138zM225 -386l122 286h167l-195 -286h-94z" />
    <glyph glyph-name="uni021B" unicode="&#x21b;" horiz-adv-x="579" 
d="M522 683h-216v-447q0 -54 35.5 -88t85.5 -34h92v-104q-36 -26 -109 -26q-97 0 -167 68.5t-70 165.5v465h-136v130h136v352h133v-352h216v-130zM169 -386l122 286h167l-195 -286h-94z" />
    <glyph glyph-name="uni0237" unicode="&#x237;" horiz-adv-x="429" 
d="M44 -553q-70 0 -109 26v104h93q49 0 84.5 34t35.5 88v1114h133v-1132q0 -97 -70 -165.5t-167 -68.5z" />
    <glyph glyph-name="circumflex" unicode="&#x2c6;" horiz-adv-x="593" 
d="M68 918l160 301h136l161 -301h-102l-125 213l-127 -213h-103z" />
    <glyph glyph-name="caron" unicode="&#x2c7;" horiz-adv-x="594" 
d="M228 918l-159 301h102l127 -213l125 213h103l-161 -301h-137z" />
    <glyph glyph-name="breve" unicode="&#x2d8;" horiz-adv-x="741" 
d="M369 969q-118 0 -193 68t-75 182h82q0 -69 53 -117.5t133 -48.5q81 0 134 48.5t53 117.5h83q0 -114 -75.5 -182t-194.5 -68z" />
    <glyph glyph-name="dotaccent" unicode="&#x2d9;" horiz-adv-x="442" 
d="M221 1055q-37 0 -64 26.5t-27 62.5q0 38 27 64.5t64 26.5t64 -26.5t27 -64.5q0 -36 -27 -62.5t-64 -26.5z" />
    <glyph glyph-name="ring" unicode="&#x2da;" horiz-adv-x="570" 
d="M286 889q-70 0 -121 50.5t-51 120.5t50.5 120t121.5 50q69 0 119 -50t50 -120t-50 -120.5t-119 -50.5zM286 961q40 0 68.5 28.5t28.5 70.5q0 40 -29 70.5t-68 30.5q-41 0 -69.5 -30.5t-28.5 -70.5q0 -42 28 -70.5t70 -28.5z" />
    <glyph glyph-name="ogonek" unicode="&#x2db;" horiz-adv-x="544" 
d="M276 -421q-83 4 -132.5 48t-49.5 121q0 82 60 145.5t174 129.5l70 -23q-49 -27 -81.5 -49t-64.5 -51.5t-48 -64.5t-16 -76q0 -47 28.5 -77t79.5 -30q97 0 154 75l45 -65q-88 -88 -219 -83z" />
    <glyph glyph-name="tilde" unicode="&#x2dc;" horiz-adv-x="800" 
d="M508 995q-90 0 -149 89q-28 44 -65 44t-57.5 -36t-20.5 -91h-99q0 98 47 161.5t127 63.5q84 0 149 -90q31 -44 68 -44q77 0 77 127h97q0 -98 -45.5 -161t-128.5 -63z" />
    <glyph glyph-name="hungarumlaut" unicode="&#x2dd;" horiz-adv-x="424" 
d="M59 918l178 301h156l-245 -301h-89z" />
    <glyph glyph-name="gravecomb" unicode="&#x300;" 
d="M-148 918l-245 301h156l178 -301h-89z" />
    <glyph glyph-name="acutecomb" unicode="&#x301;" 
d="M-365 918l178 301h156l-245 -301h-89z" />
    <glyph glyph-name="uni0302" unicode="&#x302;" 
d="M-525 918l160 301h136l161 -301h-102l-125 213l-127 -213h-103z" />
    <glyph glyph-name="tildecomb" unicode="&#x303;" 
d="M-292 995q-41 0 -75.5 21t-53.5 45.5t-42 45.5t-43 21q-37 0 -57.5 -36t-20.5 -91h-99q0 98 47 161.5t127 63.5q39 0 73 -21t54 -46t44.5 -46t45.5 -21q77 0 77 127h97q0 -98 -45.5 -161t-128.5 -63z" />
    <glyph glyph-name="uni0304" unicode="&#x304;" 
d="M-587 978v92h439v-92h-439z" />
    <glyph glyph-name="uni0306" unicode="&#x306;" 
d="M-372 969q-118 0 -193 68t-75 182h82q0 -69 53 -117.5t133 -48.5q81 0 134 48.5t53 117.5h83q0 -114 -75.5 -182t-194.5 -68z" />
    <glyph glyph-name="uni0307" unicode="&#x307;" 
d="M-221 1055q-37 0 -64 26.5t-27 62.5q0 38 27 64.5t64 26.5t64 -26.5t27 -64.5q0 -36 -27 -62.5t-64 -26.5z" />
    <glyph glyph-name="uni0308" unicode="&#x308;" 
d="M-524 1055q-37 0 -64 26.5t-27 62.5q0 38 27 64.5t64 26.5t64 -26.5t27 -64.5q0 -36 -27 -62.5t-64 -26.5zM-221 1055q-37 0 -64 26.5t-27 62.5q0 38 27 64.5t64 26.5t64 -26.5t27 -64.5q0 -36 -27 -62.5t-64 -26.5z" />
    <glyph glyph-name="uni030A" unicode="&#x30a;" 
d="M-284 889q-70 0 -121 50.5t-51 120.5t50.5 120t121.5 50q69 0 119 -50t50 -120t-50 -120.5t-119 -50.5zM-284 961q40 0 68.5 28.5t28.5 70.5q0 40 -29 70.5t-68 30.5q-41 0 -69.5 -30.5t-28.5 -70.5q0 -42 28 -70.5t70 -28.5z" />
    <glyph glyph-name="uni030B" unicode="&#x30b;" 
d="M-628 918l176 301h155l-243 -301h-88zM-363 918l176 301h155l-243 -301h-88z" />
    <glyph glyph-name="uni030C" unicode="&#x30c;" 
d="M-366 918l-159 301h102l127 -213l125 213h103l-161 -301h-137z" />
    <glyph glyph-name="uni0312" unicode="&#x312;" 
d="M-377 933l195 286h94l-122 -286h-167z" />
    <glyph glyph-name="dotbelowcomb" unicode="&#x323;" 
d="M-221 -406q-37 0 -64 26.5t-27 64.5q0 36 27 63.5t64 27.5t64 -27.5t27 -63.5q0 -38 -27 -64.5t-64 -26.5z" />
    <glyph glyph-name="uni0326" unicode="&#x326;" 
d="M-340 -386l122 286h167l-195 -286h-94z" />
    <glyph glyph-name="uni0327" unicode="&#x327;" 
d="M-261 -423q-56 0 -111 31.5t-78 76.5l73 29q17 -24 51 -40.5t65 -16.5q36 0 61.5 26t25.5 63q0 55 -45.5 75.5t-111.5 -5.5l-64 41l74 143h79l-52 -107q83 16 141.5 -27t58.5 -120q0 -71 -48.5 -120t-118.5 -49z" />
    <glyph glyph-name="uni0328" unicode="&#x328;" 
d="M-268 -421q-83 4 -132.5 48t-49.5 121q0 82 60 145.5t174 129.5l70 -23q-49 -27 -81.5 -49t-64.5 -51.5t-48 -64.5t-16 -76q0 -47 28.5 -77t79.5 -30q97 0 154 75l45 -65q-88 -88 -219 -83z" />
    <glyph glyph-name="uni0335" unicode="&#x335;" 
d="M-626 361v128h478v-128h-478z" />
    <glyph glyph-name="uni0336" unicode="&#x336;" 
d="M-1310 375v95h1162v-95h-1162z" />
    <glyph glyph-name="uni0337" unicode="&#x337;" 
d="M-415 145v141l373 395v-142z" />
    <glyph glyph-name="uni0338" unicode="&#x338;" 
d="M-632 -76l-102 61l642 920l100 -63z" />
    <glyph glyph-name="uni0394" unicode="&#x394;" horiz-adv-x="1190" 
d="M672 1219l489 -1219h-1132l489 1219h154zM228 122h734l-366 940z" />
    <glyph glyph-name="uni03A9" unicode="&#x3a9;" horiz-adv-x="1449" 
d="M101 0v99h276v12q-106 83 -177.5 221t-71.5 305q0 163 77 296.5t215 210.5t310 77q132 0 244 -48t187.5 -128.5t117.5 -185.5t42 -219q0 -167 -74.5 -310t-177.5 -219v-12h280v-99h-473v73q131 67 222.5 211.5t91.5 336.5q0 91 -31 179t-87 160t-145 116t-196 44
q-138 0 -247 -68t-166.5 -182t-57.5 -252q0 -186 92.5 -333.5t219.5 -211.5v-73h-471z" />
    <glyph glyph-name="uni03BC" unicode="&#x3bc;" horiz-adv-x="1006" 
d="M725 813h133v-813h-133v121q-45 -64 -113 -100.5t-147 -36.5q-125 0 -215 85v-475h-102v1219h133v-493q0 -90 64.5 -154t155.5 -64q92 0 158 64t66 154v493z" />
    <glyph glyph-name="pi" unicode="&#x3c0;" horiz-adv-x="1059" 
d="M106 0q51 131 92.5 360.5t50.5 422.5q-167 0 -234 -24l-15 78q82 47 273 47h790l-11 -101h-166v-520q0 -177 28 -263h-126q-29 50 -29 247v536l-383 2q-10 -186 -53 -430t-94 -355h-123z" />
    <glyph glyph-name="Wgrave" unicode="&#x1e80;" horiz-adv-x="1751" 
d="M832 1324l-245 301h156l178 -301h-89zM421 0l-380 1219h146l307 -983l283 983h195l289 -984l306 984h143l-377 -1219h-146l-313 1070l-306 -1070h-147z" />
    <glyph glyph-name="wgrave" unicode="&#x1e81;" horiz-adv-x="1320" 
d="M705 918h-89l-245 301h156zM1152 813h146l-278 -813h-146l-213 629l-213 -629h-146l-280 813h151l207 -651l218 651h126l218 -653z" />
    <glyph glyph-name="Wacute" unicode="&#x1e82;" horiz-adv-x="1751" 
d="M832 1324l178 301h156l-245 -301h-89zM421 0l-380 1219h146l307 -983l283 983h195l289 -984l306 984h143l-377 -1219h-146l-313 1070l-306 -1070h-147z" />
    <glyph glyph-name="wacute" unicode="&#x1e83;" horiz-adv-x="1320" 
d="M950 1219l-245 -301h-89l178 301h156zM1152 813h146l-278 -813h-146l-213 629l-213 -629h-146l-280 813h151l207 -651l218 651h126l218 -653z" />
    <glyph glyph-name="Wdieresis" unicode="&#x1e84;" horiz-adv-x="1751" 
d="M725 1461q-37 0 -64 26.5t-27 62.5q0 38 27 64.5t64 26.5t64 -26.5t27 -64.5q0 -36 -27 -62.5t-64 -26.5zM1028 1461q-37 0 -64 26.5t-27 62.5q0 38 27 64.5t64 26.5t64 -26.5t27 -64.5q0 -36 -27 -62.5t-64 -26.5zM421 0l-380 1219h146l307 -983l283 983h195l289 -984
l306 984h143l-377 -1219h-146l-313 1070l-306 -1070h-147z" />
    <glyph glyph-name="wdieresis" unicode="&#x1e85;" horiz-adv-x="1320" 
d="M509 1055q-37 0 -64 26.5t-27 62.5q0 38 27 64.5t64 26.5t64 -26.5t27 -64.5q0 -36 -27 -62.5t-64 -26.5zM812 1055q-37 0 -64 26.5t-27 62.5q0 38 27 64.5t64 26.5t64 -26.5t27 -64.5q0 -36 -27 -62.5t-64 -26.5zM1152 813h146l-278 -813h-146l-213 629l-213 -629h-146
l-280 813h151l207 -651l218 651h126l218 -653z" />
    <glyph glyph-name="uni1E9E" unicode="&#x1e9e;" horiz-adv-x="1119" 
d="M164 0v790q0 215 106 322t280 107h440l-288 -512q149 -10 241.5 -107t92.5 -247q0 -153 -92.5 -253t-226.5 -100h-283v138h260q86 0 146.5 58t60.5 157q0 107 -61 164t-170 57h-109v135l206 375h-216q-119 0 -186 -66.5t-67 -227.5v-790h-134z" />
    <glyph glyph-name="Ygrave" unicode="&#x1ef2;" horiz-adv-x="1016" 
d="M463 1324l-245 301h156l178 -301h-89zM440 0v574l-426 645h172l323 -499l324 499h169l-424 -642v-577h-138z" />
    <glyph glyph-name="ygrave" unicode="&#x1ef3;" horiz-adv-x="826" 
d="M457 918h-89l-245 301h156zM663 813h151l-351 -878l-170 -423h-143l194 480l-333 821h148l257 -659z" />
    <glyph glyph-name="endash" unicode="&#x2013;" horiz-adv-x="1109" 
d="M148 358v130h813v-130h-813z" />
    <glyph glyph-name="emdash" unicode="&#x2014;" horiz-adv-x="1921" 
d="M148 358v130h1625v-130h-1625z" />
    <glyph glyph-name="quoteleft" unicode="&#x2018;" horiz-adv-x="497" 
d="M59 766l252 453h112l-211 -453h-153z" />
    <glyph glyph-name="quoteright" unicode="&#x2019;" horiz-adv-x="496" 
d="M73 766l211 453h153l-252 -453h-112z" />
    <glyph glyph-name="quotesinglbase" unicode="&#x201a;" horiz-adv-x="498" 
d="M74 -249l211 454h153l-252 -454h-112z" />
    <glyph glyph-name="quotedblleft" unicode="&#x201c;" horiz-adv-x="764" 
d="M59 766l252 453h112l-211 -453h-153zM326 766l252 453h112l-212 -453h-152z" />
    <glyph glyph-name="quotedblright" unicode="&#x201d;" horiz-adv-x="762" 
d="M73 766l211 453h153l-252 -453h-112zM339 766l212 453h152l-252 -453h-112z" />
    <glyph glyph-name="quotedblbase" unicode="&#x201e;" horiz-adv-x="764" 
d="M74 -249l211 454h153l-252 -454h-112zM340 -249l212 454h152l-252 -454h-112z" />
    <glyph glyph-name="dagger" unicode="&#x2020;" horiz-adv-x="789" 
d="M721 769v-91h-284v-954h-91v954h-278v91h278v320h91v-320h284z" />
    <glyph glyph-name="daggerdbl" unicode="&#x2021;" horiz-adv-x="869" 
d="M761 678h-284v-537h284v-89h-284v-328h-91v328h-278v89h278v537h-278v91h278v320h91v-320h284v-91z" />
    <glyph glyph-name="bullet" unicode="&#x2022;" horiz-adv-x="870" 
d="M435 254q-116 0 -200 82.5t-84 199.5q0 116 84.5 200.5t199.5 84.5q114 0 198.5 -84.5t84.5 -200.5q0 -117 -84.5 -199.5t-198.5 -82.5z" />
    <glyph glyph-name="ellipsis" unicode="&#x2026;" horiz-adv-x="1502" 
d="M301 -16q-47 0 -82 34.5t-35 82.5q0 47 35 82t82 35t82 -35t35 -82q0 -48 -35 -82.5t-82 -34.5zM745 -16q-47 0 -82 34.5t-35 82.5q0 47 35 82t82 35t82 -35t35 -82q0 -48 -35 -82.5t-82 -34.5zM1200 -16q-47 0 -82 34.5t-35 82.5q0 47 35 82t82 35t82 -35t35 -82
q0 -48 -35 -82.5t-82 -34.5z" />
    <glyph glyph-name="perthousand" unicode="&#x2030;" horiz-adv-x="1745" 
d="M331 725q-93 0 -158 74t-65 179q0 107 65 182t158 75q91 0 155 -75.5t64 -181.5q0 -104 -64 -178.5t-155 -74.5zM132 0l836 1219h140l-836 -1219h-140zM331 829q46 0 81.5 44t35.5 105q0 64 -35 108.5t-82 44.5q-48 0 -82.5 -44t-34.5 -109q0 -61 34.5 -105t82.5 -44z
M911 -16q-93 0 -157 75t-64 182q0 105 64 179t157 74q92 0 156.5 -74t64.5 -179q0 -107 -64.5 -182t-156.5 -75zM1436 -16q-93 0 -158 75t-65 182q0 105 65 179t158 74q91 0 155 -74t64 -179q0 -107 -64 -182t-155 -75zM911 88q47 0 81 44.5t34 108.5q0 61 -34 105t-81 44
q-48 0 -82.5 -44t-34.5 -105q0 -65 34.5 -109t82.5 -44zM1434 88q48 0 82 44t34 109q0 62 -34 105.5t-82 43.5q-47 0 -82 -44t-35 -105q0 -64 34.5 -108.5t82.5 -44.5z" />
    <glyph glyph-name="guilsinglleft" unicode="&#x2039;" horiz-adv-x="481" 
d="M308 154l-247 299l247 300h113l-247 -300l247 -299h-113z" />
    <glyph glyph-name="guilsinglright" unicode="&#x203a;" horiz-adv-x="482" 
d="M60 154l247 299l-247 300h114l247 -300l-247 -299h-114z" />
    <glyph glyph-name="fraction" unicode="&#x2044;" horiz-adv-x="458" 
d="M-250 0l851 1219h107l-850 -1219h-108z" />
    <glyph glyph-name="Euro" unicode="&#x20ac;" horiz-adv-x="1340" 
d="M862 122q93 0 182.5 36.5t155.5 101.5v-175q-165 -101 -338 -101q-205 0 -366.5 117t-225.5 304h-141v123h112q-5 45 -5 82q0 40 4 71h-111v124h138q62 191 224.5 310.5t370.5 119.5q173 0 327 -96l-43 -135q-128 93 -284 93q-150 0 -271 -80t-177 -212h669l-39 -124
h-665q-5 -38 -5 -71q0 -44 7 -82h616l-39 -123h-540q58 -128 177.5 -205.5t266.5 -77.5z" />
    <glyph glyph-name="trademark" unicode="&#x2122;" horiz-adv-x="1418" 
d="M110 1144v75h392v-75h-155v-495h-84v495h-153zM1106 1219h90v-570h-83v439l-212 -314l-209 309v-434h-85v570h91l204 -304z" />
    <glyph glyph-name="partialdiff" unicode="&#x2202;" horiz-adv-x="953" 
d="M303 1146q140 20 256.5 -55t182.5 -223t65 -335q-1 -221 -112.5 -371.5t-274.5 -150.5q-94 0 -164 36.5t-105 101t-38 152t36 188.5q69 185 214.5 255.5t299.5 1.5q-41 163 -139.5 248t-220.5 54v98zM687 533q0 61 -5 102q-128 84 -245 35.5t-178 -212.5
q-34 -100 -26.5 -179t58 -128t129.5 -49q109 0 187.5 126t79.5 305z" />
    <glyph glyph-name="emptyset" unicode="&#x2205;" horiz-adv-x="1274" 
d="M1001 795q122 -138 122 -322q0 -99 -38.5 -189t-103.5 -155t-155 -103.5t-189 -38.5q-184 0 -322 122l-70 -70l-42 42l70 70q-122 138 -122 322q0 99 38.5 189t103.5 155t155 103.5t189 38.5q184 0 322 -122l70 70l42 -42zM260 473q0 -141 90 -245l532 532
q-104 90 -245 90q-157 0 -267 -110t-110 -267zM637 96q157 0 267 110t110 267q0 141 -90 245l-532 -532q104 -90 245 -90z" />
    <glyph glyph-name="product" unicode="&#x220f;" horiz-adv-x="1264" 
d="M237 -195v1240h-125v98h1040v-98h-125v-1240h-97v1240h-595v-1240h-98z" />
    <glyph glyph-name="summation" unicode="&#x2211;" horiz-adv-x="1092" 
d="M77 -193v76l600 592l-600 591v77h930v-104h-753l563 -564l-563 -564h753v-104h-930z" />
    <glyph glyph-name="minus" unicode="&#x2212;" horiz-adv-x="1240" 
d="M222 410v130h796v-130h-796z" />
    <glyph glyph-name="radical" unicode="&#x221a;" horiz-adv-x="1131" 
d="M362 -127l-186 576h-108v91h173l167 -511l579 1210l83 -36l-636 -1330h-72z" />
    <glyph glyph-name="infinity" unicode="&#x221e;" horiz-adv-x="1402" 
d="M402 237q-93 0 -156.5 67t-67.5 169q4 102 67.5 169t156.5 67q144 0 298 -168q72 81 150 124.5t147 43.5q97 0 159 -65.5t66 -170.5q-4 -105 -66 -170.5t-159 -65.5q-69 0 -147 43.5t-150 124.5q-154 -168 -298 -168zM402 328q105 0 238 145q-133 145 -238 145
q-53 0 -92.5 -42.5t-40.5 -102.5q1 -60 40.5 -102.5t92.5 -42.5zM997 328q55 0 93 41t41 104q-3 63 -41 104t-93 41q-108 0 -237 -145q129 -145 237 -145z" />
    <glyph glyph-name="integral" unicode="&#x222b;" horiz-adv-x="776" 
d="M177 -307q-69 0 -101 50t-7 125h91q-7 -43 0.5 -61t32.5 -18q18 0 32 13t17 34l195 1225q10 63 57 103t107 40q66 0 98.5 -50t6.5 -125h-91q7 43 -0.5 61.5t-31.5 18.5q-18 0 -32.5 -13t-18.5 -35l-195 -1225q-10 -63 -56 -103t-104 -40z" />
    <glyph glyph-name="approxequal" unicode="&#x2248;" horiz-adv-x="1165" 
d="M756 519q-39 0 -71 10t-62 33.5t-42 35.5t-40 42q-33 38 -60.5 56t-62.5 18q-63 0 -100 -51t-35 -127h-96q-5 121 60 197t172 76q63 0 107.5 -28.5t94.5 -89.5q22 -26 36 -40t38.5 -27t52.5 -13q60 0 98.5 49.5t34.5 127.5h96q5 -116 -57.5 -192.5t-163.5 -76.5zM756 195
q-48 0 -91.5 20.5t-62.5 37.5t-53 54l-8 8q-35 39 -62 57t-61 18q-62 0 -99.5 -51t-35.5 -126h-96q-5 121 60.5 197t171.5 76q63 0 108 -29t94 -90q32 -39 59.5 -59t67.5 -20q60 0 98.5 49t34.5 128h96q5 -117 -57.5 -193.5t-163.5 -76.5z" />
    <glyph glyph-name="notequal" unicode="&#x2260;" horiz-adv-x="1291" 
d="M1134 540h-335l-186 -218h521v-91h-599l-192 -224h-88l192 224h-288v91h366l187 218h-553v91h631l161 188h87l-161 -188h257v-91z" />
    <glyph glyph-name="lessequal" unicode="&#x2264;" horiz-adv-x="1137" 
d="M1010 1118v-114l-785 -367l785 -370v-116l-897 424v122zM113 0v83h897v-83h-897z" />
    <glyph glyph-name="greaterequal" unicode="&#x2265;" horiz-adv-x="1137" 
d="M127 1118l897 -421v-122l-897 -424v116l785 370l-785 367v114zM127 0v83h897v-83h-897z" />
    <glyph glyph-name="lozenge" unicode="&#x25ca;" horiz-adv-x="1112" 
d="M557 85l-491 489l491 491l489 -490zM558 236l337 339l-337 338l-340 -339z" />
    <glyph glyph-name="uniF8FF" unicode="&#xf8ff;" horiz-adv-x="1485" 
d="M743 0q-167 0 -309.5 83t-225.5 225.5t-83 309.5q0 168 83 310t225.5 224.5t309.5 82.5q126 0 240 -49t196.5 -131.5t131.5 -196.5t49 -240q0 -167 -82.5 -309.5t-224.5 -225.5t-310 -83zM743 59q114 0 217.5 44.5t178.5 119.5t119 178.5t44 216.5t-44 216.5t-119 178.5
t-178.5 119.5t-217.5 44.5q-151 0 -280 -75t-204 -204t-75 -280t75 -280t204 -204t280 -75zM419 353q-12 0 -20.5 8.5t-8.5 20.5v471q0 13 8.5 21.5t20.5 8.5q13 0 21.5 -8.5t8.5 -21.5v-471q0 -12 -8.5 -20.5t-21.5 -8.5zM743 353q-12 0 -20.5 8.5t-8.5 20.5v471
q0 13 8.5 21.5t20.5 8.5t20.5 -8.5t8.5 -21.5v-471q0 -12 -8.5 -20.5t-20.5 -8.5zM1066 353q-12 0 -19 9l-236 235q-18 22 0 42l236 235q8 9 20 9t20 -9q9 -8 9 -20.5t-9 -21.5l-214 -214l214 -215q18 -17 0 -41q-6 -9 -21 -9zM507 588q-12 0 -20.5 8.5t-8.5 21.5
q0 12 8.5 20.5t20.5 8.5h148q12 0 20.5 -8.5t8.5 -20.5q0 -13 -8.5 -21.5t-20.5 -8.5h-148z" />
    <glyph glyph-name="i.loclTRK" horiz-adv-x="429" 
d="M215 1055q-37 0 -64 26.5t-27 62.5q0 38 27 64.5t64 26.5t64 -26.5t27 -64.5q0 -36 -27 -62.5t-64 -26.5zM148 0v813h133v-813h-133z" />
    <glyph glyph-name="uni2113" horiz-adv-x="998" 
d="M558 -8q-78 0 -139 26t-99 71t-59.5 99t-26.5 116v18q-21 -13 -114 -85l-42 80q24 20 76.5 59.5t77.5 60.5v475q0 116 26 201t70.5 131.5t95.5 68t109 21.5q121 0 183.5 -82t62.5 -205q0 -157 -106 -313t-307 -333v-45q0 -125 65 -190t156 -65q88 0 161 55t115 130
l67 -58q-133 -236 -372 -236zM364 530q149 147 230.5 269.5t81.5 240.5q0 195 -145 195q-66 0 -116.5 -73t-50.5 -232v-400z" />
    <glyph glyph-name="estimated" horiz-adv-x="1598" 
d="M814 -15q-188 0 -348 83.5t-253 227t-93 312.5q0 171 93 315.5t252.5 228t348.5 83.5q190 0 350 -83.5t253 -228t93 -315.5v-16h-1125q-10 0 -10 -7v-341q0 -18 15 -39q84 -86 194.5 -135.5t231.5 -49.5q132 0 248.5 55.5t200.5 152.5h99q-95 -112 -239.5 -177.5
t-310.5 -65.5zM385 626h863q7 0 7 11v341q0 26 -16 41q-85 83 -193.5 131t-229.5 48q-120 0 -229.5 -49t-194.5 -135q-17 -19 -17 -42v-335q0 -11 10 -11z" />
    <glyph glyph-name="uni030C.alt" 
d="M-394 766l211 453h153l-252 -453h-112z" />
    <glyph glyph-name="uni0338.case" 
d="M-893 -76l-103 61l915 1312l101 -63z" />
    </font>
</defs>
</svg>
