<?xml version="1.0" standalone="no"?>
<!DOCTYPE svg PUBLIC "-//W3C//DTD SVG 1.1//EN" "http://www.w3.org/Graphics/SVG/1.1/DTD/svg11.dtd" >
<svg xmlns="http://www.w3.org/2000/svg" xmlns:xlink="http://www.w3.org/1999/xlink" version="1.1">
<metadata>
Created by FontForge 20201107 at Tue Jan 28 02:03:10 2020
 By 
Copyright (c) 2015 Now by Alfredo Marco Pradil. All rights reserved.
</metadata>
<defs>
<font id="Now-Medium" horiz-adv-x="0" >
  <font-face 
    font-family="Now Medium"
    font-weight="500"
    font-stretch="normal"
    units-per-em="2048"
    panose-1="0 0 6 0 0 0 0 0 0 0"
    ascent="1638"
    descent="-410"
    x-height="828"
    cap-height="1219"
    bbox="-1320 -553 1770 1886"
    underline-thickness="50"
    underline-position="-100"
    unicode-range="U+0020-FB02"
  />
<missing-glyph horiz-adv-x="1088" 
d="M199 0v1219h689v-1219h-689zM326 127h435v965h-435v-965z" />
    <glyph glyph-name="fi" unicode="fi" horiz-adv-x="1036" 
d="M353 1232v-404h215v-152h-215v-676h-170v676h-139v152h139v426q0 107 78 182.5t186 75.5q76 0 117 -26v-133h-96q-48 0 -81.5 -34t-33.5 -87zM806 1047q-44 0 -76 32t-32 75q0 45 32 76.5t76 31.5q45 0 77 -31.5t32 -76.5q0 -43 -32.5 -75t-76.5 -32zM720 0v828h171v-828
h-171z" />
    <glyph glyph-name="fl" unicode="fl" horiz-adv-x="1037" 
d="M353 1232v-404h215v-152h-215v-676h-170v676h-139v152h139v426q0 107 78 182.5t186 75.5q76 0 117 -26v-133h-96q-48 0 -81.5 -34t-33.5 -87zM720 1495h171v-1495h-171v1495z" />
    <glyph glyph-name=".notdef" horiz-adv-x="1088" 
d="M199 0v1219h689v-1219h-689zM326 127h435v965h-435v-965z" />
    <glyph glyph-name=".null" 
 />
    <glyph glyph-name="nonmarkingreturn" horiz-adv-x="682" 
 />
    <glyph glyph-name="space" unicode=" " horiz-adv-x="488" 
 />
    <glyph glyph-name="exclam" unicode="!" horiz-adv-x="539" 
d="M199 369l-18 850h165l-19 -850h-128zM264 -16q-42 0 -73 31t-31 73q0 43 31 73.5t73 30.5t73 -30.5t31 -73.5q0 -42 -31 -73t-73 -31z" />
    <glyph glyph-name="quotedbl" unicode="&#x22;" horiz-adv-x="779" 
d="M184 690l-19 545h156l-19 -545h-118zM476 690l-19 545h157l-18 -545h-120z" />
    <glyph glyph-name="numbersign" unicode="#" horiz-adv-x="1289" 
d="M275 0l43 294h-242l18 126h240l58 378h-244l21 124h237l44 297h123l-40 -297h311l43 297h124l-41 -297h244l-21 -124h-240l-54 -378h241l-16 -126h-241l-45 -294h-123l41 294h-314l-41 -294h-126zM461 420h313l54 378h-314z" />
    <glyph glyph-name="dollar" unicode="$" horiz-adv-x="1016" 
d="M905 332q0 -139 -84 -229t-220 -112v-128h-157v126q-116 17 -206 83.5t-135 165.5l149 91q32 -82 102 -130t165 -48t155 47t60 128q0 55 -32 97t-83.5 69.5t-113.5 52t-124 54t-113.5 66.5t-83.5 98t-32 141q0 134 82 221t210 106v128h157v-134q81 -18 148 -62t110 -105
l-119 -111q-100 125 -233 125q-79 0 -131 -40.5t-52 -114.5q0 -54 32 -94t83.5 -66t113 -50t123.5 -54t113.5 -69t83.5 -103.5t32 -148.5z" />
    <glyph glyph-name="percent" unicode="%" horiz-adv-x="1282" 
d="M336 702q-97 0 -165.5 77.5t-68.5 187.5q0 111 68.5 189.5t165.5 78.5q96 0 163.5 -78.5t67.5 -189.5q0 -110 -67.5 -187.5t-163.5 -77.5zM138 0l832 1219h172l-832 -1219h-172zM336 829q42 0 74 39.5t32 98.5q0 61 -31.5 101t-74.5 40q-44 0 -74.5 -39.5t-30.5 -101.5
q0 -59 31 -98.5t74 -39.5zM946 -16q-97 0 -164.5 78.5t-67.5 189.5q0 110 67.5 187.5t164.5 77.5t165 -77.5t68 -187.5q0 -111 -68 -189.5t-165 -78.5zM946 111q43 0 73.5 39.5t30.5 101.5q0 59 -30.5 98.5t-73.5 39.5t-74 -39.5t-31 -98.5q0 -62 30.5 -101.5t74.5 -39.5z
" />
    <glyph glyph-name="ampersand" unicode="&#x26;" horiz-adv-x="1147" 
d="M1054 689v-154h-118v-178q0 -156 -107 -256.5t-276 -100.5q-166 0 -280.5 96.5t-114.5 242.5q0 83 39 156.5t106 123.5q-64 50 -100.5 123t-36.5 156q0 138 93.5 229.5t230.5 91.5h281v-161h-251q-78 -1 -132.5 -46.5t-54.5 -124.5q0 -85 62.5 -141.5t152.5 -56.5h223
v195h165v-195h118zM551 146q100 0 160 59t60 152v178h-252q-85 0 -144.5 -56t-59.5 -136q0 -87 68.5 -142t167.5 -55z" />
    <glyph glyph-name="quotesingle" unicode="'" horiz-adv-x="486" 
d="M184 755l-19 480h156l-19 -480h-118z" />
    <glyph glyph-name="parenleft" unicode="(" horiz-adv-x="574" 
d="M553 -481q-78 4 -144 38.5t-123 109t-97 185.5t-63 275t-23 370t23 370.5t63 276.5t97 187t123 110.5t144 39.5v-119q-53 -6 -97.5 -37t-83.5 -97t-66 -163.5t-42.5 -242t-15.5 -325.5q0 -224 23.5 -390t66 -264.5t96 -148t119.5 -56.5v-119z" />
    <glyph glyph-name="parenright" unicode=")" horiz-adv-x="574" 
d="M21 -481v119q67 7 120.5 56.5t96 148t65.5 264.5t23 390q0 225 -23 392.5t-65.5 266.5t-96 149t-120.5 57v119q78 -4 144 -39.5t123 -110.5t97 -187t63 -276.5t23 -370.5t-23 -370t-63 -275t-97 -185.5t-123 -109t-144 -38.5z" />
    <glyph glyph-name="asterisk" unicode="*" horiz-adv-x="715" 
d="M294 842l-77 45l89 123l-152 -15v88l152 -15l-89 123l77 46l63 -137l64 137l78 -46l-90 -123l152 15v-88l-152 15l90 -123l-78 -45l-64 136z" />
    <glyph glyph-name="plus" unicode="+" horiz-adv-x="1179" 
d="M520 0v433h-434v142h434v433h141v-433h433v-142h-433v-433h-141z" />
    <glyph glyph-name="comma" unicode="," horiz-adv-x="568" 
d="M101 -259l207 466h177l-260 -466h-124z" />
    <glyph glyph-name="hyphen" unicode="-" horiz-adv-x="859" 
d="M145 352v142h569v-142h-569z" />
    <glyph glyph-name="period" unicode="." horiz-adv-x="604" 
d="M302 -16q-51 0 -88 37t-37 88q0 50 37 87.5t88 37.5q50 0 87.5 -37.5t37.5 -87.5q0 -51 -37.5 -88t-87.5 -37z" />
    <glyph glyph-name="slash" unicode="/" horiz-adv-x="1117" 
d="M-33 -488l1025 1957h158l-1024 -1957h-159z" />
    <glyph glyph-name="zero" unicode="0" horiz-adv-x="1056" 
d="M528 -16q-141 0 -242.5 81.5t-151.5 221.5t-50 323t50 322.5t151.5 221t242.5 81.5t242.5 -81.5t151.5 -221t50 -322.5t-50 -323t-151.5 -221.5t-242.5 -81.5zM530 148q134 0 201.5 124.5t67.5 337.5t-67.5 337t-201.5 124q-135 0 -203 -124t-68 -337t68 -337.5
t203 -124.5z" />
    <glyph glyph-name="one" unicode="1" horiz-adv-x="1056" 
d="M475 0v1055h-198v164h371v-1219h-173z" />
    <glyph glyph-name="two" unicode="2" horiz-adv-x="1056" 
d="M417 164h527v-164h-885l498 576q106 121 140.5 180t34.5 119q0 98 -56.5 147t-138.5 50q-87 1 -143.5 -55t-52.5 -150h-179q-4 108 47.5 193.5t140.5 131.5t196 45q154 -1 257 -94t107 -246q3 -102 -42 -183t-186 -244z" />
    <glyph glyph-name="three" unicode="3" horiz-adv-x="1056" 
d="M517 724q169 5 284.5 -96.5t115.5 -261.5t-113 -271t-278 -111q-161 0 -273.5 103t-112.5 251l177 2q0 -80 61.5 -135t147.5 -55q92 0 154 64t62 157q0 89 -62 145t-162 56h-308l371 484h-409v163h729l-389 -495h5z" />
    <glyph glyph-name="four" unicode="4" horiz-adv-x="1056" 
d="M946 421v-164h-119v-257h-173v257h-585l541 962h217v-798h119zM314 421h340v618z" />
    <glyph glyph-name="five" unicode="5" horiz-adv-x="1056" 
d="M565 813q169 0 278 -116t109 -293q0 -184 -122 -302t-320 -118q-116 0 -227 43t-174 114l18 187h22q127 -177 355 -177q127 0 201 70t74 178q0 109 -73 179t-180 70q-62 0 -120.5 -25t-99.5 -69l-143 87l64 575h651v-164h-505l-37 -313q98 74 229 74z" />
    <glyph glyph-name="six" unicode="6" horiz-adv-x="1056" 
d="M963 417q4 -175 -120 -300t-303 -131q-118 -4 -219.5 48.5t-163.5 147.5t-65 210q-5 143 102 285l416 542h211l-313 -403q21 4 55 4q96 -4 185.5 -54.5t150.5 -143t64 -205.5zM539 146q117 4 188.5 81t66.5 189q-5 117 -84 190t-195 68t-187.5 -85.5t-65.5 -195.5
q5 -113 82 -182t195 -65z" />
    <glyph glyph-name="seven" unicode="7" horiz-adv-x="1056" 
d="M124 1219h821v-120l-607 -1099h-195l590 1055h-609v164z" />
    <glyph glyph-name="eight" unicode="8" horiz-adv-x="1056" 
d="M527 -16q-170 0 -286 108t-116 266q0 104 54.5 189t146.5 131q-61 41 -95.5 105.5t-34.5 141.5q0 132 95 221t238 89q141 0 236 -89t95 -221q0 -77 -34.5 -141.5t-95.5 -105.5q93 -46 147 -130.5t54 -189.5q0 -159 -115.5 -266.5t-288.5 -107.5zM529 726q74 0 125.5 51.5
t51.5 125.5q0 76 -51.5 127.5t-125.5 51.5q-76 0 -127.5 -51.5t-51.5 -127.5q0 -74 51.5 -125.5t127.5 -51.5zM527 136q97 0 163 68.5t66 165.5q0 98 -66 163.5t-163 65.5q-96 0 -161.5 -66t-65.5 -163t66 -165.5t161 -68.5z" />
    <glyph glyph-name="nine" unicode="9" horiz-adv-x="1056" 
d="M963 827q5 -144 -101 -285l-418 -542h-209l313 404q-21 -5 -56 -5q-96 4 -185.5 54t-150.5 143t-64 206q-4 175 119.5 299.5t304.5 131.5q180 6 311 -112.5t136 -293.5zM540 545q116 5 187 85t65 197q-5 111 -83 181t-193 65q-117 -6 -188.5 -82t-66.5 -188
q5 -117 83.5 -190t195.5 -68z" />
    <glyph glyph-name="colon" unicode=":" horiz-adv-x="535" 
d="M267 621q-42 0 -73 31t-31 73t31.5 73t72.5 31q42 0 73 -31t31 -73q0 -43 -31 -73.5t-73 -30.5zM267 -16q-42 0 -73 30.5t-31 73.5q0 42 31.5 73t72.5 31q42 0 73 -31t31 -73q0 -43 -31 -73.5t-73 -30.5z" />
    <glyph glyph-name="semicolon" unicode=";" horiz-adv-x="574" 
d="M338 621q-43 0 -73.5 30.5t-30.5 73.5q0 42 30.5 73t73.5 31q42 0 73 -31t31 -73q0 -43 -31 -73.5t-73 -30.5zM50 -259l207 466h177l-260 -466h-124z" />
    <glyph glyph-name="less" unicode="&#x3c;" horiz-adv-x="1091" 
d="M981 1095v-138l-766 -387l766 -387v-141l-897 454v149z" />
    <glyph glyph-name="equal" unicode="=" horiz-adv-x="1411" 
d="M218 533v109h975v-109h-975zM218 220v109h975v-109h-975z" />
    <glyph glyph-name="greater" unicode="&#x3e;" horiz-adv-x="1091" 
d="M110 1095l897 -450v-149l-897 -454v141l766 387l-766 387v138z" />
    <glyph glyph-name="question" unicode="?" horiz-adv-x="873" 
d="M356 348v101q0 63 16.5 108.5t42.5 70.5t57 43t62.5 34t57.5 36.5t42.5 57.5t16.5 90q0 88 -63 145t-158 57t-156.5 -61t-61.5 -153q0 -31 3 -47h-147q-3 25 -3 53q0 150 104 251t261 101t261.5 -98.5t104.5 -247.5q0 -65 -16 -115t-41.5 -79.5t-56.5 -52t-62 -39
t-56.5 -34t-41.5 -44t-16 -62.5v-115h-150zM437 -16q-43 0 -74 30.5t-31 73.5t31 73.5t74 30.5t73.5 -30.5t30.5 -73.5t-30.5 -73.5t-73.5 -30.5z" />
    <glyph glyph-name="at" unicode="@" horiz-adv-x="1264" 
d="M1079 309h-130v63q-35 -38 -90.5 -62t-105.5 -24q-110 0 -187 75.5t-77 184.5t76.5 184.5t185.5 75.5q54 0 109 -26t89 -67v44q0 104 -82 177t-200 73q-172 0 -293 -127.5t-121 -307.5q0 -123 62 -225t168 -160.5t231 -58.5h365v-128h-365q-122 0 -231.5 44.5
t-187.5 120.5t-124 182.5t-46 224.5q0 155 72 285t196.5 205t273.5 75q173 0 292.5 -110t119.5 -270v-448zM799 396q52 0 92.5 26.5t57.5 69.5v108q-17 43 -57.5 69t-92.5 26q-69 0 -113.5 -42.5t-44.5 -106.5q0 -65 44.5 -107.5t113.5 -42.5z" />
    <glyph glyph-name="A" unicode="A" horiz-adv-x="1128" 
d="M915 0l-91 268h-519l-92 -268h-185l441 1219h190l440 -1219h-184zM358 424h413l-206 603z" />
    <glyph glyph-name="B" unicode="B" horiz-adv-x="1138" 
d="M823 618q96 -35 152 -110.5t56 -182.5q0 -144 -98.5 -234.5t-243.5 -90.5h-507v1219h464q146 0 245.5 -91.5t99.5 -237.5q0 -95 -44.5 -164.5t-123.5 -107.5zM820 875q0 79 -56 130t-137 51h-276v-369h276q81 0 137 54t56 134zM666 163q82 0 137.5 52t55.5 130
q0 79 -56 133t-137 54h-315v-369h315z" />
    <glyph glyph-name="C" unicode="C" horiz-adv-x="1316" 
d="M712 -16q-128 0 -243.5 49.5t-199.5 133t-133.5 199.5t-49.5 244q0 127 49.5 243t133.5 199.5t200 133t243 49.5q173 0 319 -87.5t228 -234.5l-147 -81q-59 107 -165 170t-235 63q-191 0 -324 -132.5t-133 -322.5q0 -191 133 -323.5t324 -132.5q129 0 235 63t165 170
l147 -81q-82 -147 -228 -234.5t-319 -87.5z" />
    <glyph glyph-name="D" unicode="D" horiz-adv-x="1234" 
d="M182 0v1219h330q153 0 275 -47.5t199 -131t117.5 -193t40.5 -237.5t-40.5 -238t-117.5 -193.5t-199 -131t-275 -47.5h-330zM351 163h159q121 0 211.5 33.5t144.5 94.5t80.5 140.5t26.5 178.5t-26.5 178.5t-80.5 140t-144.5 94t-211.5 33.5h-159v-893z" />
    <glyph glyph-name="E" unicode="E" horiz-adv-x="963" 
d="M867 1060h-514v-371h446v-159h-446v-371h514v-159h-685v1219h685v-159z" />
    <glyph glyph-name="F" unicode="F" horiz-adv-x="922" 
d="M867 1060h-514v-371h446v-159h-446v-530h-171v1219h685v-159z" />
    <glyph glyph-name="G" unicode="G" horiz-adv-x="1409" 
d="M710 654h628v-44q0 -128 -49.5 -244t-133.5 -199.5t-199.5 -133t-243.5 -49.5t-243.5 49.5t-199.5 133t-133.5 199.5t-49.5 244q0 127 49.5 243t133.5 199.5t200 133t243 49.5q173 0 319 -87.5t228 -234.5l-147 -81q-59 107 -165 170t-235 63q-191 0 -324 -132.5
t-133 -322.5q0 -191 133 -323.5t324 -132.5q162 0 285 98t159 252h-446v150z" />
    <glyph glyph-name="H" unicode="H" horiz-adv-x="1324" 
d="M971 1219h171v-1219h-171v528h-618v-528h-171v1219h171v-527h618v527z" />
    <glyph glyph-name="I" unicode="I" horiz-adv-x="534" 
d="M182 0v1219h171v-1219h-171z" />
    <glyph glyph-name="J" unicode="J" horiz-adv-x="879" 
d="M710 1219v-920q0 -146 -89 -230.5t-241 -84.5q-140 0 -226.5 71t-101.5 197l172 42q7 -67 50 -107t106 -40q70 0 114.5 47t44.5 125v737h-418v163h589z" />
    <glyph glyph-name="K" unicode="K" horiz-adv-x="1169" 
d="M919 0l-491 584h-75v-584h-171v1219h171v-479h75l463 479h230l-548 -557l581 -662h-235z" />
    <glyph glyph-name="L" unicode="L" horiz-adv-x="817" 
d="M353 163h438v-163h-609v1219h171v-1056z" />
    <glyph glyph-name="M" unicode="M" horiz-adv-x="1616" 
d="M1253 1219h181v-1219h-170v889l-396 -889h-124l-391 886v-886h-171v1219h182l443 -1002z" />
    <glyph glyph-name="N" unicode="N" horiz-adv-x="1408" 
d="M1056 1219h170v-1219h-168l-705 944v-944h-171v1219h167l707 -943v943z" />
    <glyph glyph-name="O" unicode="O" horiz-adv-x="1424" 
d="M712 -16q-128 0 -243.5 49.5t-199.5 133t-133.5 199.5t-49.5 244q0 127 49.5 243t133.5 199.5t200 133t243 49.5t243 -49.5t200 -133t133.5 -199.5t49.5 -243q0 -128 -49.5 -244t-133.5 -199.5t-199.5 -133t-243.5 -49.5zM712 154q191 0 323.5 132.5t132.5 323.5
q0 190 -132.5 322.5t-323.5 132.5t-324 -132.5t-133 -322.5q0 -191 133 -323.5t324 -132.5z" />
    <glyph glyph-name="P" unicode="P" horiz-adv-x="1047" 
d="M641 1219q149 0 248 -101t99 -247t-98.5 -244.5t-248.5 -98.5h-288v-528h-171v1219h459zM621 682q88 0 143.5 50t55.5 137q0 85 -56 138t-143 53h-268v-378h268z" />
    <glyph glyph-name="Q" unicode="Q" horiz-adv-x="1462" 
d="M712 -16q-128 0 -243.5 49.5t-199.5 133t-133.5 199.5t-49.5 244q0 127 49.5 243t133.5 199.5t200 133t243 49.5t243 -49.5t200 -133t133.5 -199.5t49.5 -243q0 -164 -84.5 -302.5t-232.5 -216.5l6 -9q6 3 27.5 16t27.5 16.5t24 12.5t28.5 12t27.5 8t34.5 6.5t37.5 1.5
h118v-155h-443q-38 0 -108 -9q-42 -7 -89 -7zM712 154q191 0 323.5 132.5t132.5 323.5q0 190 -132.5 322.5t-323.5 132.5t-324 -132.5t-133 -322.5q0 -191 133 -323.5t324 -132.5z" />
    <glyph glyph-name="R" unicode="R" horiz-adv-x="1114" 
d="M716 543l354 -543h-196l-336 535h-185v-535h-171v1219h459q149 0 248 -101t99 -248q0 -123 -76 -214.5t-196 -112.5zM353 689h272q86 0 140.5 50.5t54.5 132.5t-54.5 133t-140.5 51h-272v-367z" />
    <glyph glyph-name="S" unicode="S" horiz-adv-x="948" 
d="M484 -16q-141 0 -252.5 69.5t-163.5 184.5l150 91q32 -82 102 -130t165 -48t155 47t60 128q0 55 -32 97t-83.5 69.5t-113.5 52t-124 54t-113.5 66.5t-83.5 98t-32 141q0 151 102 241t251 90q110 0 204 -49t149 -128l-119 -111q-98 125 -232 125q-80 0 -132 -40.5
t-52 -114.5q0 -54 32 -94t83.5 -66t113 -50t123.5 -54t113.5 -69t83.5 -103.5t32 -148.5q0 -160 -110 -254t-276 -94z" />
    <glyph glyph-name="T" unicode="T" horiz-adv-x="877" 
d="M851 1219v-163h-327v-1056h-171v1056h-327v163h825z" />
    <glyph glyph-name="U" unicode="U" horiz-adv-x="1258" 
d="M628 -16q-204 0 -338 117.5t-134 296.5v821h171v-792q0 -121 85.5 -200.5t215.5 -79.5q131 0 217 79.5t86 200.5v792h171v-821q0 -179 -134.5 -296.5t-339.5 -117.5z" />
    <glyph glyph-name="V" unicode="V" horiz-adv-x="1129" 
d="M912 1219h188l-440 -1219h-190l-441 1219h191l346 -1001z" />
    <glyph glyph-name="W" unicode="W" horiz-adv-x="1761" 
d="M407 0l-368 1219h180l285 -949l270 949h212l274 -949l284 949h179l-366 -1219h-188l-289 1014l-285 -1014h-188z" />
    <glyph glyph-name="X" unicode="X" horiz-adv-x="1078" 
d="M29 0l417 621l-402 598h202l293 -455l295 455h201l-403 -597l417 -622h-202l-309 480l-305 -480h-204z" />
    <glyph glyph-name="Y" unicode="Y" horiz-adv-x="1040" 
d="M436 0v573l-427 646h205l307 -477l308 477h202l-425 -642v-577h-170z" />
    <glyph glyph-name="Z" unicode="Z" horiz-adv-x="1017" 
d="M331 163h635v-163h-925l619 1056h-570v163h859z" />
    <glyph glyph-name="bracketleft" unicode="[" horiz-adv-x="550" 
d="M175 -406v1886h354v-112h-210v-1662h210v-112h-354z" />
    <glyph glyph-name="backslash" unicode="\" horiz-adv-x="1117" 
d="M992 -488l-1025 1957h159l1024 -1957h-158z" />
    <glyph glyph-name="bracketright" unicode="]" horiz-adv-x="550" 
d="M22 -406v112h209v1662h-209v112h353v-1886h-353z" />
    <glyph glyph-name="asciicircum" unicode="^" horiz-adv-x="1181" 
d="M1117 322h-141l-386 766l-386 -766h-140l452 897h149z" />
    <glyph glyph-name="underscore" unicode="_" horiz-adv-x="1265" 
d="M145 -142v142h975v-142h-975z" />
    <glyph glyph-name="grave" unicode="`" horiz-adv-x="441" 
d="M275 917l-247 302h179l178 -302h-110z" />
    <glyph glyph-name="a" unicode="a" horiz-adv-x="1122" 
d="M1025 143h47v-143q-45 -16 -86 -16q-65 0 -115 37t-75 100q-57 -64 -135 -100.5t-166 -36.5q-177 0 -300.5 125.5t-123.5 304.5t123.5 305t300.5 126q164 0 279 -110v93h171v-587q0 -52 22.5 -75t57.5 -23zM509 146q111 0 190 78t79 190t-79 190.5t-190 78.5
q-112 0 -190 -78.5t-78 -190.5t78 -190t190 -78z" />
    <glyph glyph-name="b" unicode="b" horiz-adv-x="1091" 
d="M595 845q177 0 300.5 -126t123.5 -305t-123.5 -304.5t-300.5 -125.5q-162 0 -279 109v-93h-171v1495h171v-759q117 109 279 109zM581 146q111 0 189.5 78t78.5 190t-78.5 190.5t-189.5 78.5q-112 0 -190.5 -78.5t-78.5 -190.5t78.5 -190t190.5 -78z" />
    <glyph glyph-name="c" unicode="c" horiz-adv-x="996" 
d="M508 -16q-186 0 -312 124.5t-126 305.5t126 306t312 125q155 0 270.5 -87.5t152.5 -226.5h-180q-33 68 -98 109.5t-145 42.5q-112 -1 -190 -78.5t-78 -190.5t78 -190.5t190 -77.5q80 0 145 41.5t98 109.5h180q-37 -139 -152.5 -226t-270.5 -87z" />
    <glyph glyph-name="d" unicode="d" horiz-adv-x="1090" 
d="M774 1495h170v-1495h-170v93q-117 -109 -280 -109q-176 0 -300 125.5t-124 304.5t124 305t300 126q163 0 280 -109v759zM509 146q111 0 189.5 78t78.5 190t-78.5 190.5t-189.5 78.5q-112 0 -190 -78.5t-78 -190.5t78 -190t190 -78z" />
    <glyph glyph-name="e" unicode="e" horiz-adv-x="1011" 
d="M942 420l-1 -33h-699q8 -109 82.5 -180t183.5 -71q84 0 149 42t95 113h175q-38 -136 -151.5 -221.5t-266.5 -85.5q-187 0 -312.5 123.5t-125.5 306.5t125.5 307t310.5 124q184 0 308 -121t127 -304zM508 691q-86 0 -152 -46.5t-96 -124.5h492q-29 78 -93.5 124.5
t-150.5 46.5z" />
    <glyph glyph-name="f" unicode="f" horiz-adv-x="575" 
d="M568 828v-152h-215v-676h-170v676h-139v152h139v426q0 107 78 182.5t186 75.5q76 0 117 -26v-133h-96q-48 0 -81.5 -34t-33.5 -87v-404h215z" />
    <glyph glyph-name="g" unicode="g" horiz-adv-x="1089" 
d="M772 828h172v-897q0 -221 -115.5 -333t-314.5 -112q-152 0 -265.5 79t-159.5 210l157 68q25 -88 97.5 -142t170.5 -54q260 0 260 281v165q-117 -109 -280 -109q-176 0 -300 125.5t-124 304.5q0 180 123.5 305.5t300.5 125.5q161 0 278 -107v90zM509 146q111 0 189.5 78.5
t78.5 189.5q0 112 -78.5 190.5t-189.5 78.5q-112 0 -190 -78.5t-78 -190.5q0 -111 78 -189.5t190 -78.5z" />
    <glyph glyph-name="h" unicode="h" horiz-adv-x="946" 
d="M510 845q129 0 219.5 -92t90.5 -225v-528h-171v516q0 70 -48 118.5t-118 48.5t-118.5 -50t-48.5 -121v-512h-171v1495h171v-717q86 67 194 67z" />
    <glyph glyph-name="i" unicode="i" horiz-adv-x="461" 
d="M231 1047q-44 0 -76 32t-32 75q0 45 32 76.5t76 31.5q45 0 77 -31.5t32 -76.5q0 -43 -32.5 -75t-76.5 -32zM145 0v828h171v-828h-171z" />
    <glyph glyph-name="j" unicode="j" horiz-adv-x="461" 
d="M231 1047q-44 0 -76 32t-32 75q0 45 32 76.5t76 31.5q45 0 77 -31.5t32 -76.5q0 -43 -32.5 -75t-76.5 -32zM52 -553q-78 0 -117 26v133h90q52 0 86 33.5t34 87.5v1101h171v-1119q0 -114 -74 -188t-190 -74z" />
    <glyph glyph-name="k" unicode="k" horiz-adv-x="896" 
d="M905 0h-230l-359 425v-425h-171v1495h171v-999l337 332h217l-376 -371z" />
    <glyph glyph-name="l" unicode="l" horiz-adv-x="461" 
d="M145 0v1495h171v-1495h-171z" />
    <glyph glyph-name="m" unicode="m" horiz-adv-x="1421" 
d="M145 0v828h171v-81q85 98 199 98q67 0 127.5 -34.5t101.5 -93.5q91 128 248 128q130 0 216 -91.5t86 -227.5v-526h-171v514q0 70 -46 119.5t-113 49.5q-68 0 -113.5 -50t-45.5 -119v-514h-170v514q0 70 -46.5 119.5t-113.5 49.5q-68 0 -113.5 -50t-45.5 -119v-514h-171z
" />
    <glyph glyph-name="n" unicode="n" horiz-adv-x="952" 
d="M522 845q123 0 214 -93.5t91 -225.5v-526h-171v514q0 71 -48.5 120t-119.5 49q-72 0 -122 -49t-50 -120v-514h-171v828h171v-72q86 89 206 89z" />
    <glyph glyph-name="o" unicode="o" horiz-adv-x="1019" 
d="M509 -16q-187 0 -313 124.5t-126 305.5q0 182 126 306.5t313 124.5q186 0 312.5 -125t126.5 -306t-126.5 -305.5t-312.5 -124.5zM509 146q112 0 190 78t78 190t-78 190t-190 79q-112 -1 -190 -79t-78 -190t77.5 -190t190.5 -78z" />
    <glyph glyph-name="p" unicode="p" horiz-adv-x="1090" 
d="M595 845q177 0 300.5 -126t123.5 -305t-123.5 -304.5t-300.5 -125.5q-162 0 -279 109v-591h-171v1326h171v-92q117 109 279 109zM581 146q111 0 189.5 78t78.5 190t-78.5 190.5t-189.5 78.5q-112 0 -190.5 -78.5t-78.5 -190.5t78.5 -190t190.5 -78z" />
    <glyph glyph-name="q" unicode="q" horiz-adv-x="1090" 
d="M1059 -338h77v-142q-44 -17 -98 -17q-108 0 -186 75.5t-78 182.5v332q-117 -109 -280 -109q-176 0 -300 125.5t-124 304.5t124 305t300 126q163 0 280 -109v92h170v-1045q0 -53 33.5 -87t81.5 -34zM509 146q111 0 189.5 78t78.5 190t-78.5 190.5t-189.5 78.5
q-112 0 -190 -78.5t-78 -190.5t78 -190t190 -78z" />
    <glyph glyph-name="r" unicode="r" horiz-adv-x="651" 
d="M145 0v828h171v-110q98 127 264 127q24 0 64 -6v-163q-47 7 -67 7q-112 0 -186.5 -72.5t-74.5 -189.5v-421h-171z" />
    <glyph glyph-name="s" unicode="s" horiz-adv-x="735" 
d="M378 -16q-108 0 -197 53t-120 137l150 66q13 -48 61 -77t105 -29q51 0 85.5 25.5t34.5 68.5q0 40 -31.5 63t-113.5 53q-60 23 -98.5 43t-76.5 50t-56 70t-18 91q0 112 77.5 179.5t190.5 67.5q84 0 160 -40t105 -96l-128 -85q-16 32 -52 52t-81 20q-47 0 -74 -22.5
t-27 -63.5q0 -42 30.5 -64t111.5 -53q56 -21 94.5 -40.5t77.5 -50t58.5 -72.5t19.5 -96q0 -111 -82.5 -180.5t-205.5 -69.5z" />
    <glyph glyph-name="t" unicode="t" horiz-adv-x="621" 
d="M557 676h-214v-412q0 -54 33.5 -87.5t82.5 -33.5h95v-133q-36 -26 -117 -26q-108 0 -186 75.5t-78 182.5v434h-139v152h139v348h170v-348h214v-152z" />
    <glyph glyph-name="u" unicode="u" horiz-adv-x="923" 
d="M462 -16q-157 0 -245.5 80.5t-88.5 231.5v532h171v-515q0 -85 44 -126t119 -41t119 41t44 126v515h170v-532q0 -151 -88.5 -231.5t-244.5 -80.5z" />
    <glyph glyph-name="v" unicode="v" horiz-adv-x="843" 
d="M652 828h183l-333 -828h-163l-332 828h184l231 -638z" />
    <glyph glyph-name="w" unicode="w" horiz-adv-x="1372" 
d="M1165 828h189l-283 -828h-184l-200 593l-200 -593h-185l-285 828h194l191 -635l210 635h150l210 -635z" />
    <glyph glyph-name="x" unicode="x" horiz-adv-x="909" 
d="M904 828l-346 -415l346 -413h-206l-243 291l-243 -291h-207l347 414l-347 414h205l244 -291l244 291h206z" />
    <glyph glyph-name="y" unicode="y" horiz-adv-x="870" 
d="M676 828h186l-365 -914l-165 -411h-182l197 486l-341 839h185l247 -637z" />
    <glyph glyph-name="z" unicode="z" horiz-adv-x="801" 
d="M756 828l-434 -670h428v-158h-718l431 669h-395v159h688z" />
    <glyph glyph-name="braceleft" unicode="{" horiz-adv-x="504" 
d="M358 -437q-76 0 -126 62.5t-50 157.5v420q0 123 -22.5 174t-99.5 88v106q77 38 99.5 89.5t22.5 172.5v417q0 96 50 159t126 63h86v-113q-79 0 -106.5 -23.5t-27.5 -100.5v-426q0 -104 -21.5 -172.5t-83.5 -118.5q61 -49 83 -118.5t22 -172.5v-435q0 -64 27.5 -90
t106.5 -26v-113h-86z" />
    <glyph glyph-name="bar" unicode="|" horiz-adv-x="543" 
d="M218 -244v1463h107v-1463h-107z" />
    <glyph glyph-name="braceright" unicode="}" horiz-adv-x="504" 
d="M60 -437v113q79 0 106 25.5t27 90.5v435q0 103 22 172.5t84 118.5q-62 50 -84 118.5t-22 172.5v426q0 77 -27 100.5t-106 23.5v113h86q76 0 126 -63t50 -159v-417q0 -121 22.5 -172.5t99.5 -89.5v-106q-77 -37 -99.5 -88t-22.5 -174v-420q0 -95 -50 -157.5t-126 -62.5
h-86z" />
    <glyph glyph-name="asciitilde" unicode="~" horiz-adv-x="1163" 
d="M753 273q-41 0 -75.5 11t-64.5 34.5t-43 36.5t-38 41q-31 34 -55 49t-55 15q-59 0 -93 -49.5t-32 -120.5h-117q-7 127 61 207t182 80q65 0 111.5 -28.5t94.5 -88.5q29 -36 53.5 -54.5t59.5 -18.5q57 0 93 47t31 123h117q10 -120 -57 -202t-173 -82z" />
    <glyph glyph-name="exclamdown" unicode="&#xa1;" horiz-adv-x="551" 
d="M275 636q-42 0 -73 30.5t-31 73.5t31 73.5t73 30.5t73 -30.5t31 -73.5t-31 -73.5t-73 -30.5zM193 -391l19 850h128l18 -850h-165z" />
    <glyph glyph-name="cent" unicode="&#xa2;" horiz-adv-x="929" 
d="M562 846q-115 0 -195.5 -80.5t-80.5 -196.5t80.5 -196.5t195.5 -80.5q129 0 209 73v-164q-88 -51 -191 -55v-148h-102v156q-154 28 -255.5 144.5t-101.5 270.5t101.5 270t255.5 144v156h102v-148q103 -4 191 -54v-163q-82 72 -209 72z" />
    <glyph glyph-name="sterling" unicode="&#xa3;" horiz-adv-x="1092" 
d="M371 119h618v-119h-745v540h-130v111h130v203q0 167 104.5 274t267.5 107q119 0 220 -76.5t132 -191.5l-123 -53q-12 82 -79 137.5t-150 55.5q-111 0 -178 -69t-67 -184v-203h302v-111h-302v-421z" />
    <glyph glyph-name="currency" unicode="&#xa4;" horiz-adv-x="1152" 
d="M281 205l-89 94l84 82q-67 92 -67 209t67 209l-82 80l89 94l84 -85q93 68 209 68.5t209 -67.5l83 83l91 -89l-83 -83q68 -93 68 -210t-68 -210l83 -81l-90 -94l-84 86q-93 -68 -210 -68t-210 68zM403 421q73 -72 172 -72t171 72q70 69 70 169t-72 169q-70 71 -169 70.5
t-171 -71.5q-69 -69 -69.5 -168.5t68.5 -168.5z" />
    <glyph glyph-name="yen" unicode="&#xa5;" horiz-adv-x="1163" 
d="M654 590v-4h319v-104h-319v-153h319v-102h-319v-227h-145v227h-316v102h316v153h-317v104h317v2l-418 631h157l332 -516l334 516h156z" />
    <glyph glyph-name="brokenbar" unicode="&#xa6;" horiz-adv-x="543" 
d="M218 634v585h107v-585h-107zM218 -244v585h107v-585h-107z" />
    <glyph glyph-name="section" unicode="&#xa7;" horiz-adv-x="1060" 
d="M864 409q64 -61 64 -146q0 -76 -56 -136t-147.5 -92t-197.5 -32q-139 0 -251 53.5t-160 135.5l105 63q33 -60 115.5 -98t196.5 -38q113 0 192 38.5t79 106.5q0 42 -35 72.5t-90.5 49.5t-123.5 36t-135.5 38.5t-123 49.5t-90.5 76.5t-35 112.5q0 85 64 146q-64 57 -64 142
q0 78 52 135.5t130.5 85t169.5 27.5q99 0 189 -32.5t145 -85.5l-86 -71q-40 37 -103.5 59t-136.5 22q-97 0 -166 -35.5t-69 -98.5q0 -42 35 -72.5t90.5 -49.5t123 -36.5t135.5 -39t123.5 -50t90.5 -77t35 -113.5q0 -81 -65 -146zM296 703q0 -40 29.5 -69.5t82 -49.5
t108.5 -35t127 -35.5t119 -41.5q42 35 42 85q0 39 -29.5 67.5t-82 48t-108.5 34.5t-127.5 35t-119.5 41q-41 -32 -41 -80z" />
    <glyph glyph-name="dieresis" unicode="&#xa8;" horiz-adv-x="792" 
d="M199 1047q-44 0 -76 32t-32 75q0 45 32 76.5t76 31.5q45 0 77 -31.5t32 -76.5q0 -43 -32.5 -75t-76.5 -32zM531 1047q-44 0 -76 31.5t-32 75.5q0 45 31.5 76.5t76.5 31.5q44 0 76 -31.5t32 -76.5q0 -43 -32 -75t-76 -32z" />
    <glyph glyph-name="copyright" unicode="&#xa9;" horiz-adv-x="1489" 
d="M744 -16q-169 0 -313 84t-228 228t-84 314q0 169 84 313t228 228t313 84q170 0 314 -84t228 -228t84 -313q0 -170 -84 -314t-228 -228t-314 -84zM744 77q147 0 269.5 71t193 193.5t70.5 268.5t-70.5 268t-193 193t-269.5 71q-146 0 -268.5 -71t-193 -193t-70.5 -268
t70.5 -268.5t193 -193.5t268.5 -71zM750 271q-144 0 -242 98t-98 240q0 143 98 241t242 98q119 0 209 -68.5t120 -176.5h-135q-27 55 -78.5 88t-115.5 33q-89 0 -151 -62.5t-62 -152.5t62 -152t151 -62q64 0 115.5 33t78.5 88h135q-30 -109 -120 -177t-209 -68z" />
    <glyph glyph-name="ordfeminine" unicode="&#xaa;" horiz-adv-x="826" 
d="M565 1219h86v-488h-86v98q-31 -50 -82 -78.5t-113 -28.5q-101 0 -173 74t-72 179t72 179.5t173 74.5q62 0 112.5 -29t82.5 -79v98zM386 796q75 0 127 52.5t52 126.5q0 73 -52 125t-127 52q-73 0 -124.5 -52t-51.5 -125q0 -74 51.5 -126.5t124.5 -52.5z" />
    <glyph glyph-name="guillemotleft" unicode="&#xab;" horiz-adv-x="822" 
d="M303 154l-247 299l247 300h136l-247 -300l247 -299h-136zM625 154l-247 299l247 300h139l-247 -300l247 -299h-139z" />
    <glyph glyph-name="logicalnot" unicode="&#xac;" horiz-adv-x="1314" 
d="M981 179v416h-883v117h998v-533h-115z" />
    <glyph glyph-name="uni00AD" unicode="&#xad;" horiz-adv-x="859" 
d="M145 352v142h569v-142h-569z" />
    <glyph glyph-name="registered" unicode="&#xae;" horiz-adv-x="1489" 
d="M744 1235q170 0 314 -84t228 -228t84 -313q0 -170 -84 -314t-228 -228t-314 -84q-169 0 -313 84t-228 228t-84 314q0 169 84 313t228 228t313 84zM744 77q147 0 270 71t193.5 193.5t70.5 268.5t-70.5 268t-193.5 193t-270 71q-146 0 -268 -71t-192.5 -193t-70.5 -268
t70.5 -268.5t192.5 -193.5t268 -71zM971 742q0 -59 -33.5 -105.5t-87.5 -65.5l151 -277h-97l-148 266h-94v-266h-85v631h208q78 0 132 -53t54 -130zM662 839v-194h123q41 0 70 28.5t29 68.5q0 41 -29 69t-70 28h-123z" />
    <glyph glyph-name="macron" unicode="&#xaf;" horiz-adv-x="742" 
d="M145 969v110h452v-110h-452z" />
    <glyph glyph-name="degree" unicode="&#xb0;" horiz-adv-x="804" 
d="M402 800q-96 0 -163.5 67.5t-67.5 162.5q0 96 67.5 164t163.5 68q95 0 162.5 -68t67.5 -164q0 -95 -67.5 -162.5t-162.5 -67.5zM402 891q59 0 99 40t40 99q0 60 -40 100t-99 40t-99 -40t-40 -100q0 -59 40 -99t99 -40z" />
    <glyph glyph-name="plusminus" unicode="&#xb1;" horiz-adv-x="1381" 
d="M626 301v293h-501v128h501v292h128v-292h501v-128h-501v-293h-128zM125 0v116h1130v-116h-1130z" />
    <glyph glyph-name="uni00B2" unicode="&#xb2;" horiz-adv-x="567" 
d="M228 631h278v-109h-508l280 338q57 68 75 99t18 62q0 49 -29 74t-68 25q-45 0 -74.5 -29.5t-28.5 -79.5l-117 1q-4 96 63.5 156.5t161.5 60.5q91 0 150.5 -55t59.5 -144q0 -61 -26 -106.5t-100 -132.5z" />
    <glyph glyph-name="uni00B3" unicode="&#xb3;" horiz-adv-x="567" 
d="M291 936q98 2 161 -54t63 -147q0 -93 -66 -158t-162 -65q-91 0 -157 60t-66 146l120 1q0 -42 30.5 -70t72.5 -28q48 0 79.5 34t31.5 81t-32 76t-87 29h-181l205 269h-239v109h447z" />
    <glyph glyph-name="acute" unicode="&#xb4;" horiz-adv-x="441" 
d="M56 917l178 302h179l-247 -302h-110z" />
    <glyph glyph-name="uni00B5" unicode="&#xb5;" horiz-adv-x="1113" 
d="M790 813h156v-813h-156v114q-46 -61 -112.5 -95.5t-142.5 -34.5q-114 0 -199 71v-461h-118v1219h156v-488q0 -84 60 -143.5t145 -59.5q87 0 149 59.5t62 143.5v488z" />
    <glyph glyph-name="paragraph" unicode="&#xb6;" horiz-adv-x="959" 
d="M411 -244v919h-45q-136 0 -212.5 70.5t-76.5 202.5q0 131 76.5 201t212.5 70h134v-1463h-89zM652 -244v1463h89v-1463h-89z" />
    <glyph glyph-name="periodcentered" unicode="&#xb7;" horiz-adv-x="594" 
d="M297 468q-49 0 -83.5 33.5t-34.5 83.5q0 47 35 82.5t83 35.5q46 0 82.5 -35.5t36.5 -82.5q0 -49 -36 -83t-83 -34z" />
    <glyph glyph-name="cedilla" unicode="&#xb8;" horiz-adv-x="528" 
d="M267 -423q-58 0 -112.5 33t-76.5 80l83 31q15 -23 46 -39t60 -16q34 0 57.5 24t23.5 59q0 52 -43.5 70t-105.5 -8l-71 44l76 145h90l-53 -103q82 15 139.5 -28.5t57.5 -119.5q0 -72 -49.5 -122t-121.5 -50z" />
    <glyph glyph-name="uni00B9" unicode="&#xb9;" horiz-adv-x="377" 
d="M142 522v588h-110v109h228v-697h-118z" />
    <glyph glyph-name="ordmasculine" unicode="&#xba;" horiz-adv-x="713" 
d="M355 722q-109 0 -185.5 73.5t-76.5 179.5q0 105 76.5 179.5t185.5 74.5q110 0 187.5 -74.5t77.5 -179.5q0 -106 -77.5 -179.5t-187.5 -73.5zM355 796q74 0 126.5 52.5t52.5 126.5q0 73 -52.5 125t-126.5 52q-73 0 -124.5 -52t-51.5 -125q0 -74 51.5 -126.5t124.5 -52.5z
" />
    <glyph glyph-name="guillemotright" unicode="&#xbb;" horiz-adv-x="822" 
d="M58 154l247 299l-247 300h137l247 -300l-247 -299h-137zM380 154l247 299l-247 300h139l247 -300l-247 -299h-139z" />
    <glyph glyph-name="onequarter" unicode="&#xbc;" horiz-adv-x="1549" 
d="M301 406h-113v705h-133v108h246v-813zM1131 1216h131l-850 -1219h-132zM1461 279v-108h-80v-171h-112v171h-391l362 642h141v-534h80zM1038 279h231v418z" />
    <glyph glyph-name="onehalf" unicode="&#xbd;" horiz-adv-x="1578" 
d="M301 406h-113v705h-132v108h245v-813zM1081 1218h130l-850 -1219h-131zM1146 107h355v-108h-591l333 384q74 83 96 121.5t22 78.5q0 65 -37.5 99t-93.5 35q-60 0 -98 -38t-36 -101l-117 1q-4 107 71 176.5t185 68.5q102 0 171 -62.5t71 -163.5q2 -67 -28.5 -122
t-123.5 -163z" />
    <glyph glyph-name="threequarters" unicode="&#xbe;" horiz-adv-x="1700" 
d="M593 655q0 -107 -75 -181t-184 -74q-107 0 -182 69t-75 167l115 2q0 -54 42 -91.5t100 -37.5q62 0 104 43t42 106q0 60 -42 98t-109 38h-205l249 323h-275v107h484l-259 -330h5q112 2 188.5 -65.5t76.5 -173.5zM1270 1216h131l-850 -1219h-132zM1613 279v-108h-79v-171
h-113v171h-391l362 642h142v-534h79zM1191 279h230v416z" />
    <glyph glyph-name="questiondown" unicode="&#xbf;" horiz-adv-x="873" 
d="M436 636q-43 0 -73.5 30.5t-30.5 73.5t30.5 73.5t73.5 30.5t74 -30.5t31 -73.5t-31 -73.5t-74 -30.5zM443 -407q-157 0 -261.5 98.5t-104.5 247.5q0 65 16 115t41.5 79.5t56.5 52t62 39t56.5 34t41.5 44t16 62.5v115h150v-100q0 -64 -16.5 -109.5t-42.5 -70t-57 -43
t-62.5 -34.5t-57.5 -36.5t-42.5 -57.5t-16.5 -90q0 -87 63 -144.5t158 -57.5t156.5 61t61.5 153q0 31 -3 47h147q3 -26 3 -53q0 -150 -104 -251t-261 -101z" />
    <glyph glyph-name="Agrave" unicode="&#xc0;" horiz-adv-x="1128" 
d="M619 1320h-110l-247 290h179zM915 0l-91 268h-519l-92 -268h-185l441 1219h190l440 -1219h-184zM358 424h413l-206 603z" />
    <glyph glyph-name="Aacute" unicode="&#xc1;" horiz-adv-x="1128" 
d="M866 1610l-247 -290h-110l178 290h179zM915 0l-91 268h-519l-92 -268h-185l441 1219h190l440 -1219h-184zM358 424h413l-206 603z" />
    <glyph glyph-name="Acircumflex" unicode="&#xc2;" horiz-adv-x="1128" 
d="M566 1520l-125 -200h-126l170 290h157l172 -290h-126zM915 0l-91 268h-519l-92 -268h-185l441 1219h190l440 -1219h-184zM358 424h413l-206 603z" />
    <glyph glyph-name="Atilde" unicode="&#xc3;" horiz-adv-x="1128" 
d="M460 1507q-34 0 -52 -34t-18 -88h-113q0 102 48.5 167.5t131.5 65.5q32 0 60 -13.5t47 -33t36 -38.5t34.5 -32.5t35.5 -13.5q70 0 70 123h111q0 -102 -47.5 -167.5t-132.5 -65.5q-41 0 -74.5 20.5t-52.5 44.5t-41.5 44.5t-42.5 20.5zM915 0l-91 268h-519l-92 -268h-185
l441 1219h190l440 -1219h-184zM358 424h413l-206 603z" />
    <glyph glyph-name="Adieresis" unicode="&#xc4;" horiz-adv-x="1128" 
d="M398 1438q-44 0 -76 32t-32 75q0 45 32 76.5t76 31.5q45 0 77 -31.5t32 -76.5q0 -43 -32.5 -75t-76.5 -32zM730 1438q-44 0 -76 31.5t-32 75.5q0 45 31.5 76.5t76.5 31.5q44 0 76 -31.5t32 -76.5q0 -43 -32 -75t-76 -32zM915 0l-91 268h-519l-92 -268h-185l441 1219h190
l440 -1219h-184zM358 424h413l-206 603z" />
    <glyph glyph-name="Aring" unicode="&#xc5;" horiz-adv-x="1128" 
d="M915 0l-91 268h-519l-92 -268h-185l428 1182q-69 54 -69 140q0 73 52.5 124.5t126.5 51.5q72 0 124 -51.5t52 -124.5q0 -88 -69 -142l426 -1180h-184zM566 1421q-40 0 -68 -30t-28 -69q0 -42 27.5 -70t68.5 -28q40 0 67.5 28t27.5 70q0 39 -28.5 69t-66.5 30zM358 424
h413l-206 603z" />
    <glyph glyph-name="AE" unicode="&#xc6;" horiz-adv-x="1491" 
d="M1394 1058h-518v-370h450v-156h-450v-371h518v-161h-684v280h-384l-109 -280h-193l490 1219h880v-161zM384 431h326v642h-77z" />
    <glyph glyph-name="Ccedilla" unicode="&#xc7;" horiz-adv-x="1316" 
d="M712 154q129 0 235 63t165 170l147 -81q-82 -147 -228 -234.5t-319 -87.5h-25l-45 -87q82 15 139.5 -28.5t57.5 -119.5q0 -72 -49.5 -122t-121.5 -50q-58 0 -112.5 33t-76.5 80l83 31q15 -23 46 -39t60 -16q34 0 57.5 24t23.5 59q0 52 -43.5 70t-105.5 -8l-71 44l73 139
q-222 39 -369 212.5t-147 403.5q0 127 49.5 243t133.5 199.5t200 133t243 49.5q173 0 319 -87.5t228 -234.5l-147 -81q-59 107 -165 170t-235 63q-191 0 -324 -132.5t-133 -322.5q0 -191 133 -323.5t324 -132.5z" />
    <glyph glyph-name="Egrave" unicode="&#xc8;" horiz-adv-x="963" 
d="M537 1320h-110l-247 290h179zM867 1060h-514v-371h446v-159h-446v-371h514v-159h-685v1219h685v-159z" />
    <glyph glyph-name="Eacute" unicode="&#xc9;" horiz-adv-x="963" 
d="M784 1610l-247 -290h-110l178 290h179zM867 1060h-514v-371h446v-159h-446v-371h514v-159h-685v1219h685v-159z" />
    <glyph glyph-name="Ecircumflex" unicode="&#xca;" horiz-adv-x="963" 
d="M483 1520l-125 -200h-126l170 290h157l172 -290h-126zM867 1060h-514v-371h446v-159h-446v-371h514v-159h-685v1219h685v-159z" />
    <glyph glyph-name="Edieresis" unicode="&#xcb;" horiz-adv-x="963" 
d="M315 1438q-44 0 -76 32t-32 75q0 45 32 76.5t76 31.5q45 0 77 -31.5t32 -76.5q0 -43 -32.5 -75t-76.5 -32zM647 1438q-44 0 -76 31.5t-32 75.5q0 45 31.5 76.5t76.5 31.5q44 0 76 -31.5t32 -76.5q0 -43 -32 -75t-76 -32zM867 1060h-514v-371h446v-159h-446v-371h514v-159
h-685v1219h685v-159z" />
    <glyph glyph-name="Igrave" unicode="&#xcc;" horiz-adv-x="534" 
d="M212 1320l-247 290h179l178 -290h-110zM182 0v1219h171v-1219h-171z" />
    <glyph glyph-name="Iacute" unicode="&#xcd;" horiz-adv-x="534" 
d="M212 1320l178 290h179l-247 -290h-110zM182 0v1219h171v-1219h-171z" />
    <glyph glyph-name="Icircumflex" unicode="&#xce;" horiz-adv-x="534" 
d="M17 1320l170 290h157l172 -290h-126l-122 200l-125 -200h-126zM182 0v1219h171v-1219h-171z" />
    <glyph glyph-name="Idieresis" unicode="&#xcf;" horiz-adv-x="534" 
d="M101 1438q-44 0 -76 32t-32 75q0 45 32 76.5t76 31.5q45 0 77 -31.5t32 -76.5q0 -43 -32.5 -75t-76.5 -32zM433 1438q-44 0 -76 31.5t-32 75.5q0 45 31.5 76.5t76.5 31.5q44 0 76 -31.5t32 -76.5q0 -43 -32 -75t-76 -32zM182 0v1219h171v-1219h-171z" />
    <glyph glyph-name="Eth" unicode="&#xd0;" horiz-adv-x="1234" 
d="M512 1219q153 0 275 -47.5t199 -131t117.5 -193t40.5 -237.5t-40.5 -238t-117.5 -193.5t-199 -131t-275 -47.5h-330v545h-85v130h85v544h330zM510 163q121 0 211.5 33.5t144.5 94.5t80.5 140.5t26.5 178.5t-26.5 178.5t-80.5 140t-144.5 94t-211.5 33.5h-159v-381h246
v-130h-246v-382h159z" />
    <glyph glyph-name="Ntilde" unicode="&#xd1;" horiz-adv-x="1408" 
d="M599 1507q-34 0 -52 -34t-18 -88h-113q0 102 48.5 167.5t131.5 65.5q32 0 60 -13.5t47 -33t36 -38.5t34.5 -32.5t35.5 -13.5q70 0 70 123h111q0 -102 -47.5 -167.5t-132.5 -65.5q-41 0 -74.5 20.5t-52.5 44.5t-41.5 44.5t-42.5 20.5zM1056 1219h170v-1219h-168l-705 944
v-944h-171v1219h167l707 -943v943z" />
    <glyph glyph-name="Ograve" unicode="&#xd2;" horiz-adv-x="1424" 
d="M657 1320l-247 290h179l178 -290h-110zM712 -16q-128 0 -243.5 49.5t-199.5 133t-133.5 199.5t-49.5 244q0 127 49.5 243t133.5 199.5t200 133t243 49.5t243 -49.5t200 -133t133.5 -199.5t49.5 -243q0 -128 -49.5 -244t-133.5 -199.5t-199.5 -133t-243.5 -49.5zM712 154
q191 0 323.5 132.5t132.5 323.5q0 190 -132.5 322.5t-323.5 132.5t-324 -132.5t-133 -322.5q0 -191 133 -323.5t324 -132.5z" />
    <glyph glyph-name="Oacute" unicode="&#xd3;" horiz-adv-x="1424" 
d="M657 1320l178 290h179l-247 -290h-110zM712 -16q-128 0 -243.5 49.5t-199.5 133t-133.5 199.5t-49.5 244q0 127 49.5 243t133.5 199.5t200 133t243 49.5t243 -49.5t200 -133t133.5 -199.5t49.5 -243q0 -128 -49.5 -244t-133.5 -199.5t-199.5 -133t-243.5 -49.5zM712 154
q191 0 323.5 132.5t132.5 323.5q0 190 -132.5 322.5t-323.5 132.5t-324 -132.5t-133 -322.5q0 -191 133 -323.5t324 -132.5z" />
    <glyph glyph-name="Ocircumflex" unicode="&#xd4;" horiz-adv-x="1424" 
d="M462 1320l170 290h157l172 -290h-126l-122 200l-125 -200h-126zM712 -16q-128 0 -243.5 49.5t-199.5 133t-133.5 199.5t-49.5 244q0 127 49.5 243t133.5 199.5t200 133t243 49.5t243 -49.5t200 -133t133.5 -199.5t49.5 -243q0 -128 -49.5 -244t-133.5 -199.5t-199.5 -133
t-243.5 -49.5zM712 154q191 0 323.5 132.5t132.5 323.5q0 190 -132.5 322.5t-323.5 132.5t-324 -132.5t-133 -322.5q0 -191 133 -323.5t324 -132.5z" />
    <glyph glyph-name="Otilde" unicode="&#xd5;" horiz-adv-x="1424" 
d="M819 1377q-41 0 -74.5 20.5t-52.5 44.5t-41.5 44.5t-42.5 20.5q-34 0 -52 -34t-18 -88h-113q0 102 48.5 167.5t131.5 65.5q32 0 60 -13.5t47 -33t36 -38.5t34.5 -32.5t35.5 -13.5q70 0 70 123h111q0 -102 -47.5 -167.5t-132.5 -65.5zM712 -16q-128 0 -243.5 49.5
t-199.5 133t-133.5 199.5t-49.5 244q0 127 49.5 243t133.5 199.5t200 133t243 49.5t243 -49.5t200 -133t133.5 -199.5t49.5 -243q0 -128 -49.5 -244t-133.5 -199.5t-199.5 -133t-243.5 -49.5zM712 154q191 0 323.5 132.5t132.5 323.5q0 190 -132.5 322.5t-323.5 132.5
t-324 -132.5t-133 -322.5q0 -191 133 -323.5t324 -132.5z" />
    <glyph glyph-name="Odieresis" unicode="&#xd6;" horiz-adv-x="1424" 
d="M545 1438q-44 0 -76 32t-32 75q0 45 32 76.5t76 31.5q45 0 77 -31.5t32 -76.5q0 -43 -32.5 -75t-76.5 -32zM877 1438q-44 0 -76 31.5t-32 75.5q0 45 31.5 76.5t76.5 31.5q44 0 76 -31.5t32 -76.5q0 -43 -32 -75t-76 -32zM712 -16q-128 0 -243.5 49.5t-199.5 133
t-133.5 199.5t-49.5 244q0 127 49.5 243t133.5 199.5t200 133t243 49.5t243 -49.5t200 -133t133.5 -199.5t49.5 -243q0 -128 -49.5 -244t-133.5 -199.5t-199.5 -133t-243.5 -49.5zM712 154q191 0 323.5 132.5t132.5 323.5q0 190 -132.5 322.5t-323.5 132.5t-324 -132.5
t-133 -322.5q0 -191 133 -323.5t324 -132.5z" />
    <glyph glyph-name="multiply" unicode="&#xd7;" horiz-adv-x="1022" 
d="M917 809l-306 -305l306 -306l-99 -101l-307 307l-308 -307l-98 101l306 306l-306 305l98 102l308 -307l307 307z" />
    <glyph glyph-name="Oslash" unicode="&#xd8;" horiz-adv-x="1424" 
d="M1124 1081q100 -88 157 -210.5t57 -260.5q0 -128 -49.5 -244t-133.5 -199.5t-199.5 -133t-243.5 -49.5q-163 0 -299 76l-100 -143l-118 70l105 151q-100 87 -157 210t-57 262q0 127 49.5 243t133.5 199.5t200 133t243 49.5q158 0 301 -76l99 142l116 -71zM255 610
q0 -97 38 -183t105 -150l517 742q-97 46 -203 46q-191 0 -324 -132.5t-133 -322.5zM712 154q191 0 323.5 132.5t132.5 323.5q0 97 -37.5 182.5t-103.5 148.5l-517 -741q94 -46 202 -46z" />
    <glyph glyph-name="Ugrave" unicode="&#xd9;" horiz-adv-x="1258" 
d="M574 1320l-247 290h179l178 -290h-110zM628 -16q-204 0 -338 117.5t-134 296.5v821h171v-792q0 -121 85.5 -200.5t215.5 -79.5q131 0 217 79.5t86 200.5v792h171v-821q0 -179 -134.5 -296.5t-339.5 -117.5z" />
    <glyph glyph-name="Uacute" unicode="&#xda;" horiz-adv-x="1258" 
d="M574 1320l178 290h179l-247 -290h-110zM628 -16q-204 0 -338 117.5t-134 296.5v821h171v-792q0 -121 85.5 -200.5t215.5 -79.5q131 0 217 79.5t86 200.5v792h171v-821q0 -179 -134.5 -296.5t-339.5 -117.5z" />
    <glyph glyph-name="Ucircumflex" unicode="&#xdb;" horiz-adv-x="1258" 
d="M380 1320l170 290h157l172 -290h-126l-122 200l-125 -200h-126zM628 -16q-204 0 -338 117.5t-134 296.5v821h171v-792q0 -121 85.5 -200.5t215.5 -79.5q131 0 217 79.5t86 200.5v792h171v-821q0 -179 -134.5 -296.5t-339.5 -117.5z" />
    <glyph glyph-name="Udieresis" unicode="&#xdc;" horiz-adv-x="1258" 
d="M463 1438q-44 0 -76 32t-32 75q0 45 32 76.5t76 31.5q45 0 77 -31.5t32 -76.5q0 -43 -32.5 -75t-76.5 -32zM795 1438q-44 0 -76 31.5t-32 75.5q0 45 31.5 76.5t76.5 31.5q44 0 76 -31.5t32 -76.5q0 -43 -32 -75t-76 -32zM628 -16q-204 0 -338 117.5t-134 296.5v821h171
v-792q0 -121 85.5 -200.5t215.5 -79.5q131 0 217 79.5t86 200.5v792h171v-821q0 -179 -134.5 -296.5t-339.5 -117.5z" />
    <glyph glyph-name="Yacute" unicode="&#xdd;" horiz-adv-x="1040" 
d="M464 1320l178 290h179l-247 -290h-110zM436 0v573l-427 646h205l307 -477l308 477h202l-425 -642v-577h-170z" />
    <glyph glyph-name="Thorn" unicode="&#xde;" horiz-adv-x="1042" 
d="M639 1048q143 0 244.5 -102.5t101.5 -247.5q0 -142 -101 -241.5t-245 -99.5h-292v-357h-165v1219h165v-171h292zM628 515q84 0 138.5 52.5t54.5 134.5q0 83 -54.5 135.5t-138.5 52.5h-281v-375h281z" />
    <glyph glyph-name="germandbls" unicode="&#xdf;" horiz-adv-x="1085" 
d="M825 656q87 -46 136.5 -126.5t49.5 -182.5q0 -147 -96 -248t-240 -101h-221v168h183q88 0 145 53t57 141q0 90 -62.5 145.5t-155.5 55.5h-85v142h35q89 0 148 58.5t59 143.5q0 88 -62.5 144t-159.5 56q-106 0 -173 -64.5t-67 -177.5v-863h-171v867q0 175 115.5 281.5
t291.5 106.5q169 0 278.5 -97t109.5 -245q0 -155 -115 -257z" />
    <glyph glyph-name="agrave" unicode="&#xe0;" horiz-adv-x="1122" 
d="M564 929h-110l-247 290h179zM1025 143h47v-143q-45 -16 -86 -16q-65 0 -115 37t-75 100q-57 -64 -135 -100.5t-166 -36.5q-177 0 -300.5 125.5t-123.5 304.5t123.5 305t300.5 126q164 0 279 -110v93h171v-587q0 -52 22.5 -75t57.5 -23zM509 146q111 0 190 78t79 190
t-79 190.5t-190 78.5q-112 0 -190 -78.5t-78 -190.5t78 -190t190 -78z" />
    <glyph glyph-name="aacute" unicode="&#xe1;" horiz-adv-x="1122" 
d="M811 1219l-247 -290h-110l178 290h179zM1025 143h47v-143q-45 -16 -86 -16q-65 0 -115 37t-75 100q-57 -64 -135 -100.5t-166 -36.5q-177 0 -300.5 125.5t-123.5 304.5t123.5 305t300.5 126q164 0 279 -110v93h171v-587q0 -52 22.5 -75t57.5 -23zM509 146q111 0 190 78
t79 190t-79 190.5t-190 78.5q-112 0 -190 -78.5t-78 -190.5t78 -190t190 -78z" />
    <glyph glyph-name="acircumflex" unicode="&#xe2;" horiz-adv-x="1122" 
d="M510 1129l-125 -200h-126l170 290h157l172 -290h-126zM1025 143h47v-143q-45 -16 -86 -16q-65 0 -115 37t-75 100q-57 -64 -135 -100.5t-166 -36.5q-177 0 -300.5 125.5t-123.5 304.5t123.5 305t300.5 126q164 0 279 -110v93h171v-587q0 -52 22.5 -75t57.5 -23zM509 146
q111 0 190 78t79 190t-79 190.5t-190 78.5q-112 0 -190 -78.5t-78 -190.5t78 -190t190 -78z" />
    <glyph glyph-name="atilde" unicode="&#xe3;" horiz-adv-x="1122" 
d="M405 1116q-34 0 -52 -34t-18 -88h-113q0 102 48.5 167.5t131.5 65.5q32 0 60 -13.5t47 -32.5t36 -38.5t34.5 -33t35.5 -13.5q70 0 70 123h111q0 -102 -47.5 -167.5t-132.5 -65.5q-41 0 -74.5 20.5t-52.5 44.5t-41.5 44.5t-42.5 20.5zM1025 143h47v-143q-45 -16 -86 -16
q-65 0 -115 37t-75 100q-57 -64 -135 -100.5t-166 -36.5q-177 0 -300.5 125.5t-123.5 304.5t123.5 305t300.5 126q164 0 279 -110v93h171v-587q0 -52 22.5 -75t57.5 -23zM509 146q111 0 190 78t79 190t-79 190.5t-190 78.5q-112 0 -190 -78.5t-78 -190.5t78 -190t190 -78z
" />
    <glyph glyph-name="adieresis" unicode="&#xe4;" horiz-adv-x="1122" 
d="M342 1047q-44 0 -76 32t-32 75q0 45 32 76.5t76 31.5q45 0 77 -31.5t32 -76.5q0 -43 -32.5 -75t-76.5 -32zM674 1047q-44 0 -76 31.5t-32 75.5q0 45 31.5 76.5t76.5 31.5q44 0 76 -31.5t32 -76.5q0 -43 -32 -75t-76 -32zM1025 143h47v-143q-45 -16 -86 -16q-65 0 -115 37
t-75 100q-57 -64 -135 -100.5t-166 -36.5q-177 0 -300.5 125.5t-123.5 304.5t123.5 305t300.5 126q164 0 279 -110v93h171v-587q0 -52 22.5 -75t57.5 -23zM509 146q111 0 190 78t79 190t-79 190.5t-190 78.5q-112 0 -190 -78.5t-78 -190.5t78 -190t190 -78z" />
    <glyph glyph-name="aring" unicode="&#xe5;" horiz-adv-x="1122" 
d="M510 886q-73 0 -126 52.5t-53 125.5t52.5 125t126.5 52q72 0 124 -52t52 -125t-52 -125.5t-124 -52.5zM510 1163q-40 0 -68 -29.5t-28 -69.5q0 -42 27.5 -69.5t68.5 -27.5q40 0 67.5 27.5t27.5 69.5q0 39 -28 69t-67 30zM1025 143h47v-143q-45 -16 -86 -16q-65 0 -115 37
t-75 100q-57 -64 -135 -100.5t-166 -36.5q-177 0 -300.5 125.5t-123.5 304.5t123.5 305t300.5 126q164 0 279 -110v93h171v-587q0 -52 22.5 -75t57.5 -23zM509 146q111 0 190 78t79 190t-79 190.5t-190 78.5q-112 0 -190 -78.5t-78 -190.5t78 -190t190 -78z" />
    <glyph glyph-name="ae" unicode="&#xe6;" horiz-adv-x="1566" 
d="M1497 420l-1 -33h-700q8 -109 83 -180t185 -71q83 0 148 42t95 113h174q-37 -136 -151 -221.5t-266 -85.5q-103 0 -190.5 40t-148.5 112q-78 -72 -169 -112t-179 -40q-136 0 -219 71.5t-83 189.5q0 122 88 191.5t238 69.5h229v33q0 76 -50.5 124t-130.5 48
q-63 1 -113 -30.5t-63 -80.5l-161 50q32 88 124.5 141.5t215.5 53.5q95 0 171.5 -34.5t122.5 -95.5q127 130 317 130q183 0 307 -121t127 -304zM1064 691q-87 0 -153.5 -46.5t-96.5 -124.5h492q-28 78 -92.5 124.5t-149.5 46.5zM395 125q63 0 132 37t124 100q-20 58 -24 111
h-208q-81 0 -126 -33t-45 -94q0 -56 39.5 -88.5t107.5 -32.5z" />
    <glyph glyph-name="ccedilla" unicode="&#xe7;" horiz-adv-x="996" 
d="M508 146q80 0 145 41.5t98 109.5h180q-37 -135 -147 -221.5t-259 -91.5l-45 -87q82 15 139.5 -28.5t57.5 -119.5q0 -72 -49.5 -122t-121.5 -50q-58 0 -112.5 33t-76.5 80l83 31q15 -23 46 -39t60 -16q34 0 57.5 24t23.5 59q0 52 -43.5 70t-105.5 -8l-71 44l70 134
q-160 24 -263.5 143t-103.5 282q0 181 126 306t312 125q155 0 270.5 -87.5t152.5 -226.5h-180q-33 68 -98 109.5t-145 42.5q-112 -1 -190 -78.5t-78 -190.5t78 -190.5t190 -77.5z" />
    <glyph glyph-name="egrave" unicode="&#xe8;" horiz-adv-x="1011" 
d="M560 929h-110l-247 290h179zM942 420l-1 -33h-699q8 -109 82.5 -180t183.5 -71q84 0 149 42t95 113h175q-38 -136 -151.5 -221.5t-266.5 -85.5q-187 0 -312.5 123.5t-125.5 306.5t125.5 307t310.5 124q184 0 308 -121t127 -304zM508 691q-86 0 -152 -46.5t-96 -124.5h492
q-29 78 -93.5 124.5t-150.5 46.5z" />
    <glyph glyph-name="eacute" unicode="&#xe9;" horiz-adv-x="1011" 
d="M807 1219l-247 -290h-110l178 290h179zM942 420l-1 -33h-699q8 -109 82.5 -180t183.5 -71q84 0 149 42t95 113h175q-38 -136 -151.5 -221.5t-266.5 -85.5q-187 0 -312.5 123.5t-125.5 306.5t125.5 307t310.5 124q184 0 308 -121t127 -304zM508 691q-86 0 -152 -46.5
t-96 -124.5h492q-29 78 -93.5 124.5t-150.5 46.5z" />
    <glyph glyph-name="ecircumflex" unicode="&#xea;" horiz-adv-x="1011" 
d="M506 1129l-125 -200h-126l170 290h157l172 -290h-126zM942 420l-1 -33h-699q8 -109 82.5 -180t183.5 -71q84 0 149 42t95 113h175q-38 -136 -151.5 -221.5t-266.5 -85.5q-187 0 -312.5 123.5t-125.5 306.5t125.5 307t310.5 124q184 0 308 -121t127 -304zM508 691
q-86 0 -152 -46.5t-96 -124.5h492q-29 78 -93.5 124.5t-150.5 46.5z" />
    <glyph glyph-name="edieresis" unicode="&#xeb;" horiz-adv-x="1011" 
d="M339 1047q-44 0 -76 32t-32 75q0 45 32 76.5t76 31.5q45 0 77 -31.5t32 -76.5q0 -43 -32.5 -75t-76.5 -32zM671 1047q-44 0 -76 31.5t-32 75.5q0 45 31.5 76.5t76.5 31.5q44 0 76 -31.5t32 -76.5q0 -43 -32 -75t-76 -32zM942 420l-1 -33h-699q8 -109 82.5 -180t183.5 -71
q84 0 149 42t95 113h175q-38 -136 -151.5 -221.5t-266.5 -85.5q-187 0 -312.5 123.5t-125.5 306.5t125.5 307t310.5 124q184 0 308 -121t127 -304zM508 691q-86 0 -152 -46.5t-96 -124.5h492q-29 78 -93.5 124.5t-150.5 46.5z" />
    <glyph glyph-name="igrave" unicode="&#xec;" horiz-adv-x="461" 
d="M176 929l-247 290h179l178 -290h-110zM145 0v828h171v-828h-171z" />
    <glyph glyph-name="iacute" unicode="&#xed;" horiz-adv-x="461" 
d="M176 929l178 290h179l-247 -290h-110zM145 0v828h171v-828h-171z" />
    <glyph glyph-name="icircumflex" unicode="&#xee;" horiz-adv-x="461" 
d="M-19 929l170 290h157l172 -290h-126l-122 200l-125 -200h-126zM145 0v828h171v-828h-171z" />
    <glyph glyph-name="idieresis" unicode="&#xef;" horiz-adv-x="461" 
d="M65 1047q-44 0 -76 32t-32 75q0 45 32 76.5t76 31.5q45 0 77 -31.5t32 -76.5q0 -43 -32.5 -75t-76.5 -32zM397 1047q-44 0 -76 31.5t-32 75.5q0 45 31.5 76.5t76.5 31.5q44 0 76 -31.5t32 -76.5q0 -43 -32 -75t-76 -32zM145 0v828h171v-828h-171z" />
    <glyph glyph-name="eth" unicode="&#xf0;" horiz-adv-x="1062" 
d="M642 1140q159 -122 243 -300.5t84 -355.5q0 -103 -28.5 -192.5t-83 -158.5t-142 -109t-198.5 -40q-188 0 -319 125.5t-131 304.5t131.5 305t318.5 126q152 0 240 -83q-53 157 -203 266l-90 -115l-83 64l83 105q-97 51 -212 57l33 137q137 -6 270 -80l76 96l81 -61z
M517 144q112 0 190 78.5t78 191.5q0 112 -78 190.5t-190 78.5t-190.5 -78.5t-78.5 -190.5q0 -113 78.5 -191.5t190.5 -78.5z" />
    <glyph glyph-name="ntilde" unicode="&#xf1;" horiz-adv-x="952" 
d="M373 1116q-34 0 -52 -34t-18 -88h-113q0 102 48.5 167.5t131.5 65.5q32 0 60 -13.5t47 -32.5t36 -38.5t34.5 -33t35.5 -13.5q70 0 70 123h111q0 -102 -47.5 -167.5t-132.5 -65.5q-41 0 -74.5 20.5t-52.5 44.5t-41.5 44.5t-42.5 20.5zM522 845q123 0 214 -93.5t91 -225.5
v-526h-171v514q0 71 -48.5 120t-119.5 49q-72 0 -122 -49t-50 -120v-514h-171v828h171v-72q86 89 206 89z" />
    <glyph glyph-name="ograve" unicode="&#xf2;" horiz-adv-x="1019" 
d="M453 929l-247 290h179l178 -290h-110zM509 -16q-187 0 -313 124.5t-126 305.5q0 182 126 306.5t313 124.5q186 0 312.5 -125t126.5 -306t-126.5 -305.5t-312.5 -124.5zM509 146q112 0 190 78t78 190t-78 190t-190 79q-112 -1 -190 -79t-78 -190t77.5 -190t190.5 -78z" />
    <glyph glyph-name="oacute" unicode="&#xf3;" horiz-adv-x="1019" 
d="M453 929l178 290h179l-247 -290h-110zM509 -16q-187 0 -313 124.5t-126 305.5q0 182 126 306.5t313 124.5q186 0 312.5 -125t126.5 -306t-126.5 -305.5t-312.5 -124.5zM509 146q112 0 190 78t78 190t-78 190t-190 79q-112 -1 -190 -79t-78 -190t77.5 -190t190.5 -78z" />
    <glyph glyph-name="ocircumflex" unicode="&#xf4;" horiz-adv-x="1019" 
d="M259 929l170 290h157l172 -290h-126l-122 200l-125 -200h-126zM509 -16q-187 0 -313 124.5t-126 305.5q0 182 126 306.5t313 124.5q186 0 312.5 -125t126.5 -306t-126.5 -305.5t-312.5 -124.5zM509 146q112 0 190 78t78 190t-78 190t-190 79q-112 -1 -190 -79t-78 -190
t77.5 -190t190.5 -78z" />
    <glyph glyph-name="otilde" unicode="&#xf5;" horiz-adv-x="1019" 
d="M615 986q-41 0 -74.5 20.5t-52.5 44.5t-41.5 44.5t-42.5 20.5q-34 0 -52 -34t-18 -88h-113q0 102 48.5 167.5t131.5 65.5q32 0 60 -13.5t47 -32.5t36 -38.5t34.5 -33t35.5 -13.5q70 0 70 123h111q0 -102 -47.5 -167.5t-132.5 -65.5zM509 -16q-187 0 -313 124.5
t-126 305.5q0 182 126 306.5t313 124.5q186 0 312.5 -125t126.5 -306t-126.5 -305.5t-312.5 -124.5zM509 146q112 0 190 78t78 190t-78 190t-190 79q-112 -1 -190 -79t-78 -190t77.5 -190t190.5 -78z" />
    <glyph glyph-name="odieresis" unicode="&#xf6;" horiz-adv-x="1019" 
d="M342 1047q-44 0 -76 32t-32 75q0 45 32 76.5t76 31.5q45 0 77 -31.5t32 -76.5q0 -43 -32.5 -75t-76.5 -32zM674 1047q-44 0 -76 31.5t-32 75.5q0 45 31.5 76.5t76.5 31.5q44 0 76 -31.5t32 -76.5q0 -43 -32 -75t-76 -32zM509 -16q-187 0 -313 124.5t-126 305.5
q0 182 126 306.5t313 124.5q186 0 312.5 -125t126.5 -306t-126.5 -305.5t-312.5 -124.5zM509 146q112 0 190 78t78 190t-78 190t-190 79q-112 -1 -190 -79t-78 -190t77.5 -190t190.5 -78z" />
    <glyph glyph-name="divide" unicode="&#xf7;" horiz-adv-x="1159" 
d="M579 642q-38 0 -66 27.5t-28 66.5q0 38 28 66t66 28q39 0 67.5 -28t28.5 -66q0 -39 -28.5 -66.5t-67.5 -27.5zM92 403v88h975v-88h-975zM579 64q-38 0 -66 27.5t-28 66.5q0 38 28 66t66 28q39 0 67.5 -28t28.5 -66q0 -39 -28.5 -66.5t-67.5 -27.5z" />
    <glyph glyph-name="oslash" unicode="&#xf8;" horiz-adv-x="1019" 
d="M807 734q141 -127 141 -320q0 -181 -126.5 -305.5t-312.5 -124.5q-104 0 -194 42l-77 -110l-108 64l80 115q-140 126 -140 319q0 182 126 306.5t313 124.5q106 0 195 -43l77 111l106 -65zM241 414q0 -104 67 -179l299 429q-48 19 -98 19q-112 -1 -190 -79t-78 -190z
M509 146q112 0 190 78t78 190q0 103 -68 179l-298 -429q45 -18 98 -18z" />
    <glyph glyph-name="ugrave" unicode="&#xf9;" horiz-adv-x="923" 
d="M406 929l-247 290h179l178 -290h-110zM462 -16q-157 0 -245.5 80.5t-88.5 231.5v532h171v-515q0 -85 44 -126t119 -41t119 41t44 126v515h170v-532q0 -151 -88.5 -231.5t-244.5 -80.5z" />
    <glyph glyph-name="uacute" unicode="&#xfa;" horiz-adv-x="923" 
d="M406 929l178 290h179l-247 -290h-110zM462 -16q-157 0 -245.5 80.5t-88.5 231.5v532h171v-515q0 -85 44 -126t119 -41t119 41t44 126v515h170v-532q0 -151 -88.5 -231.5t-244.5 -80.5z" />
    <glyph glyph-name="ucircumflex" unicode="&#xfb;" horiz-adv-x="923" 
d="M212 929l170 290h157l172 -290h-126l-122 200l-125 -200h-126zM462 -16q-157 0 -245.5 80.5t-88.5 231.5v532h171v-515q0 -85 44 -126t119 -41t119 41t44 126v515h170v-532q0 -151 -88.5 -231.5t-244.5 -80.5z" />
    <glyph glyph-name="udieresis" unicode="&#xfc;" horiz-adv-x="923" 
d="M295 1047q-44 0 -76 32t-32 75q0 45 32 76.5t76 31.5q45 0 77 -31.5t32 -76.5q0 -43 -32.5 -75t-76.5 -32zM627 1047q-44 0 -76 31.5t-32 75.5q0 45 31.5 76.5t76.5 31.5q44 0 76 -31.5t32 -76.5q0 -43 -32 -75t-76 -32zM462 -16q-157 0 -245.5 80.5t-88.5 231.5v532h171
v-515q0 -85 44 -126t119 -41t119 41t44 126v515h170v-532q0 -151 -88.5 -231.5t-244.5 -80.5z" />
    <glyph glyph-name="yacute" unicode="&#xfd;" horiz-adv-x="870" 
d="M736 1219l-247 -290h-110l178 290h179zM676 828h186l-365 -914l-165 -411h-182l197 486l-341 839h185l247 -637z" />
    <glyph glyph-name="thorn" unicode="&#xfe;" horiz-adv-x="1089" 
d="M594 845q177 0 300.5 -125.5t123.5 -305.5q0 -179 -123 -304.5t-301 -125.5q-160 0 -278 108v-589h-171v1992h171v-758q118 108 278 108zM584 146q111 0 189.5 78t78.5 190t-78.5 190.5t-189.5 78.5q-112 0 -190 -78.5t-78 -190.5t78 -190t190 -78z" />
    <glyph glyph-name="ydieresis" unicode="&#xff;" horiz-adv-x="870" 
d="M268 1047q-44 0 -76 32t-32 75q0 45 32 76.5t76 31.5q45 0 77 -31.5t32 -76.5q0 -43 -32.5 -75t-76.5 -32zM600 1047q-44 0 -76 31.5t-32 75.5q0 45 31.5 76.5t76.5 31.5q44 0 76 -31.5t32 -76.5q0 -43 -32 -75t-76 -32zM676 828h186l-365 -914l-165 -411h-182l197 486
l-341 839h185l247 -637z" />
    <glyph glyph-name="Amacron" unicode="&#x100;" horiz-adv-x="1128" 
d="M790 1481v-110h-452v110h452zM915 0l-91 268h-519l-92 -268h-185l441 1219h190l440 -1219h-184zM358 424h413l-206 603z" />
    <glyph glyph-name="amacron" unicode="&#x101;" horiz-adv-x="1122" 
d="M735 1090v-110h-452v110h452zM1025 143h47v-143q-45 -16 -86 -16q-65 0 -115 37t-75 100q-57 -64 -135 -100.5t-166 -36.5q-177 0 -300.5 125.5t-123.5 304.5t123.5 305t300.5 126q164 0 279 -110v93h171v-587q0 -52 22.5 -75t57.5 -23zM509 146q111 0 190 78t79 190
t-79 190.5t-190 78.5q-112 0 -190 -78.5t-78 -190.5t78 -190t190 -78z" />
    <glyph glyph-name="Abreve" unicode="&#x102;" horiz-adv-x="1128" 
d="M564 1361q-124 0 -199.5 64.5t-75.5 184.5h98q0 -65 50 -109t127 -44q78 0 128 44t50 109h98q0 -120 -75.5 -184.5t-200.5 -64.5zM915 0l-91 268h-519l-92 -268h-185l441 1219h190l440 -1219h-184zM358 424h413l-206 603z" />
    <glyph glyph-name="abreve" unicode="&#x103;" horiz-adv-x="1122" 
d="M508 970q-124 0 -199.5 64.5t-75.5 184.5h98q0 -65 50 -109t127 -44q78 0 128 44t50 109h98q0 -120 -75.5 -184.5t-200.5 -64.5zM1025 143h47v-143q-45 -16 -86 -16q-65 0 -115 37t-75 100q-57 -64 -135 -100.5t-166 -36.5q-177 0 -300.5 125.5t-123.5 304.5t123.5 305
t300.5 126q164 0 279 -110v93h171v-587q0 -52 22.5 -75t57.5 -23zM509 146q111 0 190 78t79 190t-79 190.5t-190 78.5q-112 0 -190 -78.5t-78 -190.5t78 -190t190 -78z" />
    <glyph glyph-name="Aogonek" unicode="&#x104;" horiz-adv-x="1128" 
d="M1141 -256l55 -77q-93 -94 -229 -88q-87 5 -137.5 52.5t-50.5 125.5q0 75 49 133t140 110h-53l-91 268h-519l-92 -268h-185l441 1219h190l440 -1219q-50 -27 -82.5 -47.5t-64 -48.5t-47 -61t-15.5 -72q0 -48 27 -77t76 -29q93 0 148 79zM358 424h413l-206 603z" />
    <glyph glyph-name="aogonek" unicode="&#x105;" horiz-adv-x="1122" 
d="M1114 -256l55 -77q-93 -94 -229 -88q-87 5 -137.5 52.5t-50.5 125.5q0 130 176 235q-93 29 -132 129q-57 -64 -135 -100.5t-166 -36.5q-177 0 -300.5 125.5t-123.5 304.5t123.5 305t300.5 126q164 0 279 -110v93h171v-587q0 -52 22.5 -75t57.5 -23h47v-143
q-50 -27 -82.5 -47.5t-64 -48.5t-47 -61t-15.5 -72q0 -48 27 -77t76 -29q93 0 148 79zM509 146q111 0 190 78t79 190t-79 190.5t-190 78.5q-112 0 -190 -78.5t-78 -190.5t78 -190t190 -78z" />
    <glyph glyph-name="Cacute" unicode="&#x106;" horiz-adv-x="1316" 
d="M603 1320l178 290h179l-247 -290h-110zM712 -16q-128 0 -243.5 49.5t-199.5 133t-133.5 199.5t-49.5 244q0 127 49.5 243t133.5 199.5t200 133t243 49.5q173 0 319 -87.5t228 -234.5l-147 -81q-59 107 -165 170t-235 63q-191 0 -324 -132.5t-133 -322.5
q0 -191 133 -323.5t324 -132.5q129 0 235 63t165 170l147 -81q-82 -147 -228 -234.5t-319 -87.5z" />
    <glyph glyph-name="cacute" unicode="&#x107;" horiz-adv-x="996" 
d="M441 929l178 290h179l-247 -290h-110zM508 -16q-186 0 -312 124.5t-126 305.5t126 306t312 125q155 0 270.5 -87.5t152.5 -226.5h-180q-33 68 -98 109.5t-145 42.5q-112 -1 -190 -78.5t-78 -190.5t78 -190.5t190 -77.5q80 0 145 41.5t98 109.5h180q-37 -139 -152.5 -226
t-270.5 -87z" />
    <glyph glyph-name="Cdotaccent" unicode="&#x10a;" horiz-adv-x="1316" 
d="M658 1438q-44 0 -76 32t-32 75q0 45 32 76.5t76 31.5q45 0 77 -31.5t32 -76.5q0 -43 -32.5 -75t-76.5 -32zM712 -16q-128 0 -243.5 49.5t-199.5 133t-133.5 199.5t-49.5 244q0 127 49.5 243t133.5 199.5t200 133t243 49.5q173 0 319 -87.5t228 -234.5l-147 -81
q-59 107 -165 170t-235 63q-191 0 -324 -132.5t-133 -322.5q0 -191 133 -323.5t324 -132.5q129 0 235 63t165 170l147 -81q-82 -147 -228 -234.5t-319 -87.5z" />
    <glyph glyph-name="cdotaccent" unicode="&#x10b;" horiz-adv-x="996" 
d="M496 1047q-44 0 -76 32t-32 75q0 45 32 76.5t76 31.5q45 0 77 -31.5t32 -76.5q0 -43 -32.5 -75t-76.5 -32zM508 -16q-186 0 -312 124.5t-126 305.5t126 306t312 125q155 0 270.5 -87.5t152.5 -226.5h-180q-33 68 -98 109.5t-145 42.5q-112 -1 -190 -78.5t-78 -190.5
t78 -190.5t190 -77.5q80 0 145 41.5t98 109.5h180q-37 -139 -152.5 -226t-270.5 -87z" />
    <glyph glyph-name="Ccaron" unicode="&#x10c;" horiz-adv-x="1316" 
d="M578 1320l-169 290h125l124 -199l123 199h126l-171 -290h-158zM712 -16q-128 0 -243.5 49.5t-199.5 133t-133.5 199.5t-49.5 244q0 127 49.5 243t133.5 199.5t200 133t243 49.5q173 0 319 -87.5t228 -234.5l-147 -81q-59 107 -165 170t-235 63q-191 0 -324 -132.5
t-133 -322.5q0 -191 133 -323.5t324 -132.5q129 0 235 63t165 170l147 -81q-82 -147 -228 -234.5t-319 -87.5z" />
    <glyph glyph-name="ccaron" unicode="&#x10d;" horiz-adv-x="996" 
d="M416 929l-169 290h125l124 -199l123 199h126l-171 -290h-158zM508 -16q-186 0 -312 124.5t-126 305.5t126 306t312 125q155 0 270.5 -87.5t152.5 -226.5h-180q-33 68 -98 109.5t-145 42.5q-112 -1 -190 -78.5t-78 -190.5t78 -190.5t190 -77.5q80 0 145 41.5t98 109.5h180
q-37 -139 -152.5 -226t-270.5 -87z" />
    <glyph glyph-name="Dcaron" unicode="&#x10e;" horiz-adv-x="1234" 
d="M538 1320l-169 290h125l124 -199l123 199h126l-171 -290h-158zM182 0v1219h330q153 0 275 -47.5t199 -131t117.5 -193t40.5 -237.5t-40.5 -238t-117.5 -193.5t-199 -131t-275 -47.5h-330zM351 163h159q121 0 211.5 33.5t144.5 94.5t80.5 140.5t26.5 178.5t-26.5 178.5
t-80.5 140t-144.5 94t-211.5 33.5h-159v-893z" />
    <glyph glyph-name="dcaron" unicode="&#x10f;" horiz-adv-x="1172" 
d="M754 736v759h170v-1495h-170v93q-117 -109 -280 -109q-176 0 -300 125.5t-124 304.5t124 305t300 126q163 0 280 -109zM1207 1219h185l-260 -465h-131zM489 146q111 0 189.5 78t78.5 190t-78.5 190.5t-189.5 78.5q-112 0 -190 -78.5t-78 -190.5t78 -190t190 -78z" />
    <glyph glyph-name="Dcroat" unicode="&#x110;" horiz-adv-x="1234" 
d="M512 1219q153 0 275 -47.5t199 -131t117.5 -193t40.5 -237.5t-40.5 -238t-117.5 -193.5t-199 -131t-275 -47.5h-330v545h-85v130h85v544h330zM510 163q121 0 211.5 33.5t144.5 94.5t80.5 140.5t26.5 178.5t-26.5 178.5t-80.5 140t-144.5 94t-211.5 33.5h-159v-381h246
v-130h-246v-382h159z" />
    <glyph glyph-name="dcroat" unicode="&#x111;" horiz-adv-x="1090" 
d="M1088 1284v-130h-144v-1154h-170v93q-117 -109 -280 -109q-176 0 -300 125.5t-124 304.5t124 305t300 126q163 0 280 -109v418h-186v130h186v211h170v-211h144zM509 146q111 0 189.5 78t78.5 190t-78.5 190.5t-189.5 78.5q-112 0 -190 -78.5t-78 -190.5t78 -190t190 -78z
" />
    <glyph glyph-name="Emacron" unicode="&#x112;" horiz-adv-x="963" 
d="M708 1481v-110h-452v110h452zM867 1060h-514v-371h446v-159h-446v-371h514v-159h-685v1219h685v-159z" />
    <glyph glyph-name="emacron" unicode="&#x113;" horiz-adv-x="1011" 
d="M731 1090v-110h-452v110h452zM942 420l-1 -33h-699q8 -109 82.5 -180t183.5 -71q84 0 149 42t95 113h175q-38 -136 -151.5 -221.5t-266.5 -85.5q-187 0 -312.5 123.5t-125.5 306.5t125.5 307t310.5 124q184 0 308 -121t127 -304zM508 691q-86 0 -152 -46.5t-96 -124.5
h492q-29 78 -93.5 124.5t-150.5 46.5z" />
    <glyph glyph-name="Edotaccent" unicode="&#x116;" horiz-adv-x="963" 
d="M482 1438q-44 0 -76 32t-32 75q0 45 32 76.5t76 31.5q45 0 77 -31.5t32 -76.5q0 -43 -32.5 -75t-76.5 -32zM867 1060h-514v-371h446v-159h-446v-371h514v-159h-685v1219h685v-159z" />
    <glyph glyph-name="edotaccent" unicode="&#x117;" horiz-adv-x="1011" 
d="M505 1047q-44 0 -76 32t-32 75q0 45 32 76.5t76 31.5q45 0 77 -31.5t32 -76.5q0 -43 -32.5 -75t-76.5 -32zM942 420l-1 -33h-699q8 -109 82.5 -180t183.5 -71q84 0 149 42t95 113h175q-38 -136 -151.5 -221.5t-266.5 -85.5q-187 0 -312.5 123.5t-125.5 306.5t125.5 307
t310.5 124q184 0 308 -121t127 -304zM508 691q-86 0 -152 -46.5t-96 -124.5h492q-29 78 -93.5 124.5t-150.5 46.5z" />
    <glyph glyph-name="Eogonek" unicode="&#x118;" horiz-adv-x="963" 
d="M909 -256l55 -77q-93 -94 -229 -88q-87 5 -137.5 52.5t-50.5 125.5q0 75 49 133t140 110h-554v1219h685v-159h-514v-371h446v-159h-446v-371h514v-159q-50 -27 -82.5 -47.5t-64 -48.5t-47 -61t-15.5 -72q0 -48 27 -77t76 -29q93 0 148 79z" />
    <glyph glyph-name="eogonek" unicode="&#x119;" horiz-adv-x="1011" 
d="M942 420l-1 -33h-699q8 -109 82.5 -180t183.5 -71q84 0 149 42t95 113h175q-29 -103 -103 -179t-178 -108q-97 -52 -147.5 -102t-50.5 -121q0 -48 27 -77t76 -29q93 0 148 79l55 -77q-93 -94 -229 -88q-87 5 -137.5 52.5t-50.5 125.5q0 119 148 218q-178 8 -296 130
t-118 299q0 183 125.5 307t310.5 124q184 0 308 -121t127 -304zM508 691q-86 0 -152 -46.5t-96 -124.5h492q-29 78 -93.5 124.5t-150.5 46.5z" />
    <glyph glyph-name="Ecaron" unicode="&#x11a;" horiz-adv-x="963" 
d="M560 1320h-158l-169 290h125l124 -199l123 199h126zM867 1060h-514v-371h446v-159h-446v-371h514v-159h-685v1219h685v-159z" />
    <glyph glyph-name="ecaron" unicode="&#x11b;" horiz-adv-x="1011" 
d="M583 929h-158l-169 290h125l124 -199l123 199h126zM942 420l-1 -33h-699q8 -109 82.5 -180t183.5 -71q84 0 149 42t95 113h175q-38 -136 -151.5 -221.5t-266.5 -85.5q-187 0 -312.5 123.5t-125.5 306.5t125.5 307t310.5 124q184 0 308 -121t127 -304zM508 691
q-86 0 -152 -46.5t-96 -124.5h492q-29 78 -93.5 124.5t-150.5 46.5z" />
    <glyph glyph-name="Gbreve" unicode="&#x11e;" horiz-adv-x="1409" 
d="M704 1361q-124 0 -199.5 64.5t-75.5 184.5h98q0 -65 50 -109t127 -44q78 0 128 44t50 109h98q0 -120 -75.5 -184.5t-200.5 -64.5zM710 654h628v-44q0 -128 -49.5 -244t-133.5 -199.5t-199.5 -133t-243.5 -49.5t-243.5 49.5t-199.5 133t-133.5 199.5t-49.5 244
q0 127 49.5 243t133.5 199.5t200 133t243 49.5q173 0 319 -87.5t228 -234.5l-147 -81q-59 107 -165 170t-235 63q-191 0 -324 -132.5t-133 -322.5q0 -191 133 -323.5t324 -132.5q162 0 285 98t159 252h-446v150z" />
    <glyph glyph-name="gbreve" unicode="&#x11f;" horiz-adv-x="1089" 
d="M537 970q-124 0 -199.5 64.5t-75.5 184.5h98q0 -65 50 -109t127 -44q78 0 128 44t50 109h98q0 -120 -75.5 -184.5t-200.5 -64.5zM772 828h172v-897q0 -221 -115.5 -333t-314.5 -112q-152 0 -265.5 79t-159.5 210l157 68q25 -88 97.5 -142t170.5 -54q260 0 260 281v165
q-117 -109 -280 -109q-176 0 -300 125.5t-124 304.5q0 180 123.5 305.5t300.5 125.5q161 0 278 -107v90zM509 146q111 0 189.5 78.5t78.5 189.5q0 112 -78.5 190.5t-189.5 78.5q-112 0 -190 -78.5t-78 -190.5q0 -111 78 -189.5t190 -78.5z" />
    <glyph glyph-name="Gdotaccent" unicode="&#x120;" horiz-adv-x="1409" 
d="M704 1438q-44 0 -76 32t-32 75q0 45 32 76.5t76 31.5q45 0 77 -31.5t32 -76.5q0 -43 -32.5 -75t-76.5 -32zM710 654h628v-44q0 -128 -49.5 -244t-133.5 -199.5t-199.5 -133t-243.5 -49.5t-243.5 49.5t-199.5 133t-133.5 199.5t-49.5 244q0 127 49.5 243t133.5 199.5
t200 133t243 49.5q173 0 319 -87.5t228 -234.5l-147 -81q-59 107 -165 170t-235 63q-191 0 -324 -132.5t-133 -322.5q0 -191 133 -323.5t324 -132.5q162 0 285 98t159 252h-446v150z" />
    <glyph glyph-name="gdotaccent" unicode="&#x121;" horiz-adv-x="1089" 
d="M538 1047q-44 0 -76 32t-32 75q0 45 32 76.5t76 31.5q45 0 77 -31.5t32 -76.5q0 -43 -32.5 -75t-76.5 -32zM772 828h172v-897q0 -221 -115.5 -333t-314.5 -112q-152 0 -265.5 79t-159.5 210l157 68q25 -88 97.5 -142t170.5 -54q260 0 260 281v165q-117 -109 -280 -109
q-176 0 -300 125.5t-124 304.5q0 180 123.5 305.5t300.5 125.5q161 0 278 -107v90zM509 146q111 0 189.5 78.5t78.5 189.5q0 112 -78.5 190.5t-189.5 78.5q-112 0 -190 -78.5t-78 -190.5q0 -111 78 -189.5t190 -78.5z" />
    <glyph glyph-name="uni0122" unicode="&#x122;" horiz-adv-x="1409" 
d="M710 654h628v-44q0 -128 -49.5 -244t-133.5 -199.5t-199.5 -133t-243.5 -49.5t-243.5 49.5t-199.5 133t-133.5 199.5t-49.5 244q0 127 49.5 243t133.5 199.5t200 133t243 49.5q173 0 319 -87.5t228 -234.5l-147 -81q-59 107 -165 170t-235 63q-191 0 -324 -132.5
t-133 -322.5q0 -191 133 -323.5t324 -132.5q162 0 285 98t159 252h-446v150zM493 -392l120 292h181l-199 -292h-102z" />
    <glyph glyph-name="uni0123" unicode="&#x123;" horiz-adv-x="1089" 
d="M747 1219l-119 -272h-182l200 272h101zM772 828h172v-897q0 -221 -115.5 -333t-314.5 -112q-152 0 -265.5 79t-159.5 210l157 68q25 -88 97.5 -142t170.5 -54q260 0 260 281v165q-117 -109 -280 -109q-176 0 -300 125.5t-124 304.5q0 180 123.5 305.5t300.5 125.5
q161 0 278 -107v90zM509 146q111 0 189.5 78.5t78.5 189.5q0 112 -78.5 190.5t-189.5 78.5q-112 0 -190 -78.5t-78 -190.5q0 -111 78 -189.5t190 -78.5z" />
    <glyph glyph-name="Hbar" unicode="&#x126;" horiz-adv-x="1324" 
d="M1250 1021v-97h-108v-924h-171v528h-618v-528h-171v924h-107v97h107v198h171v-198h618v198h171v-198h108zM971 692v232h-618v-232h618z" />
    <glyph glyph-name="hbar" unicode="&#x127;" horiz-adv-x="946" 
d="M510 845q129 0 219.5 -92t90.5 -225v-528h-171v516q0 70 -48 118.5t-118 48.5t-118.5 -50t-48.5 -121v-512h-171v1154h-101v130h101v211h171v-211h228v-130h-228v-376q86 67 194 67z" />
    <glyph glyph-name="Imacron" unicode="&#x12a;" horiz-adv-x="534" 
d="M41 1371v110h452v-110h-452zM182 0v1219h171v-1219h-171z" />
    <glyph glyph-name="imacron" unicode="&#x12b;" horiz-adv-x="461" 
d="M5 980v110h452v-110h-452zM145 0v828h171v-828h-171z" />
    <glyph glyph-name="Iogonek" unicode="&#x12e;" horiz-adv-x="534" 
d="M394 -256l55 -77q-93 -94 -229 -88q-87 5 -137.5 52.5t-50.5 125.5q0 75 49 133t140 110h-39v1219h171v-1219h-1q-50 -27 -82.5 -47.5t-64 -48.5t-47 -61t-15.5 -72q0 -48 27 -77t76 -29q93 0 148 79z" />
    <glyph glyph-name="iogonek" unicode="&#x12f;" horiz-adv-x="461" 
d="M231 1047q-44 0 -76 32t-32 75q0 45 32 76.5t76 31.5q45 0 77 -31.5t32 -76.5q0 -43 -32.5 -75t-76.5 -32zM358 -256l55 -77q-93 -94 -229 -88q-87 5 -137.5 52.5t-50.5 125.5q0 75 49 133t140 110h-40v828h171v-828q-50 -27 -82.5 -47.5t-64 -48.5t-47 -61t-15.5 -72
q0 -48 27 -77t76 -29q93 0 148 79z" />
    <glyph glyph-name="Idotaccent" unicode="&#x130;" horiz-adv-x="534" 
d="M267 1438q-44 0 -76 32t-32 75q0 45 32 76.5t76 31.5q45 0 77 -31.5t32 -76.5q0 -43 -32.5 -75t-76.5 -32zM182 0v1219h171v-1219h-171z" />
    <glyph glyph-name="dotlessi" unicode="&#x131;" horiz-adv-x="461" 
d="M145 0v828h171v-828h-171z" />
    <glyph glyph-name="uni0136" unicode="&#x136;" horiz-adv-x="1169" 
d="M573 662l581 -662h-235l-491 584h-75v-584h-171v1219h171v-479h75l463 479h230zM379 -392l120 292h181l-199 -292h-102z" />
    <glyph glyph-name="uni0137" unicode="&#x137;" horiz-adv-x="896" 
d="M494 457l411 -457h-230l-359 425v-425h-171v1495h171v-999l337 332h217zM256 -392l120 292h181l-199 -292h-102z" />
    <glyph glyph-name="Lacute" unicode="&#x139;" horiz-adv-x="817" 
d="M569 1610l-247 -290h-110l178 290h179zM353 163h438v-163h-609v1219h171v-1056z" />
    <glyph glyph-name="lacute" unicode="&#x13a;" horiz-adv-x="461" 
d="M176 1596l178 290h179l-247 -290h-110zM145 0v1495h171v-1495h-171z" />
    <glyph glyph-name="uni013B" unicode="&#x13b;" horiz-adv-x="817" 
d="M353 163h438v-163h-609v1219h171v-1056zM275 -392l120 292h181l-199 -292h-102z" />
    <glyph glyph-name="uni013C" unicode="&#x13c;" horiz-adv-x="461" 
d="M145 0v1495h171v-1495h-171zM20 -392l120 292h181l-199 -292h-102z" />
    <glyph glyph-name="Lcaron" unicode="&#x13d;" horiz-adv-x="817" 
d="M353 1219v-1056h438v-163h-609v1219h171zM885 1219l-260 -465h-131l207 465h184z" />
    <glyph glyph-name="lcaron" unicode="&#x13e;" horiz-adv-x="540" 
d="M125 0v1495h171v-1495h-171zM367 754l207 465h184l-260 -465h-131z" />
    <glyph glyph-name="Lslash" unicode="&#x141;" horiz-adv-x="817" 
d="M353 163h438v-163h-609v394l-76 -80v166l76 80v659h171v-478l156 165v-167l-156 -165v-411z" />
    <glyph glyph-name="lslash" unicode="&#x142;" horiz-adv-x="461" 
d="M432 888v-167l-116 -122v-599h-171v418l-116 -122v166l116 123v910h171v-730z" />
    <glyph glyph-name="Nacute" unicode="&#x143;" horiz-adv-x="1408" 
d="M1005 1610l-247 -290h-110l178 290h179zM1056 1219h170v-1219h-168l-705 944v-944h-171v1219h167l707 -943v943z" />
    <glyph glyph-name="nacute" unicode="&#x144;" horiz-adv-x="952" 
d="M779 1219l-247 -290h-110l178 290h179zM522 845q123 0 214 -93.5t91 -225.5v-526h-171v514q0 71 -48.5 120t-119.5 49q-72 0 -122 -49t-50 -120v-514h-171v828h171v-72q86 89 206 89z" />
    <glyph glyph-name="uni0145" unicode="&#x145;" horiz-adv-x="1408" 
d="M1056 1219h170v-1219h-168l-705 944v-944h-171v1219h167l707 -943v943zM492 -392l120 292h181l-199 -292h-102z" />
    <glyph glyph-name="uni0146" unicode="&#x146;" horiz-adv-x="952" 
d="M522 845q123 0 214 -93.5t91 -225.5v-526h-171v514q0 71 -48.5 120t-119.5 49q-72 0 -122 -49t-50 -120v-514h-171v828h171v-72q86 89 206 89zM266 -392l120 292h181l-199 -292h-102z" />
    <glyph glyph-name="Ncaron" unicode="&#x147;" horiz-adv-x="1408" 
d="M781 1320h-158l-169 290h125l124 -199l123 199h126zM1056 1219h170v-1219h-168l-705 944v-944h-171v1219h167l707 -943v943z" />
    <glyph glyph-name="ncaron" unicode="&#x148;" horiz-adv-x="952" 
d="M555 929h-158l-169 290h125l124 -199l123 199h126zM522 845q123 0 214 -93.5t91 -225.5v-526h-171v514q0 71 -48.5 120t-119.5 49q-72 0 -122 -49t-50 -120v-514h-171v828h171v-72q86 89 206 89z" />
    <glyph glyph-name="Eng" unicode="&#x14a;" horiz-adv-x="1408" 
d="M1056 1219h170v-1385q0 -138 -68.5 -195.5t-208.5 -55.5v135q53 -1 81 24.5t28 102.5v155l-705 944v-944h-171v1219h167l707 -943v943z" />
    <glyph glyph-name="eng" unicode="&#x14b;" horiz-adv-x="952" 
d="M523 845q122 0 213 -93.5t91 -225.5v-720q0 -142 -69 -200.5t-212 -57.5v110q53 -2 81.5 24t28.5 106v726q0 72 -48.5 120.5t-119.5 48.5q-72 0 -122 -48.5t-50 -120.5v-514h-171v828h171v-72q89 89 207 89z" />
    <glyph glyph-name="Omacron" unicode="&#x14c;" horiz-adv-x="1424" 
d="M486 1371v110h452v-110h-452zM712 -16q-128 0 -243.5 49.5t-199.5 133t-133.5 199.5t-49.5 244q0 127 49.5 243t133.5 199.5t200 133t243 49.5t243 -49.5t200 -133t133.5 -199.5t49.5 -243q0 -128 -49.5 -244t-133.5 -199.5t-199.5 -133t-243.5 -49.5zM712 154
q191 0 323.5 132.5t132.5 323.5q0 190 -132.5 322.5t-323.5 132.5t-324 -132.5t-133 -322.5q0 -191 133 -323.5t324 -132.5z" />
    <glyph glyph-name="omacron" unicode="&#x14d;" horiz-adv-x="1019" 
d="M282 980v110h452v-110h-452zM509 -16q-187 0 -313 124.5t-126 305.5q0 182 126 306.5t313 124.5q186 0 312.5 -125t126.5 -306t-126.5 -305.5t-312.5 -124.5zM509 146q112 0 190 78t78 190t-78 190t-190 79q-112 -1 -190 -79t-78 -190t77.5 -190t190.5 -78z" />
    <glyph glyph-name="Ohungarumlaut" unicode="&#x150;" horiz-adv-x="1424" 
d="M517 1320l176 290h178l-245 -290h-109zM798 1320l176 290h178l-245 -290h-109zM712 -16q-128 0 -243.5 49.5t-199.5 133t-133.5 199.5t-49.5 244q0 127 49.5 243t133.5 199.5t200 133t243 49.5t243 -49.5t200 -133t133.5 -199.5t49.5 -243q0 -128 -49.5 -244
t-133.5 -199.5t-199.5 -133t-243.5 -49.5zM712 154q191 0 323.5 132.5t132.5 323.5q0 190 -132.5 322.5t-323.5 132.5t-324 -132.5t-133 -322.5q0 -191 133 -323.5t324 -132.5z" />
    <glyph glyph-name="ohungarumlaut" unicode="&#x151;" horiz-adv-x="1019" 
d="M313 929l176 290h178l-245 -290h-109zM594 929l176 290h178l-245 -290h-109zM509 -16q-187 0 -313 124.5t-126 305.5q0 182 126 306.5t313 124.5q186 0 312.5 -125t126.5 -306t-126.5 -305.5t-312.5 -124.5zM509 146q112 0 190 78t78 190t-78 190t-190 79
q-112 -1 -190 -79t-78 -190t77.5 -190t190.5 -78z" />
    <glyph glyph-name="OE" unicode="&#x152;" horiz-adv-x="1674" 
d="M1578 1062h-513v-374h444v-157h-444v-374h513v-157h-659v20q-97 -36 -207 -36q-128 0 -243.5 49.5t-199.5 133t-133.5 199.5t-49.5 244q0 127 49.5 243t133.5 199.5t200 133t243 49.5q110 0 207 -36v20h659v-157zM713 149q111 0 206 50v821q-95 50 -206 50
q-193 0 -327 -134t-134 -326q0 -193 134 -327t327 -134z" />
    <glyph glyph-name="oe" unicode="&#x153;" horiz-adv-x="1723" 
d="M1654 420l-2 -33h-699q8 -109 82.5 -180t184.5 -71q83 0 148.5 42t95.5 113h174q-37 -136 -151 -221.5t-266 -85.5q-111 0 -204 46t-152 128q-60 -81 -153 -127.5t-203 -46.5q-187 0 -313 124.5t-126 305.5q0 182 126 306.5t313 124.5q110 0 202.5 -46.5t152.5 -127.5
q60 81 153 127.5t202 46.5q184 0 308 -121t127 -304zM1220 691q-87 0 -153 -46.5t-96 -124.5h492q-28 78 -92.5 124.5t-150.5 46.5zM509 146q112 0 190 78t78 190t-78 190t-190 79q-112 -1 -190 -79t-78 -190t77.5 -190t190.5 -78z" />
    <glyph glyph-name="Racute" unicode="&#x154;" horiz-adv-x="1114" 
d="M861 1610l-247 -290h-110l178 290h179zM716 543l354 -543h-196l-336 535h-185v-535h-171v1219h459q149 0 248 -101t99 -248q0 -123 -76 -214.5t-196 -112.5zM353 689h272q86 0 140.5 50.5t54.5 132.5t-54.5 133t-140.5 51h-272v-367z" />
    <glyph glyph-name="racute" unicode="&#x155;" horiz-adv-x="651" 
d="M294 929l178 290h179l-247 -290h-110zM145 0v828h171v-110q98 127 264 127q24 0 64 -6v-163q-47 7 -67 7q-112 0 -186.5 -72.5t-74.5 -189.5v-421h-171z" />
    <glyph glyph-name="uni0156" unicode="&#x156;" horiz-adv-x="1114" 
d="M716 543l354 -543h-196l-336 535h-185v-535h-171v1219h459q149 0 248 -101t99 -248q0 -123 -76 -214.5t-196 -112.5zM353 689h272q86 0 140.5 50.5t54.5 132.5t-54.5 133t-140.5 51h-272v-367zM349 -392l120 292h181l-199 -292h-102z" />
    <glyph glyph-name="uni0157" unicode="&#x157;" horiz-adv-x="651" 
d="M145 0v828h171v-110q98 127 264 127q24 0 64 -6v-163q-47 7 -67 7q-112 0 -186.5 -72.5t-74.5 -189.5v-421h-171zM20 -392l120 292h181l-199 -292h-102z" />
    <glyph glyph-name="Rcaron" unicode="&#x158;" horiz-adv-x="1114" 
d="M638 1320h-158l-169 290h125l124 -199l123 199h126zM716 543l354 -543h-196l-336 535h-185v-535h-171v1219h459q149 0 248 -101t99 -248q0 -123 -76 -214.5t-196 -112.5zM353 689h272q86 0 140.5 50.5t54.5 132.5t-54.5 133t-140.5 51h-272v-367z" />
    <glyph glyph-name="rcaron" unicode="&#x159;" horiz-adv-x="651" 
d="M269 929l-169 290h125l124 -199l123 199h126l-171 -290h-158zM145 0v828h171v-110q98 127 264 127q24 0 64 -6v-163q-47 7 -67 7q-112 0 -186.5 -72.5t-74.5 -189.5v-421h-171z" />
    <glyph glyph-name="Sacute" unicode="&#x15a;" horiz-adv-x="948" 
d="M419 1320l178 290h179l-247 -290h-110zM484 -16q-141 0 -252.5 69.5t-163.5 184.5l150 91q32 -82 102 -130t165 -48t155 47t60 128q0 55 -32 97t-83.5 69.5t-113.5 52t-124 54t-113.5 66.5t-83.5 98t-32 141q0 151 102 241t251 90q110 0 204 -49t149 -128l-119 -111
q-98 125 -232 125q-80 0 -132 -40.5t-52 -114.5q0 -54 32 -94t83.5 -66t113 -50t123.5 -54t113.5 -69t83.5 -103.5t32 -148.5q0 -160 -110 -254t-276 -94z" />
    <glyph glyph-name="sacute" unicode="&#x15b;" horiz-adv-x="735" 
d="M313 929l178 290h179l-247 -290h-110zM378 -16q-108 0 -197 53t-120 137l150 66q13 -48 61 -77t105 -29q51 0 85.5 25.5t34.5 68.5q0 40 -31.5 63t-113.5 53q-60 23 -98.5 43t-76.5 50t-56 70t-18 91q0 112 77.5 179.5t190.5 67.5q84 0 160 -40t105 -96l-128 -85
q-16 32 -52 52t-81 20q-47 0 -74 -22.5t-27 -63.5q0 -42 30.5 -64t111.5 -53q56 -21 94.5 -40.5t77.5 -50t58.5 -72.5t19.5 -96q0 -111 -82.5 -180.5t-205.5 -69.5z" />
    <glyph glyph-name="Scedilla" unicode="&#x15e;" horiz-adv-x="948" 
d="M870 332q0 -155 -104 -249t-264 -99l-45 -87q82 15 139.5 -28.5t57.5 -119.5q0 -72 -49.5 -122t-121.5 -50q-58 0 -112.5 33t-76.5 80l83 31q15 -23 46 -39t60 -16q34 0 57.5 24t23.5 59q0 52 -43.5 70t-105.5 -8l-71 44l70 134q-118 16 -209.5 82.5t-136.5 166.5l150 91
q32 -82 102 -130t165 -48t155 47t60 128q0 55 -32 97t-83.5 69.5t-113.5 52t-124 54t-113.5 66.5t-83.5 98t-32 141q0 151 102 241t251 90q110 0 204 -49t149 -128l-119 -111q-98 125 -232 125q-80 0 -132 -40.5t-52 -114.5q0 -54 32 -94t83.5 -66t113 -50t123.5 -54
t113.5 -69t83.5 -103.5t32 -148.5z" />
    <glyph glyph-name="scedilla" unicode="&#x15f;" horiz-adv-x="735" 
d="M666 234q0 -107 -76.5 -175.5t-193.5 -74.5l-45 -87q82 15 139.5 -28.5t57.5 -119.5q0 -72 -49.5 -122t-121.5 -50q-58 0 -112.5 33t-76.5 80l83 31q15 -23 46 -39t60 -16q34 0 57.5 24t23.5 59q0 52 -43.5 70t-105.5 -8l-71 44l71 135q-87 16 -154.5 65t-93.5 119
l150 66q13 -48 61 -77t105 -29q51 0 85.5 25.5t34.5 68.5q0 40 -31.5 63t-113.5 53q-60 23 -98.5 43t-76.5 50t-56 70t-18 91q0 112 77.5 179.5t190.5 67.5q84 0 160 -40t105 -96l-128 -85q-16 32 -52 52t-81 20q-47 0 -74 -22.5t-27 -63.5q0 -42 30.5 -64t111.5 -53
q56 -21 94.5 -40.5t77.5 -50t58.5 -72.5t19.5 -96z" />
    <glyph glyph-name="Scaron" unicode="&#x160;" horiz-adv-x="948" 
d="M394 1320l-169 290h125l124 -199l123 199h126l-171 -290h-158zM484 -16q-141 0 -252.5 69.5t-163.5 184.5l150 91q32 -82 102 -130t165 -48t155 47t60 128q0 55 -32 97t-83.5 69.5t-113.5 52t-124 54t-113.5 66.5t-83.5 98t-32 141q0 151 102 241t251 90q110 0 204 -49
t149 -128l-119 -111q-98 125 -232 125q-80 0 -132 -40.5t-52 -114.5q0 -54 32 -94t83.5 -66t113 -50t123.5 -54t113.5 -69t83.5 -103.5t32 -148.5q0 -160 -110 -254t-276 -94z" />
    <glyph glyph-name="scaron" unicode="&#x161;" horiz-adv-x="735" 
d="M288 929l-169 290h125l124 -199l123 199h126l-171 -290h-158zM378 -16q-108 0 -197 53t-120 137l150 66q13 -48 61 -77t105 -29q51 0 85.5 25.5t34.5 68.5q0 40 -31.5 63t-113.5 53q-60 23 -98.5 43t-76.5 50t-56 70t-18 91q0 112 77.5 179.5t190.5 67.5q84 0 160 -40
t105 -96l-128 -85q-16 32 -52 52t-81 20q-47 0 -74 -22.5t-27 -63.5q0 -42 30.5 -64t111.5 -53q56 -21 94.5 -40.5t77.5 -50t58.5 -72.5t19.5 -96q0 -111 -82.5 -180.5t-205.5 -69.5z" />
    <glyph glyph-name="uni0162" unicode="&#x162;" horiz-adv-x="877" 
d="M524 0h-49l-53 -103q82 15 139.5 -28.5t57.5 -119.5q0 -72 -49.5 -122t-121.5 -50q-58 0 -112.5 33t-76.5 80l83 31q15 -23 46 -39t60 -16q34 0 57.5 24t23.5 59q0 52 -43.5 70t-105.5 -8l-71 44l76 145h-32v1056h-327v163h825v-163h-327v-1056z" />
    <glyph glyph-name="uni0163" unicode="&#x163;" horiz-adv-x="621" 
d="M383 -103q82 15 139.5 -28.5t57.5 -119.5q0 -72 -49.5 -122t-121.5 -50q-58 0 -112.5 33t-76.5 80l83 31q15 -23 46 -39t60 -16q34 0 57.5 24t23.5 59q0 52 -43.5 70t-105.5 -8l-71 44l76 145q-76 28 -124.5 93.5t-48.5 148.5v434h-139v152h139v348h170v-348h214v-152
h-214v-412q0 -54 33.5 -87.5t82.5 -33.5h95v-133q-36 -26 -117 -26h-9z" />
    <glyph glyph-name="Tcaron" unicode="&#x164;" horiz-adv-x="877" 
d="M517 1320h-158l-169 290h125l124 -199l123 199h126zM851 1219v-163h-327v-1056h-171v1056h-327v163h825z" />
    <glyph glyph-name="tcaron" unicode="&#x165;" horiz-adv-x="621" 
d="M746 1455h184l-260 -465h-131zM343 1176v-348h214v-152h-214v-412q0 -54 33.5 -87.5t82.5 -33.5h95v-133q-36 -26 -117 -26q-108 0 -186 75.5t-78 182.5v434h-139v152h139v348h170z" />
    <glyph glyph-name="Tbar" unicode="&#x166;" horiz-adv-x="877" 
d="M851 1056h-327v-381h165v-130h-165v-545h-171v545h-164v130h164v381h-327v163h825v-163z" />
    <glyph glyph-name="tbar" unicode="&#x167;" horiz-adv-x="621" 
d="M576 349h-233v-85q0 -54 33.5 -87.5t82.5 -33.5h95v-133q-36 -26 -117 -26q-108 0 -186 75.5t-78 182.5v107h-128v130h128v197h-139v152h139v348h170v-348h214v-152h-214v-197h233v-130z" />
    <glyph glyph-name="Umacron" unicode="&#x16a;" horiz-adv-x="1258" 
d="M403 1371v110h452v-110h-452zM628 -16q-204 0 -338 117.5t-134 296.5v821h171v-792q0 -121 85.5 -200.5t215.5 -79.5q131 0 217 79.5t86 200.5v792h171v-821q0 -179 -134.5 -296.5t-339.5 -117.5z" />
    <glyph glyph-name="umacron" unicode="&#x16b;" horiz-adv-x="923" 
d="M235 980v110h452v-110h-452zM462 -16q-157 0 -245.5 80.5t-88.5 231.5v532h171v-515q0 -85 44 -126t119 -41t119 41t44 126v515h170v-532q0 -151 -88.5 -231.5t-244.5 -80.5z" />
    <glyph glyph-name="Uring" unicode="&#x16e;" horiz-adv-x="1258" 
d="M631 1277q-73 0 -126 52.5t-53 125.5t52.5 125t126.5 52q72 0 124 -52t52 -125t-52 -125.5t-124 -52.5zM631 1358q39 0 67 28t28 69q0 39 -28 69t-67 30q-40 0 -68 -29.5t-28 -69.5q0 -42 27.5 -69.5t68.5 -27.5zM628 -16q-204 0 -338 117.5t-134 296.5v821h171v-792
q0 -121 85.5 -200.5t215.5 -79.5q131 0 217 79.5t86 200.5v792h171v-821q0 -179 -134.5 -296.5t-339.5 -117.5z" />
    <glyph glyph-name="uring" unicode="&#x16f;" horiz-adv-x="923" 
d="M463 886q-73 0 -126 52.5t-53 125.5t52.5 125t126.5 52q72 0 124 -52t52 -125t-52 -125.5t-124 -52.5zM463 967q39 0 67 27.5t28 69.5q0 39 -28 69t-67 30q-40 0 -68 -29.5t-28 -69.5q0 -42 27.5 -69.5t68.5 -27.5zM462 -16q-157 0 -245.5 80.5t-88.5 231.5v532h171v-515
q0 -85 44 -126t119 -41t119 41t44 126v515h170v-532q0 -151 -88.5 -231.5t-244.5 -80.5z" />
    <glyph glyph-name="Uhungarumlaut" unicode="&#x170;" horiz-adv-x="1258" 
d="M435 1320l176 290h178l-245 -290h-109zM716 1320l176 290h178l-245 -290h-109zM628 -16q-204 0 -338 117.5t-134 296.5v821h171v-792q0 -121 85.5 -200.5t215.5 -79.5q131 0 217 79.5t86 200.5v792h171v-821q0 -179 -134.5 -296.5t-339.5 -117.5z" />
    <glyph glyph-name="uhungarumlaut" unicode="&#x171;" horiz-adv-x="923" 
d="M267 929l176 290h178l-245 -290h-109zM548 929l176 290h178l-245 -290h-109zM462 -16q-157 0 -245.5 80.5t-88.5 231.5v532h171v-515q0 -85 44 -126t119 -41t119 41t44 126v515h170v-532q0 -151 -88.5 -231.5t-244.5 -80.5z" />
    <glyph glyph-name="Uogonek" unicode="&#x172;" horiz-adv-x="1258" 
d="M931 1219h171v-821q0 -149 -96 -258t-252 -143q-101 -54 -152.5 -104t-51.5 -122q0 -48 27 -77t76 -29q93 0 148 79l55 -77q-93 -94 -229 -88q-87 5 -137.5 52.5t-50.5 125.5q0 125 163 228q-194 8 -320 124t-126 289v821h171v-792q0 -121 85.5 -200.5t215.5 -79.5
q131 0 217 79.5t86 200.5v792z" />
    <glyph glyph-name="uogonek" unicode="&#x173;" horiz-adv-x="923" 
d="M625 828h170v-532q0 -119 -55 -194.5t-157 -102.5q-103 -55 -155 -105t-52 -123q0 -48 27 -77t76 -29q93 0 148 79l55 -77q-93 -94 -229 -88q-87 5 -137.5 52.5t-50.5 125.5q0 69 42.5 124t121.5 104q-143 8 -222 88t-79 223v532h171v-515q0 -85 44 -126t119 -41t119 41
t44 126v515z" />
    <glyph glyph-name="Wcircumflex" unicode="&#x174;" horiz-adv-x="1761" 
d="M632 1320l170 290h157l172 -290h-126l-122 200l-125 -200h-126zM407 0l-368 1219h180l285 -949l270 949h212l274 -949l284 949h179l-366 -1219h-188l-289 1014l-285 -1014h-188z" />
    <glyph glyph-name="wcircumflex" unicode="&#x175;" horiz-adv-x="1372" 
d="M688 1129l-125 -200h-126l170 290h157l172 -290h-126zM1165 828h189l-283 -828h-184l-200 593l-200 -593h-185l-285 828h194l191 -635l210 635h150l210 -635z" />
    <glyph glyph-name="Ycircumflex" unicode="&#x176;" horiz-adv-x="1040" 
d="M270 1320l170 290h157l172 -290h-126l-122 200l-125 -200h-126zM436 0v573l-427 646h205l307 -477l308 477h202l-425 -642v-577h-170z" />
    <glyph glyph-name="ycircumflex" unicode="&#x177;" horiz-adv-x="870" 
d="M436 1129l-125 -200h-126l170 290h157l172 -290h-126zM676 828h186l-365 -914l-165 -411h-182l197 486l-341 839h185l247 -637z" />
    <glyph glyph-name="Ydieresis" unicode="&#x178;" horiz-adv-x="1040" 
d="M353 1438q-44 0 -76 32t-32 75q0 45 32 76.5t76 31.5q45 0 77 -31.5t32 -76.5q0 -43 -32.5 -75t-76.5 -32zM685 1438q-44 0 -76 31.5t-32 75.5q0 45 31.5 76.5t76.5 31.5q44 0 76 -31.5t32 -76.5q0 -43 -32 -75t-76 -32zM436 0v573l-427 646h205l307 -477l308 477h202
l-425 -642v-577h-170z" />
    <glyph glyph-name="Zacute" unicode="&#x179;" horiz-adv-x="1017" 
d="M810 1610l-247 -290h-110l178 290h179zM331 163h635v-163h-925l619 1056h-570v163h859z" />
    <glyph glyph-name="zacute" unicode="&#x17a;" horiz-adv-x="801" 
d="M701 1219l-247 -290h-110l178 290h179zM756 828l-434 -670h428v-158h-718l431 669h-395v159h688z" />
    <glyph glyph-name="Zdotaccent" unicode="&#x17b;" horiz-adv-x="1017" 
d="M508 1438q-44 0 -76 32t-32 75q0 45 32 76.5t76 31.5q45 0 77 -31.5t32 -76.5q0 -43 -32.5 -75t-76.5 -32zM331 163h635v-163h-925l619 1056h-570v163h859z" />
    <glyph glyph-name="zdotaccent" unicode="&#x17c;" horiz-adv-x="801" 
d="M399 1047q-44 0 -76 32t-32 75q0 45 32 76.5t76 31.5q45 0 77 -31.5t32 -76.5q0 -43 -32.5 -75t-76.5 -32zM756 828l-434 -670h428v-158h-718l431 669h-395v159h688z" />
    <glyph glyph-name="Zcaron" unicode="&#x17d;" horiz-adv-x="1017" 
d="M586 1320h-158l-169 290h125l124 -199l123 199h126zM331 163h635v-163h-925l619 1056h-570v163h859z" />
    <glyph glyph-name="zcaron" unicode="&#x17e;" horiz-adv-x="801" 
d="M477 929h-158l-169 290h125l124 -199l123 199h126zM756 828l-434 -670h428v-158h-718l431 669h-395v159h688z" />
    <glyph glyph-name="florin" unicode="&#x192;" horiz-adv-x="836" 
d="M658 1114q-62 0 -105.5 -40.5t-54.5 -106.5l-24 -154h224l-19 -127h-226l-173 -1092h-148l172 1092h-136l19 127h137l27 174q17 105 102 176.5t189 71.5q74 0 112 -28l-15 -120q-30 27 -81 27z" />
    <glyph glyph-name="uni0218" unicode="&#x218;" horiz-adv-x="948" 
d="M484 -16q-141 0 -252.5 69.5t-163.5 184.5l150 91q32 -82 102 -130t165 -48t155 47t60 128q0 55 -32 97t-83.5 69.5t-113.5 52t-124 54t-113.5 66.5t-83.5 98t-32 141q0 151 102 241t251 90q110 0 204 -49t149 -128l-119 -111q-98 125 -232 125q-80 0 -132 -40.5
t-52 -114.5q0 -54 32 -94t83.5 -66t113 -50t123.5 -54t113.5 -69t83.5 -103.5t32 -148.5q0 -160 -110 -254t-276 -94zM263 -392l120 292h181l-199 -292h-102z" />
    <glyph glyph-name="uni0219" unicode="&#x219;" horiz-adv-x="735" 
d="M378 -16q-108 0 -197 53t-120 137l150 66q13 -48 61 -77t105 -29q51 0 85.5 25.5t34.5 68.5q0 40 -31.5 63t-113.5 53q-60 23 -98.5 43t-76.5 50t-56 70t-18 91q0 112 77.5 179.5t190.5 67.5q84 0 160 -40t105 -96l-128 -85q-16 32 -52 52t-81 20q-47 0 -74 -22.5
t-27 -63.5q0 -42 30.5 -64t111.5 -53q56 -21 94.5 -40.5t77.5 -50t58.5 -72.5t19.5 -96q0 -111 -82.5 -180.5t-205.5 -69.5zM157 -392l120 292h181l-199 -292h-102z" />
    <glyph glyph-name="uni021A" unicode="&#x21a;" horiz-adv-x="877" 
d="M26 1219h825v-163h-327v-1056h-171v1056h-327v163zM228 -392l120 292h181l-199 -292h-102z" />
    <glyph glyph-name="uni021B" unicode="&#x21b;" horiz-adv-x="621" 
d="M557 676h-214v-412q0 -54 33.5 -87.5t82.5 -33.5h95v-133q-36 -26 -117 -26q-108 0 -186 75.5t-78 182.5v434h-139v152h139v348h170v-348h214v-152zM189 -392l120 292h181l-199 -292h-102z" />
    <glyph glyph-name="uni0237" unicode="&#x237;" horiz-adv-x="461" 
d="M52 -553q-78 0 -117 26v133h90q52 0 86 33.5t34 87.5v1101h171v-1119q0 -114 -74 -188t-190 -74z" />
    <glyph glyph-name="circumflex" unicode="&#x2c6;" horiz-adv-x="603" 
d="M60 917l170 302h141l172 -302h-118l-122 200l-125 -200h-118z" />
    <glyph glyph-name="caron" unicode="&#x2c7;" horiz-adv-x="605" 
d="M231 917l-169 302h117l124 -199l123 199h118l-171 -302h-142z" />
    <glyph glyph-name="breve" unicode="&#x2d8;" horiz-adv-x="750" 
d="M374 970q-124 0 -199.5 64.5t-75.5 184.5h98q0 -65 50 -109t127 -44q78 0 128 44t50 109h98q0 -120 -75.5 -184.5t-200.5 -64.5z" />
    <glyph glyph-name="dotaccent" unicode="&#x2d9;" horiz-adv-x="461" 
d="M230 1047q-44 0 -76 32t-32 75q0 45 32 76.5t76 31.5q45 0 77 -31.5t32 -76.5q0 -43 -32.5 -75t-76.5 -32z" />
    <glyph glyph-name="ring" unicode="&#x2da;" horiz-adv-x="572" 
d="M287 886q-73 0 -126 52.5t-53 125.5t52.5 125t126.5 52q72 0 124 -52t52 -125t-52 -125.5t-124 -52.5zM287 967q39 0 67 27.5t28 69.5q0 39 -28 69t-67 30q-40 0 -68 -29.5t-28 -69.5q0 -42 27.5 -69.5t68.5 -27.5z" />
    <glyph glyph-name="ogonek" unicode="&#x2db;" horiz-adv-x="554" 
d="M278 -421q-87 5 -137.5 52.5t-50.5 125.5q0 84 62 147t176 123l82 -27q-50 -27 -82.5 -47.5t-64 -48.5t-47 -61t-15.5 -72q0 -48 27 -77t76 -29q93 0 148 79l55 -77q-93 -94 -229 -88z" />
    <glyph glyph-name="tilde" unicode="&#x2dc;" horiz-adv-x="799" 
d="M506 986q-92 0 -153 91q-26 39 -58 39q-34 0 -52 -34t-18 -88h-113q0 102 48.5 167.5t131.5 65.5q89 0 153 -91q28 -40 60 -40q70 0 70 123h111q0 -102 -47.5 -167.5t-132.5 -65.5z" />
    <glyph glyph-name="hungarumlaut" unicode="&#x2dd;" horiz-adv-x="441" 
d="M56 917l178 302h179l-247 -302h-110z" />
    <glyph glyph-name="gravecomb" unicode="&#x300;" 
d="M-166 929l-247 290h179l178 -290h-110z" />
    <glyph glyph-name="acutecomb" unicode="&#x301;" 
d="M-386 929l178 290h179l-247 -290h-110z" />
    <glyph glyph-name="uni0302" unicode="&#x302;" 
d="M-559 929l170 290h157l172 -290h-126l-122 200l-125 -200h-126z" />
    <glyph glyph-name="tildecomb" unicode="&#x303;" 
d="M-293 986q-41 0 -74.5 20.5t-52.5 44.5t-41.5 44.5t-42.5 20.5q-34 0 -52 -34t-18 -88h-113q0 102 48.5 167.5t131.5 65.5q32 0 60 -13.5t47 -32.5t36 -38.5t34.5 -33t35.5 -13.5q70 0 70 123h111q0 -102 -47.5 -167.5t-132.5 -65.5z" />
    <glyph glyph-name="uni0304" unicode="&#x304;" 
d="M-597 980v110h452v-110h-452z" />
    <glyph glyph-name="uni0306" unicode="&#x306;" 
d="M-376 970q-124 0 -199.5 64.5t-75.5 184.5h98q0 -65 50 -109t127 -44q78 0 128 44t50 109h98q0 -120 -75.5 -184.5t-200.5 -64.5z" />
    <glyph glyph-name="uni0307" unicode="&#x307;" 
d="M-231 1047q-44 0 -76 32t-32 75q0 45 32 76.5t76 31.5q45 0 77 -31.5t32 -76.5q0 -43 -32.5 -75t-76.5 -32z" />
    <glyph glyph-name="uni0308" unicode="&#x308;" 
d="M-562 1047q-44 0 -76 32t-32 75q0 45 32 76.5t76 31.5q45 0 77 -31.5t32 -76.5q0 -43 -32.5 -75t-76.5 -32zM-230 1047q-44 0 -76 31.5t-32 75.5q0 45 31.5 76.5t76.5 31.5q44 0 76 -31.5t32 -76.5q0 -43 -32 -75t-76 -32z" />
    <glyph glyph-name="uni030A" unicode="&#x30a;" 
d="M-285 886q-73 0 -126 52.5t-53 125.5t52.5 125t126.5 52q72 0 124 -52t52 -125t-52 -125.5t-124 -52.5zM-285 967q39 0 67 27.5t28 69.5q0 39 -28 69t-67 30q-40 0 -68 -29.5t-28 -69.5q0 -42 27.5 -69.5t68.5 -27.5z" />
    <glyph glyph-name="uni030B" unicode="&#x30b;" 
d="M-664 929l176 290h178l-245 -290h-109zM-383 929l176 290h178l-245 -290h-109z" />
    <glyph glyph-name="uni030C" unicode="&#x30c;" 
d="M-390 929l-169 290h125l124 -199l123 199h126l-171 -290h-158z" />
    <glyph glyph-name="uni0312" unicode="&#x312;" 
d="M-388 947l200 272h101l-119 -272h-182z" />
    <glyph glyph-name="dotbelowcomb" unicode="&#x323;" 
d="M-227 -406q-42 0 -73 30.5t-31 73.5q0 42 31 73t73 31t73 -31t31 -73q0 -43 -31 -73.5t-73 -30.5z" />
    <glyph glyph-name="uni0326" unicode="&#x326;" 
d="M-348 -392l120 292h181l-199 -292h-102z" />
    <glyph glyph-name="uni0327" unicode="&#x327;" 
d="M-261 -423q-58 0 -112.5 33t-76.5 80l83 31q15 -23 46 -39t60 -16q34 0 57.5 24t23.5 59q0 52 -43.5 70t-105.5 -8l-71 44l76 145h90l-53 -103q82 15 139.5 -28.5t57.5 -119.5q0 -72 -49.5 -122t-121.5 -50z" />
    <glyph glyph-name="uni0328" unicode="&#x328;" 
d="M-276 -421q-87 5 -137.5 52.5t-50.5 125.5q0 84 62 147t176 123l82 -27q-50 -27 -82.5 -47.5t-64 -48.5t-47 -61t-15.5 -72q0 -48 27 -77t76 -29q93 0 148 79l55 -77q-93 -94 -229 -88z" />
    <glyph glyph-name="uni0335" unicode="&#x335;" 
d="M-645 355v130h500v-130h-500z" />
    <glyph glyph-name="uni0336" unicode="&#x336;" 
d="M-1320 374v97h1175v-97h-1175z" />
    <glyph glyph-name="uni0337" unicode="&#x337;" 
d="M-441 132v166l403 426v-167z" />
    <glyph glyph-name="uni0338" unicode="&#x338;" 
d="M-636 -45l-108 64l651 933l106 -65z" />
    <glyph glyph-name="uni0394" unicode="&#x394;" horiz-adv-x="1218" 
d="M704 1219l490 -1219h-1170l489 1219h191zM268 150h681l-339 877z" />
    <glyph glyph-name="uni03A9" unicode="&#x3a9;" horiz-adv-x="1445" 
d="M101 0v129h253v10q-95 79 -161 213t-66 292q0 162 76 293.5t214 208t311 76.5q133 0 246 -48t187 -128t115.5 -183.5t41.5 -216.5q0 -156 -67 -294t-163 -213v-10h257v-129h-489v95q124 66 208 203.5t84 320.5q0 122 -47.5 227.5t-145 175t-226.5 69.5
q-191 0 -311 -135.5t-120 -338.5q0 -179 86 -320.5t205 -201.5v-95h-488z" />
    <glyph glyph-name="uni03BC" unicode="&#x3bc;" horiz-adv-x="1024" 
d="M715 813h164v-813h-164v111q-46 -60 -112 -93.5t-141 -33.5q-107 0 -194 66v-456h-124v1219h165v-486q0 -82 58.5 -140t140.5 -58q85 0 146 58t61 140v486z" />
    <glyph glyph-name="pi" unicode="&#x3c0;" horiz-adv-x="1086" 
d="M109 0q50 134 89.5 358.5t47.5 406.5q-159 0 -224 -23l-17 97q80 50 283 50h795l-13 -124h-159v-500q0 -178 27 -265h-153q-30 49 -30 250v515l-354 1q-9 -181 -49.5 -418t-90.5 -348h-152z" />
    <glyph glyph-name="Wgrave" unicode="&#x1e80;" horiz-adv-x="1761" 
d="M826 1320l-247 290h179l178 -290h-110zM407 0l-368 1219h180l285 -949l270 949h212l274 -949l284 949h179l-366 -1219h-188l-289 1014l-285 -1014h-188z" />
    <glyph glyph-name="wgrave" unicode="&#x1e81;" horiz-adv-x="1372" 
d="M741 929h-110l-247 290h179zM1165 828h189l-283 -828h-184l-200 593l-200 -593h-185l-285 828h194l191 -635l210 635h150l210 -635z" />
    <glyph glyph-name="Wacute" unicode="&#x1e82;" horiz-adv-x="1761" 
d="M826 1320l178 290h179l-247 -290h-110zM407 0l-368 1219h180l285 -949l270 949h212l274 -949l284 949h179l-366 -1219h-188l-289 1014l-285 -1014h-188z" />
    <glyph glyph-name="wacute" unicode="&#x1e83;" horiz-adv-x="1372" 
d="M988 1219l-247 -290h-110l178 290h179zM1165 828h189l-283 -828h-184l-200 593l-200 -593h-185l-285 828h194l191 -635l210 635h150l210 -635z" />
    <glyph glyph-name="Wdieresis" unicode="&#x1e84;" horiz-adv-x="1761" 
d="M715 1438q-44 0 -76 32t-32 75q0 45 32 76.5t76 31.5q45 0 77 -31.5t32 -76.5q0 -43 -32.5 -75t-76.5 -32zM1047 1438q-44 0 -76 31.5t-32 75.5q0 45 31.5 76.5t76.5 31.5q44 0 76 -31.5t32 -76.5q0 -43 -32 -75t-76 -32zM407 0l-368 1219h180l285 -949l270 949h212
l274 -949l284 949h179l-366 -1219h-188l-289 1014l-285 -1014h-188z" />
    <glyph glyph-name="wdieresis" unicode="&#x1e85;" horiz-adv-x="1372" 
d="M520 1047q-44 0 -76 32t-32 75q0 45 32 76.5t76 31.5q45 0 77 -31.5t32 -76.5q0 -43 -32.5 -75t-76.5 -32zM852 1047q-44 0 -76 31.5t-32 75.5q0 45 31.5 76.5t76.5 31.5q44 0 76 -31.5t32 -76.5q0 -43 -32 -75t-76 -32zM1165 828h189l-283 -828h-184l-200 593l-200 -593
h-185l-285 828h194l191 -635l210 635h150l210 -635z" />
    <glyph glyph-name="uni1E9E" unicode="&#x1e9e;" horiz-adv-x="1155" 
d="M158 0v779q0 111 31 196t86.5 138t129 79.5t161.5 26.5h468l-280 -499q144 -15 231.5 -113t87.5 -246q0 -156 -95.5 -258.5t-240.5 -102.5h-270v166h238q84 0 140 53.5t56 144.5q0 97 -56.5 149.5t-158.5 52.5h-107v160l180 329h-191q-112 0 -175.5 -63t-63.5 -216v-776
h-171z" />
    <glyph glyph-name="Ygrave" unicode="&#x1ef2;" horiz-adv-x="1040" 
d="M464 1320l-247 290h179l178 -290h-110zM436 0v573l-427 646h205l307 -477l308 477h202l-425 -642v-577h-170z" />
    <glyph glyph-name="ygrave" unicode="&#x1ef3;" horiz-adv-x="870" 
d="M489 929h-110l-247 290h179zM676 828h186l-365 -914l-165 -411h-182l197 486l-341 839h185l247 -637z" />
    <glyph glyph-name="endash" unicode="&#x2013;" horiz-adv-x="1103" 
d="M145 352v142h813v-142h-813z" />
    <glyph glyph-name="emdash" unicode="&#x2014;" horiz-adv-x="1915" 
d="M145 352v142h1625v-142h-1625z" />
    <glyph glyph-name="quoteleft" unicode="&#x2018;" horiz-adv-x="516" 
d="M53 754l260 465h131l-207 -465h-184z" />
    <glyph glyph-name="quoteright" unicode="&#x2019;" horiz-adv-x="516" 
d="M72 754l206 465h185l-260 -465h-131z" />
    <glyph glyph-name="quotesinglbase" unicode="&#x201a;" horiz-adv-x="511" 
d="M73 -259l206 466h178l-260 -466h-124z" />
    <glyph glyph-name="quotedblleft" unicode="&#x201c;" horiz-adv-x="814" 
d="M53 754l260 465h131l-207 -465h-184zM351 754l260 465h131l-208 -465h-183z" />
    <glyph glyph-name="quotedblright" unicode="&#x201d;" horiz-adv-x="813" 
d="M72 754l206 465h185l-260 -465h-131zM369 754l207 465h184l-260 -465h-131z" />
    <glyph glyph-name="quotedblbase" unicode="&#x201e;" horiz-adv-x="814" 
d="M73 -259l206 466h184l-260 -466h-130zM370 -259l207 466h183l-260 -466h-130z" />
    <glyph glyph-name="dagger" unicode="&#x2020;" horiz-adv-x="791" 
d="M726 780v-109h-279v-947h-109v947h-274v109h274v309h109v-309h279z" />
    <glyph glyph-name="daggerdbl" unicode="&#x2021;" horiz-adv-x="878" 
d="M770 671h-279v-521h279v-107h-279v-319h-110v319h-273v107h273v521h-273v109h273v309h110v-309h279v-109z" />
    <glyph glyph-name="bullet" unicode="&#x2022;" horiz-adv-x="879" 
d="M440 243q-121 0 -209 86t-88 209q0 121 88.5 209t208.5 88q118 0 206.5 -88.5t88.5 -208.5q0 -122 -88 -208.5t-207 -86.5z" />
    <glyph glyph-name="ellipsis" unicode="&#x2026;" horiz-adv-x="1553" 
d="M302 -16q-51 0 -88 37t-37 88q0 50 37 87.5t88 37.5q50 0 87.5 -37.5t37.5 -87.5q0 -51 -37.5 -88t-87.5 -37zM772 -16q-51 0 -88 37t-37 88q0 50 37 87.5t88 37.5q50 0 87.5 -37.5t37.5 -87.5q0 -51 -37.5 -88t-87.5 -37zM1250 -16q-50 0 -87.5 37t-37.5 88
q0 50 37.5 87.5t87.5 37.5q51 0 88 -37.5t37 -87.5q0 -51 -37 -88t-88 -37z" />
    <glyph glyph-name="perthousand" unicode="&#x2030;" horiz-adv-x="1810" 
d="M336 702q-97 0 -165.5 77.5t-68.5 187.5q0 111 68.5 189.5t165.5 78.5q96 0 163.5 -78.5t67.5 -189.5q0 -110 -67.5 -187.5t-163.5 -77.5zM138 0l832 1219h172l-832 -1219h-172zM336 829q42 0 74 39.5t32 98.5q0 61 -31.5 101t-74.5 40q-44 0 -74.5 -39.5t-30.5 -101.5
q0 -59 31 -98.5t74 -39.5zM946 -16q-97 0 -164.5 78.5t-67.5 189.5q0 110 67.5 187.5t164.5 77.5t165 -77.5t68 -187.5q0 -111 -68 -189.5t-165 -78.5zM1494 -16q-97 0 -165.5 78.5t-68.5 189.5q0 110 68.5 187.5t165.5 77.5q96 0 163 -77.5t67 -187.5q0 -111 -67 -189.5
t-163 -78.5zM946 111q43 0 73.5 39.5t30.5 101.5q0 59 -30.5 98.5t-73.5 39.5t-74 -39.5t-31 -98.5q0 -62 30.5 -101.5t74.5 -39.5zM1492 111q44 0 74.5 39.5t30.5 101.5q0 59 -31 98.5t-74 39.5q-44 0 -75 -39.5t-31 -98.5q0 -62 31 -101.5t75 -39.5z" />
    <glyph glyph-name="guilsinglleft" unicode="&#x2039;" horiz-adv-x="497" 
d="M303 154l-247 299l247 300h136l-247 -300l247 -299h-136z" />
    <glyph glyph-name="guilsinglright" unicode="&#x203a;" horiz-adv-x="497" 
d="M58 154l247 299l-247 300h137l247 -300l-247 -299h-137z" />
    <glyph glyph-name="fraction" unicode="&#x2044;" horiz-adv-x="481" 
d="M-250 0l851 1219h130l-850 -1219h-131z" />
    <glyph glyph-name="Euro" unicode="&#x20ac;" horiz-adv-x="1318" 
d="M853 145q87 0 172.5 35t148.5 96v-199q-158 -93 -321 -93q-206 0 -368.5 118t-224.5 306h-137v125h109q-5 42 -5 77q0 38 4 69h-108v125h134q61 191 224.5 311t371.5 120q165 0 317 -91l-50 -157q-120 87 -267 87q-141 0 -254 -73.5t-169 -196.5h633l-39 -125h-630
q-5 -37 -5 -69q0 -40 6 -77h584l-39 -125h-506q56 -120 168.5 -191.5t250.5 -71.5z" />
    <glyph glyph-name="trademark" unicode="&#x2122;" horiz-adv-x="1432" 
d="M110 1136v83h397v-83h-152v-486h-95v486h-150zM1113 1219h101v-569h-93v422l-207 -306l-204 302v-418h-95v569h102l198 -295z" />
    <glyph glyph-name="partialdiff" unicode="&#x2202;" horiz-adv-x="968" 
d="M297 1149q147 25 269.5 -49t192.5 -224.5t69 -342.5q0 -146 -53 -266.5t-144.5 -189.5t-202.5 -69q-98 0 -170.5 37t-109.5 102t-40.5 153.5t36.5 191.5q68 184 211.5 257.5t297.5 12.5q-44 156 -140.5 231.5t-215.5 37.5v118zM681 533q0 55 -4 98q-122 77 -230 29.5
t-168 -205.5q-32 -94 -25 -169t54 -122t120 -47q102 0 177 122.5t76 293.5z" />
    <glyph glyph-name="emptyset" unicode="&#x2205;" horiz-adv-x="1264" 
d="M999 792q119 -138 119 -319q0 -99 -38.5 -189t-103.5 -155t-155 -103.5t-189 -38.5q-181 0 -318 119l-70 -70l-49 48l70 70q-119 138 -119 319q0 99 38.5 189t103.5 155t155 103.5t189 38.5q181 0 319 -119l70 70l48 -48zM279 473q0 -127 80 -225l498 498q-98 80 -225 80
q-147 0 -250 -102.5t-103 -250.5zM632 120q148 0 250.5 102.5t102.5 250.5q0 127 -80 225l-498 -498q98 -80 225 -80z" />
    <glyph glyph-name="product" unicode="&#x220f;" horiz-adv-x="1287" 
d="M234 -195v1220h-119v118h1057v-118h-119v-1220h-117v1220h-584v-1220h-118z" />
    <glyph glyph-name="summation" unicode="&#x2211;" horiz-adv-x="1104" 
d="M78 -193v97l586 571l-586 570v98h938v-127h-723l545 -541l-545 -541h723v-127h-938z" />
    <glyph glyph-name="minus" unicode="&#x2212;" horiz-adv-x="1267" 
d="M218 413v141h831v-141h-831z" />
    <glyph glyph-name="radical" unicode="&#x221a;" horiz-adv-x="1139" 
d="M358 -127l-183 567h-111v109h189l162 -496l569 1189l100 -43l-635 -1326h-91z" />
    <glyph glyph-name="infinity" unicode="&#x221e;" horiz-adv-x="1406" 
d="M404 228q-98 0 -163.5 69.5t-69.5 175.5q4 106 69.5 175.5t163.5 69.5q143 0 298 -164q72 79 149.5 121.5t147.5 42.5q102 0 166 -67t68 -178q-4 -111 -68 -178t-166 -67q-70 0 -147.5 42.5t-149.5 121.5q-155 -164 -298 -164zM404 337q99 0 226 136q-127 136 -226 136
q-50 0 -86.5 -39.5t-37.5 -96.5q1 -57 37.5 -96.5t86.5 -39.5zM999 337q52 0 87.5 38.5t37.5 97.5q-2 59 -37.5 97.5t-87.5 38.5q-100 0 -225 -136q125 -136 225 -136z" />
    <glyph glyph-name="integral" unicode="&#x222b;" horiz-adv-x="774" 
d="M176 -307q-72 0 -105 53.5t-6 131.5h100q-7 -44 -1 -61.5t30 -17.5q16 0 28 11.5t15 30.5l193 1215q10 65 59 106.5t111 41.5q70 0 103.5 -53.5t4.5 -131.5h-100q7 44 1.5 62t-28.5 18q-16 0 -29 -11.5t-17 -31.5l-193 -1215q-10 -64 -57.5 -106t-108.5 -42z" />
    <glyph glyph-name="approxequal" unicode="&#x2248;" horiz-adv-x="1165" 
d="M754 516q-50 0 -95 21t-67 41t-51 51q-5 6 -8 9q-59 65 -110 65q-59 -1 -93 -49t-32 -122h-117q-4 128 63.5 207.5t180.5 79.5q63 0 109 -28.5t96 -89.5q19 -23 31.5 -36t35 -24.5t47.5 -11.5q56 0 90.5 46.5t32.5 122.5h116q3 -122 -60.5 -202t-168.5 -80zM754 182
q-41 0 -75 10.5t-64.5 34.5t-42.5 36t-39 41q-32 34 -55.5 49.5t-54.5 14.5q-59 -1 -93 -49t-32 -121h-117q-4 129 63.5 208.5t180.5 79.5q62 0 108.5 -29t96.5 -90q19 -23 31.5 -36t35 -24.5t47.5 -11.5q56 0 90.5 46.5t32.5 123.5h116q3 -123 -60.5 -203t-168.5 -80z" />
    <glyph glyph-name="notequal" unicode="&#x2260;" horiz-adv-x="1294" 
d="M1135 533h-336l-174 -204h510v-109h-603l-181 -211h-102l181 211h-270v109h363l175 204h-538v109h632l153 179h101l-153 -179h242v-109z" />
    <glyph glyph-name="lessequal" unicode="&#x2264;" horiz-adv-x="1142" 
d="M1011 1141v-139l-762 -347l762 -350v-140l-897 415v149zM114 0v99h897v-99h-897z" />
    <glyph glyph-name="greaterequal" unicode="&#x2265;" horiz-adv-x="1142" 
d="M131 1141l897 -412v-149l-897 -415v140l761 350l-761 347v139zM131 0v99h897v-99h-897z" />
    <glyph glyph-name="lozenge" unicode="&#x25ca;" horiz-adv-x="1099" 
d="M551 85l-491 489l491 491l489 -490zM551 269l305 306l-305 305l-306 -306z" />
    <glyph glyph-name="uniF8FF" unicode="&#xf8ff;" horiz-adv-x="1474" 
d="M737 0q-167 0 -309.5 83t-225.5 225.5t-83 309.5q0 168 83 310t225.5 224.5t309.5 82.5q126 0 240 -49t196.5 -131.5t131.5 -196.5t49 -240q0 -167 -82.5 -309.5t-224.5 -225.5t-310 -83zM737 59q114 0 217.5 44.5t178.5 119.5t119 178.5t44 216.5t-44 216.5t-119 178.5
t-178.5 119.5t-217.5 44.5q-151 0 -280 -75t-204 -204t-75 -280t75 -280t204 -204t280 -75zM413 353q-12 0 -20.5 8.5t-8.5 20.5v471q0 13 8.5 21.5t20.5 8.5q13 0 21.5 -8.5t8.5 -21.5v-471q0 -12 -8.5 -20.5t-21.5 -8.5zM737 353q-12 0 -20.5 8.5t-8.5 20.5v471
q0 13 8.5 21.5t20.5 8.5t20.5 -8.5t8.5 -21.5v-471q0 -12 -8.5 -20.5t-20.5 -8.5zM1060 353q-12 0 -19 9l-236 235q-18 22 0 42l236 235q8 9 20 9t20 -9q9 -8 9 -20.5t-9 -21.5l-214 -214l214 -215q18 -17 0 -41q-6 -9 -21 -9zM501 588q-12 0 -20.5 8.5t-8.5 21.5
q0 12 8.5 20.5t20.5 8.5h148q12 0 20.5 -8.5t8.5 -20.5q0 -13 -8.5 -21.5t-20.5 -8.5h-148z" />
    <glyph glyph-name="i.loclTRK" horiz-adv-x="461" 
d="M231 1047q-44 0 -76 32t-32 75q0 45 32 76.5t76 31.5q45 0 77 -31.5t32 -76.5q0 -43 -32.5 -75t-76.5 -32zM145 0v828h171v-828h-171z" />
    <glyph glyph-name="uni2113" horiz-adv-x="1005" 
d="M559 -9q-151 0 -233 86.5t-96 217.5v17q-12 -7 -109 -81l-48 92q21 17 74.5 57t79.5 62v460q0 116 26 202.5t71.5 135t99 71t115.5 22.5q85 0 144 -42t84.5 -106t25.5 -145q0 -155 -104 -308.5t-302 -327.5v-48q1 -114 61.5 -174.5t146.5 -60.5q85 0 156 53t114 127
l76 -69q-136 -241 -382 -241zM385 553q137 137 213.5 255t76.5 227q0 183 -135 183q-61 0 -108 -70t-47 -225v-370z" />
    <glyph glyph-name="estimated" horiz-adv-x="1587" 
d="M808 -15q-188 0 -348 83.5t-253 227t-93 312.5q0 171 93 315.5t252.5 228t348.5 83.5q190 0 350 -83.5t253 -228t93 -315.5v-16h-1125q-10 0 -10 -7v-341q0 -18 15 -39q84 -86 194.5 -135.5t231.5 -49.5q132 0 248.5 55.5t200.5 152.5h99q-95 -112 -239.5 -177.5
t-310.5 -65.5zM379 626h863q7 0 7 11v341q0 26 -16 41q-85 83 -193.5 131t-229.5 48q-120 0 -229.5 -49t-194.5 -135q-17 -19 -17 -42v-335q0 -11 10 -11z" />
    <glyph glyph-name="uni030C.alt" 
d="M-415 754l207 465h184l-260 -465h-131z" />
    <glyph glyph-name="uni0338.case" 
d="M-890 -82l-118 70l917 1314l116 -71z" />
    </font>
</defs>
</svg>
