<svg width="217" height="205" viewBox="0 0 217 205" fill="none" xmlns="http://www.w3.org/2000/svg">
<path d="M9.80035 94.3709C11.0039 94.3709 11.9795 93.3952 11.9795 92.1917C11.9795 90.9882 11.0039 90.0126 9.80035 90.0126C8.59685 90.0126 7.62122 90.9882 7.62122 92.1917C7.62122 93.3952 8.59685 94.3709 9.80035 94.3709Z" stroke="#15104D" stroke-width="2"/>
<path d="M14.0714 92.4134C18.4667 91.961 25.3635 92.496 26.1787 95.896C26.9939 99.2959 23.881 100.539 22.2228 100.736C15.9095 101.74 7.53821 101.267 7.53821 95.896" stroke="#15104D" stroke-width="2" stroke-linecap="round"/>
<path d="M12.4832 97.555C12.761 97.555 12.9861 97.3299 12.9861 97.0521C12.9861 96.7744 12.761 96.5493 12.4832 96.5493C12.2055 96.5493 11.9803 96.7744 11.9803 97.0521C11.9803 97.3299 12.2055 97.555 12.4832 97.555Z" stroke="#15104D" stroke-width="2"/>
<path d="M17.3439 97.0521C17.3439 97.2964 17.1163 97.555 16.7572 97.555C16.3981 97.555 16.1705 97.2964 16.1705 97.0521C16.1705 96.8079 16.3981 96.5493 16.7572 96.5493C17.1163 96.5493 17.3439 96.8079 17.3439 97.0521Z" stroke="#15104D" stroke-width="2"/>
<path d="M21.0317 97.555C21.3095 97.555 21.5346 97.3299 21.5346 97.0521C21.5346 96.7744 21.3095 96.5493 21.0317 96.5493C20.754 96.5493 20.5289 96.7744 20.5289 97.0521C20.5289 97.3299 20.754 97.555 21.0317 97.555Z" stroke="#15104D" stroke-width="2"/>
<path d="M175.164 33.019C176.275 33.019 177.175 32.1184 177.175 31.0075C177.175 29.8965 176.275 28.9959 175.164 28.9959C174.053 28.9959 173.152 29.8965 173.152 31.0075C173.152 32.1184 174.053 33.019 175.164 33.019Z" stroke="#15104D" stroke-width="2"/>
<path d="M179.116 29.2493C180.59 29.2493 184.802 29.2493 186.783 29.2493C188.388 29.2493 189.16 29.6043 189.16 32.0892C189.16 34.5035 189.14 37.6309 189.16 38.8932C189.174 39.7806 188.732 40.7627 187.258 40.9047C185.784 41.0467 179.869 40.9638 177.095 40.9047C176.065 40.9047 174.242 40.3207 174.242 37.9464V35.284" stroke="#15104D" stroke-width="2" stroke-linecap="round"/>
<path d="M178.097 33.438L181.785 35.9524" stroke="#15104D" stroke-width="2" stroke-linecap="round"/>
<path d="M181.786 35.9531L188.491 29.7509" stroke="#15104D" stroke-width="2" stroke-linecap="round"/>
<path d="M183.485 34.4438L185.317 36.2877L187.149 38.1316" stroke="#15104D" stroke-width="2" stroke-linecap="round"/>
<path d="M176.756 38.1316L179.46 34.4438" stroke="#15104D" stroke-width="2" stroke-linecap="round"/>
<path d="M189.905 158.737C189.348 159.294 188.868 159.775 188.537 160.107C187.675 160.97 186.769 160.466 186.424 160.107L180.921 154.805C180.109 154.05 179.422 153.304 176.352 150.375C176.038 150.06 175.54 149.257 176.062 148.559C176.584 147.862 179.519 144.202 180.921 142.459C181.347 141.843 182.271 141.11 183.45 142.206C184.466 143.15 187.947 146.418 190.921 148.903" stroke="#15104D" stroke-width="2" stroke-linecap="round"/>
<path d="M180.863 142.647C181.036 145.827 182.203 150.946 188.239 152.872" stroke="#15104D" stroke-width="2" stroke-linecap="round"/>
<path d="M196.169 153.119C195.892 152.416 193.768 151.597 192.965 153.119C192.138 154.689 192.771 156.011 193.309 156.271C193.996 156.602 195.005 156.775 196.071 154.869" stroke="#15104D" stroke-width="2" stroke-linecap="round"/>
<path d="M196.345 152.141C196.282 152.508 196.219 152.662 196.169 153.119C196.103 153.715 196.061 154.339 196.071 154.869C196.091 155.801 196.276 156.443 196.799 156.133C197.848 155.511 198.415 155.001 198.566 154.481C198.817 153.605 198.819 151.93 197.404 150.834C195.697 149.512 193.773 149.548 192.259 150.834C190.757 152.111 190.346 154.156 190.428 155.216C190.518 156.376 191.384 158.868 194.209 158.907C197.033 158.946 198.564 157.423 198.799 156.71" stroke="#15104D" stroke-width="2" stroke-linecap="round"/>
<path d="M47.433 132.182C46.8304 129.855 44.8293 125.565 41.6471 127.015C38.4647 128.465 40.321 131.064 41.6471 132.182C42.5394 132.786 44.4577 133.433 44.9921 131.185C45.5264 128.937 43.2744 128.012 42.6414 129.009C42.3077 129.402 41.9307 130.387 43.0935 131.185" stroke="#15104D" stroke-width="2" stroke-linecap="round"/>
<path d="M62.3519 20.5882C62.1793 19.615 63.1974 18.8663 64.0749 19.3213C65.0078 19.8048 66.1191 19.7979 67.0463 19.3037C67.9185 18.839 68.9447 19.5763 68.7832 20.5514C68.6117 21.5879 68.9614 22.643 69.7179 23.3721C70.4294 24.058 70.0456 25.2621 69.0684 25.4098C68.0296 25.5669 67.1347 26.2249 66.675 27.1696C66.2427 28.0584 64.979 28.0658 64.5364 27.1822C64.066 26.2427 63.1632 25.5944 62.1226 25.4492C61.1436 25.3126 60.7463 24.1127 61.4501 23.4187C62.1981 22.681 62.5353 21.6226 62.3519 20.5882Z" stroke="#15104D" stroke-width="2"/>
<path d="M113.394 94.3563V108.605" stroke="#15104D" stroke-width="2" stroke-linecap="round"/>
<path d="M124.122 96.0326V109.61" stroke="#15104D" stroke-width="2" stroke-linecap="round"/>
<path d="M99.0296 157.735C95.4871 158.176 87.1943 159.803 85.3777 163.111C84.8327 164.103 84.2005 166.518 86.0316 168.238C87.8629 169.959 91.2091 169.506 92.6532 169.065L101.073 165.674" stroke="#15104D" stroke-width="2" stroke-linecap="round"/>
<path d="M147.304 132.77C140.694 132.983 111.5 147.116 97.7294 154.156C96.5568 161.914 101.505 167.484 104.126 169.3C117.853 165.315 146.025 157.238 148.903 156.813C151.782 156.388 154.634 154.334 155.7 153.359C163.162 144.645 157.654 137.242 153.967 134.63C151.342 132.77 149.077 132.713 147.304 132.77Z" fill="#15104D"/>
<path d="M85.3886 130.793C90.0719 131.105 110.502 139.023 120.182 143.173L98.044 154.236C88.1364 157.141 82.0499 156.184 80.1912 155.558C69.4619 150.388 73.6656 137.636 77.9286 132.912C80.676 130.573 83.7106 130.681 85.3886 130.793Z" fill="#15104D"/>
<path d="M137.513 159.242C140.44 160.648 142.023 162.491 142.825 164.003C144.545 167.938 141.457 170.304 137.931 169.192C135.983 168.577 135.524 168.165 134.492 167.309C133.969 166.875 131.523 164.603 128.732 161.919" stroke="#15104D" stroke-width="2" stroke-linecap="round"/>
<path d="M81.782 100.741L83.1198 125.052C83.4115 130.353 87.7953 134.502 93.1047 134.502H139.601C145.124 134.502 149.601 130.025 149.601 124.502V99.5466C149.601 93.971 145.041 89.4723 139.466 89.5475L91.6321 90.1923C85.947 90.2689 81.4696 95.0638 81.782 100.741Z" fill="#15104D"/>
<rect x="83.2208" y="135.089" width="66.3799" height="3.18489" rx="1.59245" fill="#15104D"/>
<path d="M124.289 71.7267C130.128 71.6429 142.98 76.085 148.092 90.0817" stroke="#15104D" stroke-width="2" stroke-linecap="round"/>
<path d="M111.466 71.6439C98.1397 74.2421 91.7699 79.9413 86.7411 90.9209" stroke="#15104D" stroke-width="2" stroke-linecap="round"/>
<path d="M156.055 84.9005L159.323 79.4527" stroke="#15104D" stroke-width="2" stroke-linecap="round"/>
<path d="M159.323 86.4084L163.765 82.7207" stroke="#15104D" stroke-width="2" stroke-linecap="round"/>
<path d="M159.994 88.9234C160.86 89.2586 162.827 89.5771 163.765 88.169" stroke="#15104D" stroke-width="2" stroke-linecap="round"/>
<path d="M74.2533 83.8811L69.2245 78.6847" stroke="#15104D" stroke-width="2" stroke-linecap="round"/>
<path d="M79.3653 83.041L76.348 75.2464" stroke="#15104D" stroke-width="2" stroke-linecap="round"/>
<path d="M72.9961 86.814L69.2245 85.3892" stroke="#15104D" stroke-width="2" stroke-linecap="round"/>
<path d="M151.445 99.4844C154.546 104.346 158.066 110.129 151.445 121.01" stroke="#15104D" stroke-width="2" stroke-linecap="round"/>
<path d="M124.373 72.1461C125.127 69.9669 124.44 68.5005 123.77 68.2211C119.747 71.9089 113.645 70.54 111.382 68.3049C110.577 69.0425 111.047 71.2241 111.382 71.8946C115.74 76.7222 121.942 74.0179 124.373 72.1461Z" fill="#15104D"/>
<path d="M106.521 85.556L106.859 85.0373C108.757 82.1247 112.45 80.9618 115.674 82.2618C118.569 83.4291 121.886 82.6194 123.917 80.2495L126.552 77.1747" stroke="#15104D" stroke-width="2" stroke-linecap="round"/>
<path d="M80.2875 102.569C79.0303 105.53 77.5384 112.71 81.6285 117.739" stroke="#15104D" stroke-width="2" stroke-linecap="round"/>
<path d="M135.93 37.8842C134.086 44.5054 133.164 45.0921 130.482 48.0256C130.482 45.1265 129.984 40.2604 129.984 38.2341C121.202 38.2341 113.791 34.6492 111.183 32.8568C111.276 38.9355 105.577 42.9101 105.577 42.9101C105.577 42.9101 106.395 45.3649 106.862 50.8592C107.236 55.2546 106.161 54.4051 105.577 53.431C103.896 48.0068 101.14 49.4564 99.9719 50.8592C85.642 27.5752 107.679 23.0762 111.883 23.5049C115.06 20.7928 119.489 18.6675 122.603 18.3558C133.834 17.2315 138.919 27.1481 135.93 37.8842Z" fill="#15104D"/>
<path d="M105.774 57.5753C107.283 66.7856 117.409 73.4083 124.716 65.9474C132.023 58.4865 130.561 44.8296 129.78 38.4568" stroke="#15104D" stroke-width="2" stroke-linecap="round"/>
<path d="M99.8066 50.2886C98.8846 52.5516 99.7496 57.5661 105.774 57.5661" stroke="#15104D" stroke-width="2" stroke-linecap="round"/>
<path d="M102.464 51.5322C102.33 52.0164 102.437 53.1638 103.93 53.879" stroke="#15104D" stroke-width="2" stroke-linecap="round"/>
<path d="M129.577 56.3936C131.543 55.5738 132.929 52.5382 132.396 47.677" stroke="#15104D" stroke-width="2" stroke-linecap="round"/>
<path d="M118.513 61.9252C120.441 62.4281 120.319 61.0442 121.782 59.8299" stroke="#15104D" stroke-width="2" stroke-linecap="round"/>
<ellipse cx="124.268" cy="50.2148" rx="1.2572" ry="1.25719" fill="#15104D"/>
<ellipse cx="113.205" cy="50.3827" rx="1.2572" ry="1.25719" fill="#15104D"/>
<path d="M110.467 47.5091C110.732 46.7301 111.873 45.2891 114.323 45.7565" stroke="#15104D" stroke-width="2" stroke-linecap="round"/>
<path d="M122.201 45.9996C122.785 45.4936 124.374 44.7852 126.056 45.9996" stroke="#15104D" stroke-width="2" stroke-linecap="round"/>
<path d="M118.146 49.5206C117.95 51.1757 117.818 54.5322 118.849 54.717" stroke="#15104D" stroke-width="2" stroke-linecap="round"/>
<path d="M166.447 125.549C188.825 131.751 229.022 138.875 210.784 117.754C205.029 112.083 196.536 105.434 182.874 99.5669" stroke="#15104D" stroke-width="2" stroke-linecap="round"/>
<path d="M190.669 82.2166C204.582 73.3045 226.994 54.8936 205.336 52.5468C183.679 50.2001 163.905 58.3299 156.725 62.6882" stroke="#15104D" stroke-width="2" stroke-linecap="round"/>
<path d="M136.777 69.1922C145.997 49.3286 160.915 8.15961 146.835 2.39328C129.234 -4.81464 106.437 15.971 87.8305 65.5883" stroke="#15104D" stroke-width="2" stroke-linecap="round"/>
<path d="M67.3266 52.0818C46.7086 40.795 4.61769 23.4345 1.19812 44.2872C-2.22146 65.1399 39.5565 82.5338 60.873 88.6242" stroke="#15104D" stroke-width="2" stroke-linecap="round"/>
<path d="M66.3465 99.5669C36.2577 114.905 -1.44318 136.117 19.4397 147.173C27.9885 151.699 49.8637 148.933 59.9213 144.826" stroke="#15104D" stroke-width="2" stroke-linecap="round"/>
<ellipse cx="115.573" cy="199.974" rx="41.4874" ry="5.02878" fill="#15104D"/>
</svg>
