<svg width="25" height="25" viewBox="0 0 25 25" fill="none" xmlns="http://www.w3.org/2000/svg">
<g clip-path="url(#clip0_26_103)">
<path d="M15.3979 3.28418C15.1573 3.30501 14.9062 3.32585 14.6656 3.3571C13.6389 3.47139 12.6404 3.76546 11.7156 4.22585C10.7623 4.69251 9.89571 5.31852 9.15312 6.07689C9.12187 6.11855 9.05937 6.13939 9.00625 6.12897C8.49058 6.05231 7.96849 6.02788 7.44792 6.05605C6.38605 6.10823 5.34635 6.3788 4.39375 6.85085C2.55208 7.77168 1.25521 9.20501 0.502083 11.13C0.227308 11.8433 0.0649576 12.595 0.0208333 13.3581C0.0208333 13.4102 0.0104167 13.4519 0 13.4936V14.2988C0.0208333 14.5081 0.0520833 14.7071 0.0729167 14.9165C0.177083 15.7633 0.41875 16.579 0.805208 17.3436C1.66354 19.0581 2.98125 20.3133 4.74896 21.0873C5.55619 21.4432 6.4204 21.6524 7.30104 21.705C7.33437 21.705 7.36354 21.7092 7.39062 21.7154H16.324C16.5146 21.6977 16.701 21.679 16.8937 21.6529C17.9134 21.5385 18.9048 21.2443 19.8219 20.7842C21.3882 20.0197 22.7052 18.8262 23.6198 17.3425C24.2461 16.3638 24.6658 15.2674 24.8531 14.1206C24.9052 13.7665 24.9365 13.3998 24.9792 13.0436C24.9792 12.9915 24.9896 12.9498 25 12.9081V12.0811C24.9792 11.8415 24.9479 11.6102 24.9479 11.3915C24.8335 10.3714 24.5394 9.37975 24.0792 8.4623C23.3034 6.89738 22.1037 5.5818 20.6167 4.66543C19.643 4.04667 18.5547 3.6304 17.4167 3.44147C17.0396 3.37897 16.674 3.34772 16.2969 3.30605C16.2448 3.30605 16.2031 3.29564 16.151 3.28522L15.3979 3.28418ZM15.7823 5.04772C17.9969 5.05293 19.876 5.90814 21.4021 7.60501C22.2661 8.58522 22.8479 9.78157 23.0854 11.0665C23.2417 11.8623 23.274 12.6779 23.1583 13.4831C22.9604 14.8852 22.4271 16.1394 21.5167 17.2383C20.4588 18.5371 18.9905 19.4371 17.3531 19.7904C16.4773 19.9821 15.5745 20.0174 14.6865 19.8946C13.5458 19.7488 12.5 19.3727 11.5583 18.6925C11.3085 18.5138 11.0743 18.3141 10.8583 18.0956C9.58125 16.8404 8.31667 15.5748 7.03958 14.3196C6.72604 14.0071 6.70521 13.6613 6.85208 13.3467C6.92888 13.1788 7.0579 13.0401 7.2199 12.9515C7.38191 12.8629 7.56822 12.8291 7.75104 12.855C7.96979 12.8758 8.13854 13.0019 8.29479 13.1592C9.44583 14.3196 10.5865 15.4602 11.7365 16.6217C12.5999 17.5022 13.735 18.0659 14.9583 18.2217C16.9875 18.4936 18.7135 17.8665 20.0833 16.3488C20.826 15.5227 21.276 14.529 21.4646 13.4206C21.7354 11.7675 21.35 10.2821 20.324 8.9748C19.4146 7.81335 18.2219 7.09147 16.7781 6.83001C15.3031 6.5696 13.9125 6.85085 12.6469 7.6571C12.6156 7.67793 12.5427 7.68835 12.5104 7.66751C12.0503 7.32709 11.56 7.02933 11.0458 6.77793C11.0458 6.77793 11.0354 6.76751 11.025 6.74668C11.4268 6.41216 11.8654 6.12454 12.3323 5.88939C13.1822 5.42801 14.1193 5.14981 15.0833 5.07272C15.3155 5.05516 15.5484 5.04682 15.7812 5.04772H15.7823ZM7.86042 7.82168C9.37604 7.79668 10.7677 8.36855 12.0083 9.5196C12.8979 10.355 13.7135 11.2238 14.5708 12.0925C14.8115 12.3321 14.8635 12.6363 14.749 12.9602C14.6344 13.2842 14.3719 13.4415 14.0375 13.4936C13.9166 13.51 13.7934 13.4968 13.6787 13.4551C13.564 13.4134 13.4612 13.3443 13.3792 13.254C12.5625 12.4373 11.7469 11.6321 10.9417 10.8061C10.2823 10.1258 9.49792 9.73835 8.57708 9.57064C6.5375 9.20501 4.47708 10.3873 3.74479 12.3217C2.80312 14.78 4.28854 17.5623 6.85104 18.1488C7.35313 18.2633 7.8875 18.2633 8.41042 18.2529C8.55625 18.2425 8.63958 18.2946 8.74375 18.3883C9.24687 18.8811 9.78021 19.3727 10.3031 19.8633C10.3344 19.8946 10.376 19.9258 10.4073 19.9571C10.3448 19.9571 10.3031 19.9675 10.2615 19.9675H7.86562C6.48332 19.9672 5.14242 19.4956 4.06428 18.6305C2.98614 17.7654 2.2352 16.5586 1.93542 15.2092C1.25521 12.1446 3.0125 9.0373 6.025 8.12793C6.61925 7.9396 7.23721 7.83649 7.86042 7.82168Z" fill="#69699B"/>
</g>
<defs>
<clipPath id="clip0_26_103">
<rect width="25" height="25" fill="white"/>
</clipPath>
</defs>
</svg>
