<svg width="25" height="25" viewBox="0 0 25 25" fill="none" xmlns="http://www.w3.org/2000/svg">
<path d="M18.5694 9.375C19.1949 8.78472 19.6288 8.02033 19.8151 7.18073C20.0014 6.34112 19.9315 5.46493 19.6143 4.66551C19.2972 3.86609 18.7475 3.18024 18.0363 2.69667C17.3251 2.21311 16.4851 1.95409 15.6251 1.95312H8.59383C7.73381 1.95409 6.89386 2.21311 6.18266 2.69667C5.47145 3.18024 4.92172 3.86609 4.60459 4.66551C4.28745 5.46493 4.2175 6.34112 4.40379 7.18073C4.59007 8.02033 5.02402 8.78472 5.6495 9.375C5.21255 9.78526 4.86648 10.2826 4.63363 10.8349C4.40078 11.3871 4.28632 11.9821 4.29764 12.5814C4.30896 13.1806 4.4458 13.7708 4.69935 14.3139C4.95289 14.857 5.31749 15.3409 5.76961 15.7344C5.20418 16.2672 4.78006 16.9323 4.53541 17.6697C4.29076 18.4072 4.23325 19.1939 4.36805 19.959C4.50286 20.7242 4.82575 21.4439 5.30768 22.0533C5.78962 22.6627 6.41548 23.1428 7.12898 23.4504C7.84248 23.7579 8.62124 23.8833 9.39521 23.8152C10.1692 23.7471 10.9141 23.4877 11.5629 23.0603C12.2118 22.633 12.7442 22.051 13.1124 21.3668C13.4805 20.6826 13.6728 19.9176 13.672 19.1406V16.3252C14.5924 16.7903 15.6495 16.9089 16.6501 16.6592C17.6508 16.4095 18.5282 15.8082 19.1223 14.9652C19.7163 14.1221 19.9874 13.0935 19.8858 12.0672C19.7843 11.0409 19.3171 10.0853 18.5694 9.375ZM17.5782 6.25C17.5782 6.768 17.3724 7.26479 17.0062 7.63107C16.6399 7.99735 16.1431 8.20312 15.6251 8.20312H13.672V4.29688H15.6251C16.1431 4.29688 16.6399 4.50265 17.0062 4.86893C17.3724 5.23521 17.5782 5.732 17.5782 6.25ZM6.64071 6.25C6.64071 5.732 6.84648 5.23521 7.21277 4.86893C7.57905 4.50265 8.07583 4.29688 8.59383 4.29688H11.3282V8.20312H8.59383C8.07583 8.20312 7.57905 7.99735 7.21277 7.63107C6.84648 7.26479 6.64071 6.768 6.64071 6.25ZM8.59383 14.4531C8.07583 14.4531 7.57905 14.2473 7.21277 13.8811C6.84648 13.5148 6.64071 13.018 6.64071 12.5C6.64071 11.982 6.84648 11.4852 7.21277 11.1189C7.57905 10.7527 8.07583 10.5469 8.59383 10.5469H11.3282V14.4531H8.59383ZM11.3282 19.1406C11.3282 19.6042 11.1907 20.0573 10.9332 20.4427C10.6757 20.8282 10.3096 21.1286 9.88137 21.306C9.45311 21.4834 8.98186 21.5298 8.52722 21.4393C8.07257 21.3489 7.65496 21.1257 7.32718 20.7979C6.9994 20.4701 6.77618 20.0525 6.68574 19.5979C6.59531 19.1432 6.64172 18.672 6.81912 18.2437C6.99651 17.8154 7.29691 17.4494 7.68234 17.1919C8.06777 16.9343 8.52091 16.7969 8.98446 16.7969H11.3282V19.1406ZM15.6251 14.4531C15.2388 14.4531 14.8612 14.3386 14.54 14.124C14.2188 13.9094 13.9685 13.6043 13.8206 13.2474C13.6728 12.8905 13.6341 12.4978 13.7095 12.119C13.7848 11.7401 13.9709 11.3921 14.244 11.1189C14.5172 10.8458 14.8652 10.6598 15.244 10.5844C15.6229 10.509 16.0156 10.5477 16.3725 10.6955C16.7294 10.8434 17.0344 11.0937 17.249 11.4149C17.4637 11.7361 17.5782 12.1137 17.5782 12.5C17.5782 13.018 17.3724 13.5148 17.0062 13.8811C16.6399 14.2473 16.1431 14.4531 15.6251 14.4531Z" fill="#69699B"/>
</svg>
