<svg width="37" height="35" viewBox="0 0 37 35" fill="none" xmlns="http://www.w3.org/2000/svg">
<path d="M15.6505 19.2138C15.6458 21.1677 16.1815 23.0848 17.1985 24.7532C19.3012 23.1643 20.7393 20.8515 21.2339 18.2628C21.7286 15.6741 21.2446 12.9939 19.8758 10.7417C18.5578 11.7249 17.489 13.0036 16.7551 14.475C16.0213 15.9464 15.6429 17.5695 15.6505 19.2138Z" stroke="#69699B" stroke-width="2" stroke-miterlimit="10"/>
<path d="M9.72508 5.72705C4.79518 6.43242 1 10.7873 1 16.0545C1 21.8133 5.53658 26.4817 11.1335 26.4817" stroke="#69699B" stroke-width="2" stroke-miterlimit="10"/>
<path d="M18.8328 8.90033C15.5229 3.83395 9.69595 2 9.69595 2L9.72508 5.72694C4.5115 6.46145 1.01073 10.7642 1 15.7447" stroke="#69699B" stroke-width="2" stroke-miterlimit="10"/>
<path d="M2.34082 21.2402C4.72603 25.6104 9.97488 27.6445 14.9094 25.8021" stroke="#69699B" stroke-width="2" stroke-miterlimit="10"/>
<path d="M27.0839 29.7942C32.0138 29.0896 35.9999 24.734 35.9999 19.4667C35.9999 13.708 31.4634 9.03955 25.8672 9.03955" stroke="#69699B" stroke-width="2" stroke-miterlimit="10"/>
<path d="M18.168 26.6209C21.4771 31.6873 27.084 33.3549 27.084 33.3549L27.13 29.7813C32.3435 29.0468 35.9892 24.7571 36 19.7773" stroke="#69699B" stroke-width="2" stroke-miterlimit="10"/>
<path d="M34.6596 14.2797C32.2744 9.90796 27.0232 7.87773 22.0918 9.71782" stroke="#69699B" stroke-width="2" stroke-miterlimit="10"/>
</svg>
