<svg width="19" height="19" viewBox="0 0 19 19" fill="none" xmlns="http://www.w3.org/2000/svg">
<path d="M3.25 0.125C2.4212 0.125 1.62634 0.45424 1.04029 1.04029C0.45424 1.62634 0.125 2.4212 0.125 3.25V15.75C0.125 16.5788 0.45424 17.3737 1.04029 17.9597C1.62634 18.5458 2.4212 18.875 3.25 18.875H15.75C16.5788 18.875 17.3737 18.5458 17.9597 17.9597C18.5458 17.3737 18.875 16.5788 18.875 15.75V3.25C18.875 2.4212 18.5458 1.62634 17.9597 1.04029C17.3737 0.45424 16.5788 0.125 15.75 0.125H3.25ZM10.8896 13.724C11.6396 14.3281 12.3875 14.625 13.1354 14.6177C13.5937 14.6177 13.9458 14.5344 14.1896 14.3656C14.3034 14.2917 14.396 14.1895 14.4583 14.0689C14.5206 13.9484 14.5504 13.8137 14.5448 13.6781C14.5463 13.5303 14.5154 13.3839 14.4542 13.2492C14.393 13.1146 14.303 12.995 14.1906 12.899C13.9458 12.6854 13.4833 12.4719 12.8031 12.2573C11.9865 12.0208 11.3552 11.7156 10.9125 11.3406C10.4771 10.9656 10.2563 10.4427 10.2479 9.77083C10.2479 9.13646 10.5229 8.60625 11.0729 8.17812C11.6083 7.75104 12.2917 7.53646 13.125 7.53646C14.2854 7.53646 15.2177 7.81875 15.9198 8.38437L15.1177 9.63333C14.8289 9.40871 14.4976 9.24499 14.1437 9.15208C13.8257 9.04572 13.4936 8.98778 13.1583 8.98021C12.7625 8.98021 12.4448 9.05312 12.2073 9.19792C11.9708 9.34375 11.8531 9.53438 11.8531 9.77083C11.8531 10.0312 11.9979 10.2521 12.2875 10.4354C12.5792 10.6115 13.075 10.8062 13.7771 11.0198C14.625 11.2719 15.2292 11.6083 15.5875 12.0281C15.9469 12.4479 16.126 12.9833 16.126 13.6323C16.126 14.2969 15.8708 14.8698 15.3583 15.351C14.8542 15.825 14.1208 16.0729 13.1583 16.0958C11.8979 16.0958 10.8437 15.7177 9.99583 14.9615L10.8896 13.724ZM5.12917 14.3885C5.37396 14.5417 5.66771 14.6177 6.01146 14.6177C6.37083 14.6177 6.66771 14.5146 6.90521 14.3083C7.14167 14.0948 7.26042 13.724 7.26042 13.1969V7.67396H8.80729V13.4948C8.78437 14.3958 8.525 15.0458 8.02812 15.4427C7.75701 15.6732 7.44096 15.8449 7.1 15.9469C6.7842 16.0431 6.45617 16.0933 6.12604 16.0958C5.55312 16.0958 5.04479 15.9969 4.60208 15.7979C4.12812 15.5844 3.73125 15.2063 3.41042 14.6635L4.4875 13.7812C4.68542 14.049 4.9 14.251 5.12917 14.3885Z" fill="#69699B"/>
</svg>
