<svg width="16" height="16" viewBox="0 0 16 16" fill="none" xmlns="http://www.w3.org/2000/svg">
<path fill-rule="evenodd" clip-rule="evenodd" d="M8 0C3.58172 0 0 3.58172 0 8C0 12.4183 3.58172 16 8 16C12.4183 16 16 12.4183 16 8C16 3.58172 12.4183 0 8 0ZM3.84054 6.62595H5.65351V12.0732H3.84054V6.62595ZM5.77292 4.9409C5.76115 4.4068 5.37922 4 4.75901 4C4.1388 4 3.73333 4.4068 3.73333 4.9409C3.73333 5.46393 4.12682 5.88245 4.73548 5.88245H4.74706C5.37922 5.88245 5.77292 5.46393 5.77292 4.9409ZM10.1044 6.49804C11.2974 6.49804 12.1918 7.27675 12.1918 8.94991L12.1917 12.0732H10.3788V9.15891C10.3788 8.42691 10.1165 7.92741 9.46017 7.92741C8.9593 7.92741 8.66096 8.26414 8.52993 8.58938C8.48199 8.70594 8.47023 8.86834 8.47023 9.03114V12.0733H6.65703C6.65703 12.0733 6.68093 7.13723 6.65703 6.62609H8.47023V7.39765C8.71085 7.02675 9.14181 6.49804 10.1044 6.49804Z" fill="#69699B"/>
</svg>
