<svg width="16" height="16" viewBox="0 0 16 16" fill="none" xmlns="http://www.w3.org/2000/svg">
<path d="M11.333 2.3335H4.66634C2.66634 2.3335 1.33301 3.3335 1.33301 5.66683V10.3335C1.33301 12.6668 2.66634 13.6668 4.66634 13.6668H11.333C13.333 13.6668 14.6663 12.6668 14.6663 10.3335V5.66683C14.6663 3.3335 13.333 2.3335 11.333 2.3335ZM11.6463 6.3935L9.55967 8.06016C9.11967 8.4135 8.55967 8.58683 7.99967 8.58683C7.43967 8.58683 6.87301 8.4135 6.43967 8.06016L4.35301 6.3935C4.13967 6.22016 4.10634 5.90016 4.27301 5.68683C4.44634 5.4735 4.75967 5.4335 4.97301 5.60683L7.05967 7.2735C7.56634 7.68016 8.42634 7.68016 8.93301 7.2735L11.0197 5.60683C11.233 5.4335 11.553 5.46683 11.7197 5.68683C11.893 5.90016 11.8597 6.22016 11.6463 6.3935Z" fill="#69699B"/>
</svg>
