<svg width="35" height="35" viewBox="0 0 35 35" fill="none" xmlns="http://www.w3.org/2000/svg">
<path d="M34.8741 6.34415C34.7116 6.02345 34.393 5.82851 34.0431 5.82851L27.0577 6.02974C28.1761 3.89171 27.1327 1.55246 26.7265 0.646941L26.7078 0.609211C26.5204 0.181605 26.083 -0.0573505 25.6206 0.0118209C25.1645 0.0809924 24.8146 0.439426 24.7584 0.904761C24.5834 2.35736 23.8836 3.6842 22.7902 4.64631C22.7215 4.70919 22.6403 4.77207 22.559 4.84125C22.4966 4.81609 22.4278 4.79094 22.3654 4.77207C21.4156 4.45766 20.6159 4.53312 20.116 4.64631C19.7037 4.74063 19.4475 4.8664 19.2226 4.97959C19.0164 5.0802 18.8539 5.16195 18.5415 5.21854C18.2853 5.26256 18.0229 5.28143 17.7605 5.26256C17.748 5.26256 17.7355 5.26256 17.723 5.26256H17.2919C17.2856 5.26256 17.2794 5.26256 17.2731 5.26256H17.2544C17.2481 5.26256 17.2419 5.26256 17.2356 5.26256C16.9732 5.28143 16.7108 5.26885 16.4546 5.21854C16.1422 5.16195 15.9798 5.0802 15.7736 4.97959C15.5487 4.8664 15.2862 4.74063 14.8801 4.64631C14.3803 4.53312 13.5805 4.46395 12.6308 4.77207C12.5683 4.79094 12.4996 4.81609 12.4371 4.84125C12.3496 4.77207 12.2746 4.70919 12.2059 4.64631C11.1125 3.6842 10.4127 2.35107 10.2378 0.904761C10.1815 0.439426 9.83788 0.0809924 9.37552 0.0118209C8.91941 -0.0573505 8.48204 0.181605 8.28835 0.609211L8.2696 0.646941C7.86347 1.55246 6.82004 3.89171 7.93845 6.02974L0.978049 5.82851H0.9718C0.609409 5.82222 0.290756 6.02345 0.122056 6.34415C-0.140365 6.86608 0.053327 7.6647 0.390725 8.11117L2.6463 11.0667C3.08366 11.6704 3.99589 12.6576 5.25176 12.5822H7.2949C8.05092 12.5822 8.7757 12.2615 9.2818 11.7018C10.1003 10.8026 10.7564 10.0102 11.2375 9.33739C11.3812 9.13616 11.4874 8.91607 11.5499 8.68341C11.9247 8.93494 12.2497 9.20534 12.5246 9.5449C13.1181 10.2681 13.4368 10.9912 13.7992 12.3998C13.9929 13.3053 14.1303 14.2234 14.2116 15.1415C14.2803 15.9527 14.3365 17.2607 14.2116 18.8956C14.0866 20.5306 14.0241 21.3481 13.7117 22.2976L13.6992 22.329C13.5243 22.8573 13.4368 23.1151 12.737 24.335C12.3809 23.6182 11.9185 22.5491 10.9875 20.386L10.4564 18.5498L11.0125 18.9271C11.3687 19.1723 11.831 19.1723 12.1934 18.9334C12.5558 18.6944 12.737 18.2668 12.6558 17.8392L12.5558 17.2921C12.4308 16.6193 11.9497 16.0848 11.2937 15.8961L9.55046 15.393C9.17558 15.2861 8.7757 15.393 8.50078 15.6697C8.22586 15.9464 8.12589 16.3489 8.23211 16.7262L9.44425 20.8953C9.44425 20.9079 9.45049 20.9142 9.45674 20.9268L9.46924 20.9582C9.47549 20.9708 9.47549 20.9771 9.48174 20.9896C10.8751 24.2344 11.2812 25.1462 11.781 25.9763C11.7748 25.9888 11.7623 26.0077 11.7561 26.0203C11.6686 26.1712 11.5811 26.3158 11.4936 26.4542L11.4874 26.4668C10.9063 27.4226 10.4502 28.1709 10.4377 29.1141C10.4127 30.6674 11.5749 32.862 13.7055 34.0442L13.7305 34.0568C14.7739 34.6353 15.9298 34.956 17.1669 35C17.1732 35 17.1794 35 17.1857 35H17.8292C17.8355 35 17.8417 35 17.848 35H17.8542C19.0913 34.9497 20.2472 34.6353 21.2907 34.0568L21.3157 34.0442C23.4463 32.8683 24.6084 30.6674 24.5834 29.1141C24.5647 28.1709 24.1086 27.4163 23.5338 26.4605C23.4463 26.3221 23.3588 26.1712 23.2651 26.0203C23.2588 26.0077 23.2463 25.9888 23.2401 25.9763C23.7337 25.1462 24.1461 24.2344 25.5394 20.9896L25.5456 20.9708C25.5519 20.9519 25.5644 20.933 25.5706 20.9079L26.789 16.7262C26.8952 16.3489 26.7953 15.9464 26.5204 15.6697C26.2454 15.393 25.8456 15.2861 25.4707 15.393L23.7274 15.8961C23.0714 16.0848 22.5903 16.6193 22.4653 17.2921L22.3654 17.8392C22.2841 18.2668 22.4653 18.6944 22.8277 18.9334C23.1901 19.1723 23.6525 19.166 24.0086 18.9271L24.5647 18.5498L24.0336 20.386C23.1089 22.5491 22.6403 23.6244 22.2841 24.335C21.5843 23.1151 21.4969 22.8573 21.3219 22.329L21.3094 22.2976C20.997 21.3481 20.9345 20.5243 20.8096 18.8893C20.6846 17.2544 20.7408 15.9464 20.8096 15.1352C20.8908 14.2171 21.0283 13.2927 21.2219 12.3935C21.5781 10.9786 21.903 10.2618 22.4966 9.53862C22.7715 9.20534 23.0964 8.92865 23.4713 8.67712C23.5338 8.90978 23.64 9.13616 23.7837 9.3311C24.2648 10.004 24.9208 10.8026 25.7393 11.6955C26.2517 12.2552 26.9765 12.5759 27.7262 12.5759H29.7694C29.8131 12.5759 29.8631 12.5822 29.9068 12.5822C31.1002 12.5822 31.9625 11.6326 32.3748 11.0604L34.6367 8.09859C34.9428 7.6647 35.1428 6.86608 34.8741 6.34415ZM29.7944 10.9472H27.7012C27.4013 10.9472 27.1139 10.8214 26.9077 10.5951C26.1392 9.75242 25.5207 9.00411 25.0833 8.38157C24.9583 8.20549 24.9646 7.96654 25.102 7.79675L25.1145 7.78418C25.1333 7.75902 25.1583 7.74016 25.1833 7.71501L33.0371 7.48863L31.0627 10.0794L31.0565 10.0857L31.0502 10.0983C30.7378 10.5322 30.263 10.9786 29.8444 10.9472C29.8256 10.9472 29.8131 10.9472 29.7944 10.9472ZM21.2219 8.49476C20.366 9.53862 19.9848 10.5699 19.6224 12.0036C19.6224 12.0099 19.6224 12.0099 19.6224 12.0162L19.6162 12.0288C19.4037 13.0035 19.2538 14.0033 19.1726 14.9969C19.0976 15.8647 19.0351 17.2732 19.1726 19.0214C19.31 20.7884 19.3788 21.6751 19.7536 22.8195L19.7599 22.8447C20.0098 23.593 20.1035 23.8823 21.3157 25.9448C21.3032 25.9637 21.2969 25.9763 21.2844 25.9951C21.0283 26.385 20.7159 26.8629 20.2785 27.5609C19.5162 27.1082 18.554 26.8629 17.4981 26.8629C16.4859 26.8629 15.5112 27.127 14.7364 27.5924C14.2865 26.8755 13.9741 26.3913 13.7117 25.9951C13.6992 25.9763 13.693 25.9637 13.6805 25.9448C14.8926 23.8823 14.9863 23.593 15.2363 22.8447L15.2425 22.8132C15.6174 21.6751 15.6861 20.7884 15.8236 19.0214C15.9548 17.2732 15.8986 15.8709 15.8236 14.9969C15.7361 14.0033 15.5924 13.0098 15.38 12.0288V12.0225V12.0099V12.0036C15.0176 10.5762 14.6427 9.5449 13.7804 8.49476C12.9494 7.48863 11.8373 6.9101 10.5439 6.24354C10.5002 6.21839 10.4564 6.19952 10.4127 6.17437L10.369 6.1555C10.3502 6.14293 10.3315 6.13664 10.3065 6.13035C9.93785 5.95428 9.70042 5.79707 9.49423 5.47008C9.0881 4.82867 8.97564 4.04892 9.15059 3.11196C9.58795 4.1684 10.269 5.11793 11.1312 5.87882C11.3437 6.06747 11.6123 6.27498 11.8748 6.45734L12.0122 6.55167C12.1747 6.66486 12.3871 6.67743 12.5621 6.58311L12.712 6.50136C12.8495 6.43219 12.9869 6.36931 13.1306 6.32529C13.7305 6.13035 14.2178 6.16808 14.524 6.23725C14.7489 6.28756 14.8864 6.35673 15.0613 6.44477C15.3175 6.57053 15.6299 6.72145 16.161 6.82206C16.5359 6.89124 16.9295 6.91639 17.3169 6.89124H17.6793C18.0666 6.91639 18.454 6.89124 18.8352 6.82206C19.3663 6.72774 19.6787 6.57053 19.9348 6.44477C20.1098 6.35673 20.2472 6.28756 20.4722 6.23725C20.7783 6.16808 21.2657 6.13035 21.8655 6.32529C22.0092 6.36931 22.1529 6.43219 22.2841 6.50136L22.4341 6.58311C22.609 6.67743 22.8215 6.66486 22.9839 6.55167L23.1214 6.45734C23.3838 6.27498 23.6525 6.06747 23.8649 5.87882C24.7334 5.11793 25.4082 4.16211 25.8456 3.11196C26.0268 4.04892 25.908 4.82867 25.5019 5.47008C25.2895 5.80336 25.0395 5.96685 24.6522 6.14922L24.5959 6.17437C24.5459 6.19952 24.5022 6.21839 24.4522 6.24983C23.1651 6.9101 22.0529 7.48863 21.2219 8.49476ZM17.2044 33.365C16.2297 33.3273 15.3237 33.0758 14.5052 32.623L14.4802 32.6104C12.9244 31.7489 12.0435 30.0448 12.056 29.1456C12.0622 28.6865 12.3496 28.1772 12.762 27.5043C12.9744 27.8376 13.2306 28.2338 13.543 28.7431C13.4118 28.9506 13.3118 29.1644 13.2369 29.3845V29.3908C13.1869 29.5543 13.1619 29.7178 13.1619 29.8876C13.1619 30.812 13.9117 31.5666 14.8301 31.5666C15.355 31.5666 16.4609 31.2396 16.6421 30.4913C16.742 30.07 16.5421 29.6549 16.1485 29.4474C16.061 29.4034 15.8923 29.2776 15.6361 28.9569C16.1485 28.6614 16.817 28.4916 17.5043 28.4916C18.2166 28.4916 18.8914 28.6551 19.3912 28.9318C19.1288 29.2713 18.9539 29.3971 18.8602 29.4474C18.4665 29.6549 18.2666 30.0762 18.3666 30.4913C18.5478 31.2396 19.6537 31.5666 20.1785 31.5666C21.097 31.5666 21.8468 30.812 21.8468 29.8876C21.8468 29.7241 21.8218 29.5606 21.778 29.4034C21.7093 29.1644 21.6093 28.9318 21.4781 28.718C21.7843 28.2212 22.0342 27.825 22.2466 27.498C22.6528 28.1772 22.9402 28.6802 22.9527 29.1393C22.9652 30.0448 22.0842 31.7489 20.5284 32.6042L20.5034 32.6167C19.6849 33.0695 18.7789 33.321 17.8042 33.3588H17.2044V33.365ZM8.08841 10.5951C7.88222 10.8151 7.5948 10.9472 7.2949 10.9472H5.22052C5.21427 10.9472 5.20802 10.9472 5.20178 10.9472H5.18303C5.17678 10.9472 5.17054 10.9472 5.16429 10.9472C4.75191 10.9786 4.27081 10.5322 3.9584 10.0983C3.9584 10.092 3.95215 10.092 3.9459 10.0857L1.96525 7.49492L9.81913 7.72129C9.84413 7.74016 9.86287 7.76531 9.88786 7.79047L9.90036 7.80304C10.0378 7.97283 10.0441 8.21178 9.9191 8.38786C9.47549 9.00411 8.86317 9.75242 8.08841 10.5951Z" fill="#69699B"/>
</svg>
