<svg width="25" height="25" viewBox="0 0 25 25" fill="none" xmlns="http://www.w3.org/2000/svg">
<g clip-path="url(#clip0_26_94)">
<path fill-rule="evenodd" clip-rule="evenodd" d="M8.85833 3.06188C8.19167 2.86854 7.7 2.92021 7.34167 3.11521C6.98167 3.30854 6.66833 3.69354 6.465 4.35688C6.26167 5.02521 6.19333 5.91688 6.29167 6.99354C6.30833 7.16854 6.32833 7.34688 6.35333 7.52854C7.27274 7.29776 8.20567 7.12464 9.14667 7.01021C9.7895 6.10248 10.4998 5.24449 11.2717 4.44354C11.2352 4.41388 11.1985 4.38444 11.1617 4.35521C10.315 3.68521 9.52833 3.25521 8.85833 3.06188ZM12.5 3.29521C12.4 3.21188 12.2983 3.12854 12.1967 3.04854C11.2433 2.29521 10.2667 1.73354 9.32333 1.46021C8.37333 1.18521 7.40167 1.18521 6.54667 1.65021C5.69167 2.11354 5.15833 2.92854 4.87167 3.87354C4.585 4.81354 4.52167 5.93688 4.63167 7.14854C4.65833 7.43188 4.69333 7.72188 4.74 8.02021C4.45667 8.12021 4.18333 8.22854 3.92333 8.34021C2.805 8.81854 1.84667 9.41021 1.15667 10.1102C0.463333 10.8119 0 11.6669 0 12.6402C0 13.6119 0.463333 14.4685 1.15667 15.1719C1.84667 15.8719 2.805 16.4619 3.92333 16.9419C4.18333 17.0535 4.45667 17.1602 4.74 17.2619C4.69507 17.5513 4.65894 17.842 4.63167 18.1335C4.52167 19.3435 4.585 20.4669 4.87167 21.4085C5.15833 22.3535 5.69167 23.1685 6.54667 23.6302C7.40167 24.0935 8.375 24.0952 9.32333 23.8202C10.2667 23.5452 11.2433 22.9869 12.1967 22.2319L12.5 21.9835C12.6 22.0685 12.7017 22.1502 12.8033 22.2319C13.7567 22.9852 14.7333 23.5452 15.6767 23.8202C16.625 24.0952 17.5983 24.0935 18.4533 23.6302C19.3083 23.1685 19.8417 22.3535 20.1283 21.4085C20.415 20.4685 20.4783 19.3435 20.3683 18.1335C20.3411 17.842 20.305 17.5513 20.26 17.2619C20.5356 17.164 20.8079 17.0573 21.0767 16.9419C22.195 16.4619 23.1533 15.8702 23.8433 15.1719C24.5367 14.4685 25 13.6119 25 12.6385C25 11.6685 24.5367 10.8119 23.8433 10.1085C23.1533 9.40854 22.195 8.81688 21.0767 8.33854C20.8077 8.22367 20.5354 8.11696 20.26 8.01854C20.305 7.72021 20.3417 7.43021 20.3683 7.14688C20.4783 5.93521 20.415 4.81354 20.1283 3.87188C19.8417 2.92688 19.3083 2.11188 18.4533 1.64854C17.6 1.18521 16.625 1.18521 15.6767 1.46021C14.7333 1.73354 13.7567 2.29354 12.8033 3.04854L12.5 3.29521ZM12.5 5.57021C12.125 5.95354 11.75 6.37521 11.38 6.82854C12.1264 6.799 12.8736 6.799 13.62 6.82854C13.2655 6.39273 12.8918 5.97287 12.5 5.57021ZM15.8533 7.01021C15.17 6.05354 14.4533 5.19021 13.7283 4.44354L13.8367 4.35521C14.6867 3.68521 15.47 3.25521 16.1417 3.06188C16.8067 2.86854 17.3 2.92021 17.6583 3.11521C18.0183 3.30854 18.3317 3.69354 18.5333 4.35688C18.7367 5.02521 18.8067 5.91688 18.7083 6.99354C18.6917 7.16854 18.6717 7.34688 18.6467 7.52688C17.7272 7.29666 16.7943 7.1241 15.8533 7.01021ZM14.915 8.58354C13.3085 8.43395 11.6915 8.43395 10.085 8.58354C9.22676 9.86733 8.48439 11.2249 7.86667 12.6402C8.48446 14.0546 9.22624 15.4116 10.0833 16.6952C11.691 16.845 13.309 16.845 14.9167 16.6952C15.7742 15.4119 16.516 14.0549 17.1333 12.6402C16.5156 11.2252 15.7722 9.86768 14.915 8.58354ZM17.9567 10.4802C17.6808 9.93996 17.3879 9.40859 17.0783 8.88688C17.5117 8.97021 17.93 9.06354 18.3317 9.16688C18.2267 9.59354 18.1017 10.0335 17.9567 10.4802ZM17.9567 14.7985C17.6812 15.3396 17.3883 15.8715 17.0783 16.3935C17.5117 16.3102 17.93 16.2169 18.3317 16.1119C18.2221 15.6699 18.097 15.2318 17.9567 14.7985ZM19.9233 15.6102C19.6644 14.5991 19.337 13.6068 18.9433 12.6402C19.3533 11.6235 19.6817 10.6252 19.9233 9.67021C20.095 9.73354 20.2617 9.80188 20.4233 9.87021C21.4167 10.2969 22.1683 10.7819 22.6583 11.2785C23.145 11.7719 23.335 12.2319 23.335 12.6402C23.335 13.0485 23.145 13.5069 22.6583 14.0002C22.1683 14.4985 21.4167 14.9835 20.4233 15.4102C20.2581 15.4805 20.0914 15.5472 19.9233 15.6102ZM18.6483 17.7519C17.729 17.983 16.7961 18.1561 15.855 18.2702C15.1717 19.2269 14.455 20.0885 13.73 20.8369L13.84 20.9235C14.6867 21.5952 15.4733 22.0235 16.1433 22.2185C16.8083 22.4119 17.3017 22.3602 17.66 22.1652C18.02 21.9702 18.3333 21.5852 18.535 20.9219C18.74 20.2552 18.8083 19.3619 18.71 18.2852C18.6933 18.107 18.6727 17.9292 18.6483 17.7519ZM12.5 19.7102C12.875 19.3269 13.25 18.9052 13.62 18.4519C12.8736 18.4815 12.1264 18.4815 11.38 18.4519C11.75 18.9052 12.125 19.3252 12.5 19.7102ZM7.92333 16.3935C7.61351 15.8714 7.32059 15.3395 7.045 14.7985C6.9 15.2485 6.775 15.6852 6.67 16.1119C7.07 16.2169 7.49 16.3102 7.92333 16.3935ZM6.35333 17.7519C7.27266 17.983 8.20561 18.1561 9.14667 18.2702C9.83 19.2269 10.545 20.0885 11.2717 20.8369C11.2352 20.866 11.1985 20.8949 11.1617 20.9235C10.315 21.5952 9.52833 22.0235 8.85833 22.2185C8.19167 22.4119 7.7 22.3602 7.34 22.1652C6.98 21.9702 6.66833 21.5852 6.465 20.9219C6.26167 20.2552 6.19333 19.3619 6.29167 18.2852C6.30839 18.107 6.32895 17.9292 6.35333 17.7519ZM5.07833 15.6102C5.32 14.6535 5.64667 13.6569 6.05833 12.6402C5.66469 11.6736 5.33726 10.6813 5.07833 9.67021C4.91042 9.73371 4.74372 9.80039 4.57833 9.87021C3.585 10.2969 2.83333 10.7819 2.34333 11.2785C1.85667 11.7719 1.66667 12.2319 1.66667 12.6402C1.66667 13.0485 1.85667 13.5069 2.34333 14.0002C2.83333 14.4985 3.585 14.9835 4.57833 15.4102C4.74 15.4785 4.90667 15.5452 5.07833 15.6102ZM6.67 9.16854C6.775 9.59354 6.9 10.0335 7.045 10.4802C7.32076 9.9399 7.61369 9.40851 7.92333 8.88688C7.49 8.97021 7.07167 9.06354 6.67 9.16854ZM10 12.6402C10 11.9772 10.2634 11.3413 10.7322 10.8724C11.2011 10.4036 11.837 10.1402 12.5 10.1402C13.163 10.1402 13.7989 10.4036 14.2678 10.8724C14.7366 11.3413 15 11.9772 15 12.6402C15 13.3033 14.7366 13.9391 14.2678 14.408C13.7989 14.8768 13.163 15.1402 12.5 15.1402C11.837 15.1402 11.2011 14.8768 10.7322 14.408C10.2634 13.9391 10 13.3033 10 12.6402ZM12.5 11.8069C12.279 11.8069 12.067 11.8947 11.9107 12.051C11.7545 12.2072 11.6667 12.4192 11.6667 12.6402C11.6667 12.8612 11.7545 13.0732 11.9107 13.2295C12.067 13.3857 12.279 13.4735 12.5 13.4735C12.721 13.4735 12.933 13.3857 13.0893 13.2295C13.2455 13.0732 13.3333 12.8612 13.3333 12.6402C13.3333 12.4192 13.2455 12.2072 13.0893 12.051C12.933 11.8947 12.721 11.8069 12.5 11.8069Z" fill="#69699B"/>
</g>
<defs>
<clipPath id="clip0_26_94">
<rect width="25" height="25" fill="white"/>
</clipPath>
</defs>
</svg>
