<svg width="19" height="19" viewBox="0 0 19 19" fill="none" xmlns="http://www.w3.org/2000/svg">
<path d="M16.9167 0H1.83333C1.3471 0 0.880787 0.193154 0.536971 0.536971C0.193154 0.880787 0 1.3471 0 1.83333V16.9167C0 17.4029 0.193154 17.8692 0.536971 18.213C0.880787 18.5568 1.3471 18.75 1.83333 18.75H16.9167C17.1574 18.75 17.3958 18.7026 17.6183 18.6104C17.8407 18.5183 18.0428 18.3833 18.213 18.213C18.3833 18.0428 18.5183 17.8407 18.6104 17.6183C18.7026 17.3958 18.75 17.1574 18.75 16.9167V1.83333C18.75 1.59258 18.7026 1.35418 18.6104 1.13175C18.5183 0.909317 18.3833 0.707211 18.213 0.536971C18.0428 0.36673 17.8407 0.231688 17.6183 0.139554C17.3958 0.0474205 17.1574 0 16.9167 0ZM10.875 10.4167H8.53125V17.125H6.66667V10.4167H4.32292V8.89583H10.875V10.4167ZM16.9167 15.9167C16.7659 16.2373 16.5229 16.5057 16.2188 16.6875C15.8988 16.8844 15.5459 17.0221 15.1771 17.0938C14.7659 17.1787 14.347 17.2206 13.9271 17.2188C13.4975 17.2184 13.0687 17.18 12.6458 17.1042C12.2864 17.0306 11.9368 16.9152 11.6042 16.7604V14.9792L11.5417 14.9167H11.6042V14.9896C11.9175 15.234 12.2696 15.4242 12.6458 15.5521C13.0215 15.6951 13.4209 15.7658 13.8229 15.7604C14.033 15.7641 14.2427 15.7431 14.4479 15.6979C14.602 15.6619 14.7496 15.6021 14.8854 15.5208C14.9917 15.456 15.081 15.3667 15.1458 15.2604C15.21 15.1393 15.2382 15.0024 15.2271 14.8659C15.216 14.7293 15.1661 14.5987 15.0833 14.4896C14.9854 14.3523 14.8615 14.2355 14.7187 14.1458C14.5454 14.0239 14.3604 13.9192 14.1667 13.8333L13.4688 13.5417C12.9163 13.3141 12.4268 12.9568 12.0417 12.5C11.7194 12.1115 11.5491 11.6192 11.5625 11.1146C11.5504 10.7312 11.6364 10.3511 11.8125 10.0104C11.9805 9.71342 12.216 9.46007 12.5 9.27083C12.8164 9.06034 13.1699 8.91188 13.5417 8.83333C13.9481 8.73978 14.3642 8.69433 14.7812 8.69792C15.161 8.69261 15.5407 8.71699 15.9167 8.77083C16.2295 8.81974 16.5366 8.9 16.8333 9.01042V10.7292C16.6962 10.6314 16.5497 10.5477 16.3958 10.4792C16.2302 10.4079 16.0596 10.3487 15.8854 10.3021C15.7185 10.2532 15.5477 10.2184 15.375 10.1979C15.2156 10.1829 15.0552 10.1829 14.8958 10.1979C14.6996 10.1947 14.5036 10.2157 14.3125 10.2604C14.1557 10.2933 14.0047 10.3495 13.8646 10.4271C13.7552 10.4915 13.6624 10.5807 13.5937 10.6875C13.5314 10.7912 13.499 10.9102 13.5 11.0312C13.4975 11.1605 13.5337 11.2875 13.6042 11.3958C13.6897 11.5141 13.7955 11.6164 13.9167 11.6979C14.0635 11.8148 14.2245 11.9128 14.3958 11.9896L15.0521 12.2812C15.3538 12.406 15.6462 12.5522 15.9271 12.7188C16.174 12.8539 16.3989 13.026 16.5938 13.2292C16.7847 13.4142 16.9339 13.638 17.0312 13.8854C17.1311 14.1698 17.1805 14.4694 17.1771 14.7708C17.1696 15.1599 17.0809 15.5431 16.9167 15.8958V15.9167Z" fill="#69699B"/>
</svg>
